<?xml version="1.0" encoding="utf-8"?>
<svg version="1.1" xmlns:xlink="http://www.w3.org/1999/xlink" width="25px" height="25px" xmlns="http://www.w3.org/2000/svg">
  <defs>
    <pattern id="BGPattern" patternUnits="userSpaceOnUse" alignment="0 0" imageRepeat="None" />
    <mask fill="white" id="Clip91">
      <path d="M 21.14206981016534 5.943627450980394  C 21.427842416819757 5.6576797385620905  21.57072872014697 5.310457516339867  21.57072872014697 4.901960784313725  C 21.57072872014697 4.49346405228758  21.427842416819757 4.146241830065356  21.14206981016534 3.860294117647059  C 20.856297203510923 3.5743464052287566  20.50928760971627 3.4313725490196068  20.10104102878138 3.4313725490196068  C 19.692794447846502 3.4313725490196068  19.345784854051846 3.5743464052287566  19.060012247397427 3.860294117647059  C 18.774239640743012 4.146241830065356  18.6313533374158 4.49346405228758  18.6313533374158 4.901960784313725  C 18.6313533374158 5.310457516339867  18.774239640743012 5.6576797385620905  19.060012247397427 5.943627450980394  C 19.345784854051846 6.22957516339869  19.692794447846502 6.372549019607843  20.10104102878138 6.372549019607843  C 20.50928760971627 6.372549019607843  20.856297203510923 6.22957516339869  21.14206981016534 5.943627450980394  Z M 24.846907532149416 0.1455269607843146  C 24.94896917738314 0.24254493464052063  25 0.35743464052287455  25 0.4901960784313736  C 25 3.0330882352941178  24.614717289242705 5.231311274509803  23.844151867728108 7.084865196078432  C 23.073586446213515 8.93841911764706  21.7799550928761 10.77920751633987  19.96325780771586 12.607230392156863  C 19.13655848132272 13.42422385620915  18.141457440293937 14.322916666666668  16.977954684629516 15.30330882352941  L 16.67176974892835 21.10906862745098  C 16.65135741988161 21.27246732026144  16.569708103694634 21.405228758169933  16.42682180036742 21.50735294117647  L 10.548071034905082 24.938725490196077  C 10.476627883241479 24.979575163398692  10.394978567054501 25  10.30312308634415 25  C 10.180649112063685 25  10.063278220044907 24.954044117647058  9.951010410287815 24.862132352941178  L 8.97121861604409 23.881740196078432  C 8.838538477240254 23.738766339869283  8.797713819146766 23.575367647058822  8.848744641763625 23.391544117647058  L 10.15003061849357 19.16360294117647  L 5.848132271892223 14.85906862745098  L 1.6227801592161666 16.161151960784316  C 1.5921616656460504 16.171364379084967  1.5462339252908757 16.176470588235293  1.484996938150643 16.176470588235293  C 1.3421106348234335 16.176470588235293  1.2247397428046543 16.130514705882355  1.132884262094305 16.03860294117647  L 0.15309246785058175 15.058210784313724  C -0.020412329046744268 14.864174836601308  -0.04592774035517452 14.66503267973856  0.07654623392529088 14.460784313725489  L 3.505817513778322 8.57843137254902  C 3.6078791590120436 8.435457516339866  3.740559297815881 8.353758169934638  3.9038579301898344 8.333333333333334  L 9.706062461726884 8.026960784313724  C 10.685854255970606 6.862745098039216  11.583996734027354 5.867034313725491  12.400489895897122 5.039828431372547  C 14.319248826291082 3.130106209150327  16.14615227597469 1.8127042483660123  17.881200244947948 1.0876225490196068  C 19.61624821392121 0.3625408496732013  21.8156766687079 0  24.47948560930802 0  C 24.622371912635234 0  24.7448458869157 0.048508986928103015  24.846907532149416 0.1455269607843146  Z " fill-rule="evenodd" />
    </mask>
  </defs>
  <g transform="matrix(1 0 0 1 -8 -8 )">
    <path d="M 21.14206981016534 5.943627450980394  C 21.427842416819757 5.6576797385620905  21.57072872014697 5.310457516339867  21.57072872014697 4.901960784313725  C 21.57072872014697 4.49346405228758  21.427842416819757 4.146241830065356  21.14206981016534 3.860294117647059  C 20.856297203510923 3.5743464052287566  20.50928760971627 3.4313725490196068  20.10104102878138 3.4313725490196068  C 19.692794447846502 3.4313725490196068  19.345784854051846 3.5743464052287566  19.060012247397427 3.860294117647059  C 18.774239640743012 4.146241830065356  18.6313533374158 4.49346405228758  18.6313533374158 4.901960784313725  C 18.6313533374158 5.310457516339867  18.774239640743012 5.6576797385620905  19.060012247397427 5.943627450980394  C 19.345784854051846 6.22957516339869  19.692794447846502 6.372549019607843  20.10104102878138 6.372549019607843  C 20.50928760971627 6.372549019607843  20.856297203510923 6.22957516339869  21.14206981016534 5.943627450980394  Z M 24.846907532149416 0.1455269607843146  C 24.94896917738314 0.24254493464052063  25 0.35743464052287455  25 0.4901960784313736  C 25 3.0330882352941178  24.614717289242705 5.231311274509803  23.844151867728108 7.084865196078432  C 23.073586446213515 8.93841911764706  21.7799550928761 10.77920751633987  19.96325780771586 12.607230392156863  C 19.13655848132272 13.42422385620915  18.141457440293937 14.322916666666668  16.977954684629516 15.30330882352941  L 16.67176974892835 21.10906862745098  C 16.65135741988161 21.27246732026144  16.569708103694634 21.405228758169933  16.42682180036742 21.50735294117647  L 10.548071034905082 24.938725490196077  C 10.476627883241479 24.979575163398692  10.394978567054501 25  10.30312308634415 25  C 10.180649112063685 25  10.063278220044907 24.954044117647058  9.951010410287815 24.862132352941178  L 8.97121861604409 23.881740196078432  C 8.838538477240254 23.738766339869283  8.797713819146766 23.575367647058822  8.848744641763625 23.391544117647058  L 10.15003061849357 19.16360294117647  L 5.848132271892223 14.85906862745098  L 1.6227801592161666 16.161151960784316  C 1.5921616656460504 16.171364379084967  1.5462339252908757 16.176470588235293  1.484996938150643 16.176470588235293  C 1.3421106348234335 16.176470588235293  1.2247397428046543 16.130514705882355  1.132884262094305 16.03860294117647  L 0.15309246785058175 15.058210784313724  C -0.020412329046744268 14.864174836601308  -0.04592774035517452 14.66503267973856  0.07654623392529088 14.460784313725489  L 3.505817513778322 8.57843137254902  C 3.6078791590120436 8.435457516339866  3.740559297815881 8.353758169934638  3.9038579301898344 8.333333333333334  L 9.706062461726884 8.026960784313724  C 10.685854255970606 6.862745098039216  11.583996734027354 5.867034313725491  12.400489895897122 5.039828431372547  C 14.319248826291082 3.130106209150327  16.14615227597469 1.8127042483660123  17.881200244947948 1.0876225490196068  C 19.61624821392121 0.3625408496732013  21.8156766687079 0  24.47948560930802 0  C 24.622371912635234 0  24.7448458869157 0.048508986928103015  24.846907532149416 0.1455269607843146  Z " fill-rule="nonzero" fill="rgba(170, 170, 170, 0.4980392156862745)" stroke="none" transform="matrix(1 0 0 1 8 8 )" class="fill" />
    <path d="M 21.14206981016534 5.943627450980394  C 21.427842416819757 5.6576797385620905  21.57072872014697 5.310457516339867  21.57072872014697 4.901960784313725  C 21.57072872014697 4.49346405228758  21.427842416819757 4.146241830065356  21.14206981016534 3.860294117647059  C 20.856297203510923 3.5743464052287566  20.50928760971627 3.4313725490196068  20.10104102878138 3.4313725490196068  C 19.692794447846502 3.4313725490196068  19.345784854051846 3.5743464052287566  19.060012247397427 3.860294117647059  C 18.774239640743012 4.146241830065356  18.6313533374158 4.49346405228758  18.6313533374158 4.901960784313725  C 18.6313533374158 5.310457516339867  18.774239640743012 5.6576797385620905  19.060012247397427 5.943627450980394  C 19.345784854051846 6.22957516339869  19.692794447846502 6.372549019607843  20.10104102878138 6.372549019607843  C 20.50928760971627 6.372549019607843  20.856297203510923 6.22957516339869  21.14206981016534 5.943627450980394  Z " stroke-width="0" stroke-dasharray="0" stroke="rgba(255, 255, 255, 0)" fill="none" transform="matrix(1 0 0 1 8 8 )" class="stroke" mask="url(#Clip91)" />
    <path d="M 24.846907532149416 0.1455269607843146  C 24.94896917738314 0.24254493464052063  25 0.35743464052287455  25 0.4901960784313736  C 25 3.0330882352941178  24.614717289242705 5.231311274509803  23.844151867728108 7.084865196078432  C 23.073586446213515 8.93841911764706  21.7799550928761 10.77920751633987  19.96325780771586 12.607230392156863  C 19.13655848132272 13.42422385620915  18.141457440293937 14.322916666666668  16.977954684629516 15.30330882352941  L 16.67176974892835 21.10906862745098  C 16.65135741988161 21.27246732026144  16.569708103694634 21.405228758169933  16.42682180036742 21.50735294117647  L 10.548071034905082 24.938725490196077  C 10.476627883241479 24.979575163398692  10.394978567054501 25  10.30312308634415 25  C 10.180649112063685 25  10.063278220044907 24.954044117647058  9.951010410287815 24.862132352941178  L 8.97121861604409 23.881740196078432  C 8.838538477240254 23.738766339869283  8.797713819146766 23.575367647058822  8.848744641763625 23.391544117647058  L 10.15003061849357 19.16360294117647  L 5.848132271892223 14.85906862745098  L 1.6227801592161666 16.161151960784316  C 1.5921616656460504 16.171364379084967  1.5462339252908757 16.176470588235293  1.484996938150643 16.176470588235293  C 1.3421106348234335 16.176470588235293  1.2247397428046543 16.130514705882355  1.132884262094305 16.03860294117647  L 0.15309246785058175 15.058210784313724  C -0.020412329046744268 14.864174836601308  -0.04592774035517452 14.66503267973856  0.07654623392529088 14.460784313725489  L 3.505817513778322 8.57843137254902  C 3.6078791590120436 8.435457516339866  3.740559297815881 8.353758169934638  3.9038579301898344 8.333333333333334  L 9.706062461726884 8.026960784313724  C 10.685854255970606 6.862745098039216  11.583996734027354 5.867034313725491  12.400489895897122 5.039828431372547  C 14.319248826291082 3.130106209150327  16.14615227597469 1.8127042483660123  17.881200244947948 1.0876225490196068  C 19.61624821392121 0.3625408496732013  21.8156766687079 0  24.47948560930802 0  C 24.622371912635234 0  24.7448458869157 0.048508986928103015  24.846907532149416 0.1455269607843146  Z " stroke-width="0" stroke-dasharray="0" stroke="rgba(255, 255, 255, 0)" fill="none" transform="matrix(1 0 0 1 8 8 )" class="stroke" mask="url(#Clip91)" />
  </g>
</svg>