<?xml version="1.0" encoding="utf-8"?>
<svg version="1.1" xmlns:xlink="http://www.w3.org/1999/xlink" width="42px" height="42px" xmlns="http://www.w3.org/2000/svg">
  <defs>
    <pattern id="BGPattern" patternUnits="userSpaceOnUse" alignment="0 0" imageRepeat="None" />
    <mask fill="white" id="Clip432">
      <path d="M 9.733333333333333 6.5  C 10.355555555555556 7.277777777777775  10.666666666666666 8.222222222222218  10.666666666666666 9.333333333333332  C 10.666666666666666 10.444444444444443  10.355555555555556 11.38888888888889  9.733333333333333 12.166666666666668  C 9.111111111111112 12.944444444444446  8.355555555555556 13.333333333333332  7.466666666666667 13.333333333333332  C 6.577777777777778 13.333333333333332  5.822222222222223 12.944444444444446  5.2 12.166666666666668  C 4.577777777777778 11.38888888888889  4.266666666666667 10.444444444444443  4.266666666666667 9.333333333333332  C 4.266666666666667 8.222222222222218  4.577777777777778 7.277777777777775  5.2 6.5  C 5.822222222222223 5.722222222222218  6.577777777777778 5.333333333333332  7.466666666666667 5.333333333333332  C 8.355555555555556 5.333333333333332  9.111111111111112 5.722222222222218  9.733333333333333 6.5  Z M 20.8 8.666666666666668  L 27.733333333333334 17.333333333333336  L 27.733333333333334 26.666666666666668  L 4.266666666666667 26.666666666666668  L 4.266666666666667 22.666666666666664  L 9.6 16  L 12.266666666666667 19.333333333333336  L 20.8 8.666666666666668  Z M 29.708333333333332 2.864583333333332  C 29.60277777777778 2.7326388888888857  29.47777777777778 2.666666666666668  29.333333333333332 3  L 2.6666666666666665 3  C 2.5222222222222226 2.666666666666668  2.3972222222222226 2.7326388888888857  2.2916666666666665 2.864583333333332  C 2.1861111111111113 2.996527777777775  2.1333333333333333 3.152777777777775  2.1333333333333333 3.333333333333332  L 2.1333333333333333 28.666666666666668  C 2.1333333333333333 28.847222222222225  2.1861111111111113 29.003472222222225  2.2916666666666665 29.135416666666668  C 2.3972222222222226 29.26736111111111  2.5222222222222226 29.333333333333332  2.6666666666666665 29  L 29.333333333333332 29  C 29.47777777777778 29.333333333333332  29.60277777777778 29.26736111111111  29.708333333333332 29.135416666666668  C 29.81388888888889 29.003472222222225  29.866666666666667 28.847222222222225  29.866666666666667 28.666666666666668  L 29.866666666666667 3.333333333333332  C 29.866666666666667 3.152777777777775  29.81388888888889 2.996527777777775  29.708333333333332 2.864583333333332  Z M 31.216666666666665 0.9791666666666679  C 31.73888888888889 1.6319444444444429  32.00000000000001 2.416666666666668  32 3.333333333333332  L 32 28.666666666666668  C 32.00000000000001 29.583333333333332  31.73888888888889 30.368055555555557  31.216666666666665 31.020833333333332  C 30.694444444444446 31.67361111111111  30.066666666666666 32  29.333333333333332 32  L 2.6666666666666665 32  C 1.9333333333333333 32  1.3055555555555558 31.67361111111111  0.7833333333333333 31.020833333333332  C 0.2611111111111111 30.368055555555557  0 29.583333333333332  0 28.666666666666668  L 0 3.333333333333332  C 0 2.416666666666668  0.2611111111111111 1.6319444444444429  0.7833333333333333 0.9791666666666679  C 1.3055555555555558 0.32638888888888573  1.9333333333333333 0  2.6666666666666665 0  L 29.333333333333332 0  C 30.066666666666666 0  30.694444444444446 0.32638888888888573  31.216666666666665 0.9791666666666679  Z " fill-rule="evenodd" />
    </mask>
  </defs>
  <g transform="matrix(1 0 0 1 -15 -10 )">
    <path d="M 9.733333333333333 6.5  C 10.355555555555556 7.277777777777775  10.666666666666666 8.222222222222218  10.666666666666666 9.333333333333332  C 10.666666666666666 10.444444444444443  10.355555555555556 11.38888888888889  9.733333333333333 12.166666666666668  C 9.111111111111112 12.944444444444446  8.355555555555556 13.333333333333332  7.466666666666667 13.333333333333332  C 6.577777777777778 13.333333333333332  5.822222222222223 12.944444444444446  5.2 12.166666666666668  C 4.577777777777778 11.38888888888889  4.266666666666667 10.444444444444443  4.266666666666667 9.333333333333332  C 4.266666666666667 8.222222222222218  4.577777777777778 7.277777777777775  5.2 6.5  C 5.822222222222223 5.722222222222218  6.577777777777778 5.333333333333332  7.466666666666667 5.333333333333332  C 8.355555555555556 5.333333333333332  9.111111111111112 5.722222222222218  9.733333333333333 6.5  Z M 20.8 8.666666666666668  L 27.733333333333334 17.333333333333336  L 27.733333333333334 26.666666666666668  L 4.266666666666667 26.666666666666668  L 4.266666666666667 22.666666666666664  L 9.6 16  L 12.266666666666667 19.333333333333336  L 20.8 8.666666666666668  Z M 29.708333333333332 2.864583333333332  C 29.60277777777778 2.7326388888888857  29.47777777777778 2.666666666666668  29.333333333333332 3  L 2.6666666666666665 3  C 2.5222222222222226 2.666666666666668  2.3972222222222226 2.7326388888888857  2.2916666666666665 2.864583333333332  C 2.1861111111111113 2.996527777777775  2.1333333333333333 3.152777777777775  2.1333333333333333 3.333333333333332  L 2.1333333333333333 28.666666666666668  C 2.1333333333333333 28.847222222222225  2.1861111111111113 29.003472222222225  2.2916666666666665 29.135416666666668  C 2.3972222222222226 29.26736111111111  2.5222222222222226 29.333333333333332  2.6666666666666665 29  L 29.333333333333332 29  C 29.47777777777778 29.333333333333332  29.60277777777778 29.26736111111111  29.708333333333332 29.135416666666668  C 29.81388888888889 29.003472222222225  29.866666666666667 28.847222222222225  29.866666666666667 28.666666666666668  L 29.866666666666667 3.333333333333332  C 29.866666666666667 3.152777777777775  29.81388888888889 2.996527777777775  29.708333333333332 2.864583333333332  Z M 31.216666666666665 0.9791666666666679  C 31.73888888888889 1.6319444444444429  32.00000000000001 2.416666666666668  32 3.333333333333332  L 32 28.666666666666668  C 32.00000000000001 29.583333333333332  31.73888888888889 30.368055555555557  31.216666666666665 31.020833333333332  C 30.694444444444446 31.67361111111111  30.066666666666666 32  29.333333333333332 32  L 2.6666666666666665 32  C 1.9333333333333333 32  1.3055555555555558 31.67361111111111  0.7833333333333333 31.020833333333332  C 0.2611111111111111 30.368055555555557  0 29.583333333333332  0 28.666666666666668  L 0 3.333333333333332  C 0 2.416666666666668  0.2611111111111111 1.6319444444444429  0.7833333333333333 0.9791666666666679  C 1.3055555555555558 0.32638888888888573  1.9333333333333333 0  2.6666666666666665 0  L 29.333333333333332 0  C 30.066666666666666 0  30.694444444444446 0.32638888888888573  31.216666666666665 0.9791666666666679  Z " fill-rule="nonzero" fill="rgba(0, 170, 131, 1)" stroke="none" transform="matrix(1 0 0 1 20 15 )" class="fill" />
    <path d="M 9.733333333333333 6.5  C 10.355555555555556 7.277777777777775  10.666666666666666 8.222222222222218  10.666666666666666 9.333333333333332  C 10.666666666666666 10.444444444444443  10.355555555555556 11.38888888888889  9.733333333333333 12.166666666666668  C 9.111111111111112 12.944444444444446  8.355555555555556 13.333333333333332  7.466666666666667 13.333333333333332  C 6.577777777777778 13.333333333333332  5.822222222222223 12.944444444444446  5.2 12.166666666666668  C 4.577777777777778 11.38888888888889  4.266666666666667 10.444444444444443  4.266666666666667 9.333333333333332  C 4.266666666666667 8.222222222222218  4.577777777777778 7.277777777777775  5.2 6.5  C 5.822222222222223 5.722222222222218  6.577777777777778 5.333333333333332  7.466666666666667 5.333333333333332  C 8.355555555555556 5.333333333333332  9.111111111111112 5.722222222222218  9.733333333333333 6.5  Z " stroke-width="0" stroke-dasharray="0" stroke="rgba(255, 255, 255, 0)" fill="none" transform="matrix(1 0 0 1 20 15 )" class="stroke" mask="url(#Clip432)" />
    <path d="M 20.8 8.666666666666668  L 27.733333333333334 17.333333333333336  L 27.733333333333334 26.666666666666668  L 4.266666666666667 26.666666666666668  L 4.266666666666667 22.666666666666664  L 9.6 16  L 12.266666666666667 19.333333333333336  L 20.8 8.666666666666668  Z " stroke-width="0" stroke-dasharray="0" stroke="rgba(255, 255, 255, 0)" fill="none" transform="matrix(1 0 0 1 20 15 )" class="stroke" mask="url(#Clip432)" />
    <path d="M 29.708333333333332 2.864583333333332  C 29.60277777777778 2.7326388888888857  29.47777777777778 2.666666666666668  29.333333333333332 3  L 2.6666666666666665 3  C 2.5222222222222226 2.666666666666668  2.3972222222222226 2.7326388888888857  2.2916666666666665 2.864583333333332  C 2.1861111111111113 2.996527777777775  2.1333333333333333 3.152777777777775  2.1333333333333333 3.333333333333332  L 2.1333333333333333 28.666666666666668  C 2.1333333333333333 28.847222222222225  2.1861111111111113 29.003472222222225  2.2916666666666665 29.135416666666668  C 2.3972222222222226 29.26736111111111  2.5222222222222226 29.333333333333332  2.6666666666666665 29  L 29.333333333333332 29  C 29.47777777777778 29.333333333333332  29.60277777777778 29.26736111111111  29.708333333333332 29.135416666666668  C 29.81388888888889 29.003472222222225  29.866666666666667 28.847222222222225  29.866666666666667 28.666666666666668  L 29.866666666666667 3.333333333333332  C 29.866666666666667 3.152777777777775  29.81388888888889 2.996527777777775  29.708333333333332 2.864583333333332  Z " stroke-width="0" stroke-dasharray="0" stroke="rgba(255, 255, 255, 0)" fill="none" transform="matrix(1 0 0 1 20 15 )" class="stroke" mask="url(#Clip432)" />
    <path d="M 31.216666666666665 0.9791666666666679  C 31.73888888888889 1.6319444444444429  32.00000000000001 2.416666666666668  32 3.333333333333332  L 32 28.666666666666668  C 32.00000000000001 29.583333333333332  31.73888888888889 30.368055555555557  31.216666666666665 31.020833333333332  C 30.694444444444446 31.67361111111111  30.066666666666666 32  29.333333333333332 32  L 2.6666666666666665 32  C 1.9333333333333333 32  1.3055555555555558 31.67361111111111  0.7833333333333333 31.020833333333332  C 0.2611111111111111 30.368055555555557  0 29.583333333333332  0 28.666666666666668  L 0 3.333333333333332  C 0 2.416666666666668  0.2611111111111111 1.6319444444444429  0.7833333333333333 0.9791666666666679  C 1.3055555555555558 0.32638888888888573  1.9333333333333333 0  2.6666666666666665 0  L 29.333333333333332 0  C 30.066666666666666 0  30.694444444444446 0.32638888888888573  31.216666666666665 0.9791666666666679  Z " stroke-width="0" stroke-dasharray="0" stroke="rgba(255, 255, 255, 0)" fill="none" transform="matrix(1 0 0 1 20 15 )" class="stroke" mask="url(#Clip432)" />
  </g>
  <style>svg { filter: drop-shadow(0px 0px 2.5px rgba(0, 0, 0, 0.3137254901960784)); }</style>
</svg>