<?xml version="1.0" encoding="utf-8"?>
<svg version="1.1" xmlns:xlink="http://www.w3.org/1999/xlink" width="15px" height="15px" xmlns="http://www.w3.org/2000/svg">
  <defs>
    <pattern id="BGPattern" patternUnits="userSpaceOnUse" alignment="0 0" imageRepeat="None" />
    <mask fill="white" id="Clip433">
      <path d="M 9.19921875 9.19921875  C 9.989483173076934 8.408954326923071  10.384615384615401 7.45793269230769  10.384615384615401 6.346153846153848  C 10.384615384615401 5.234374999999996  9.989483173076934 4.283353365384613  9.19921875 3.4930889423076925  C 8.408954326923066 2.7028245192307705  7.457932692307708 2.3076923076923075  6.34615384615384 2.3076923076923075  C 5.234375000000014 2.3076923076923075  4.283353365384613 2.7028245192307705  3.493088942307722 3.4930889423076925  C 2.702824519230788 4.283353365384613  2.307692307692278 5.234374999999996  2.307692307692278 6.346153846153848  C 2.307692307692278 7.45793269230769  2.702824519230788 8.408954326923071  3.493088942307722 9.19921875  C 4.283353365384613 9.989483173076929  5.234375000000014 10.384615384615383  6.34615384615384 10.384615384615383  C 7.457932692307708 10.384615384615383  8.408954326923066 9.989483173076929  9.19921875 9.19921875  Z M 14.66646634615384 13.034855769230765  C 14.888822115384613 13.257211538461538  15 13.52764423076923  15 13.846153846153854  C 15 14.158653846153848  14.885817307692307 14.429086538461538  14.65745192307692 14.657451923076929  C 14.429086538461533 14.885817307692307  14.158653846153854 15  13.84615384615384 15  C 13.521634615384599 15  13.25120192307692 14.885817307692307  13.03485576923076 14.657451923076929  L 9.94290865384616 11.574519230769235  C 8.867187500000014 12.319711538461538  7.668269230769255 12.692307692307692  6.34615384615384 12.692307692307692  C 5.486778846153854 12.692307692307692  4.664963942307722 12.525540865384617  3.880709134615401 12.192007211538465  C 3.09645432692308 11.858473557692308  2.4203725961538396 11.40775240384615  1.8524639423077218 10.83984375  C 1.2845552884615188 10.27193509615385  0.833834134615401 9.595853365384617  0.5003004807692406 8.811598557692308  C 0.1667668269230802 8.02734375  0 7.205528846153843  0 6.346153846153848  C 0 5.486778846153848  0.1667668269230802 4.664963942307692  0.5003004807692406 3.8807091346153837  C 0.833834134615401 3.096454326923075  1.2845552884615188 2.420372596153845  1.8524639423077218 1.8524639423076912  C 2.4203725961538396 1.28455528846154  3.09645432692308 0.833834134615383  3.880709134615401 0.500300480769232  C 4.664963942307722 0.16676682692307687  5.486778846153854 0  6.34615384615384 0  C 7.205528846153825 0  8.02734375 0.16676682692307687  8.811598557692278 0.500300480769232  C 9.595853365384599 0.833834134615383  10.27193509615384 1.28455528846154  10.83984375 1.8524639423076912  C 11.40775240384616 2.420372596153845  11.858473557692278 3.096454326923075  12.192007211538481 3.8807091346153837  C 12.525540865384599 4.664963942307692  12.692307692307722 5.486778846153848  12.692307692307722 6.346153846153848  C 12.692307692307722 7.66826923076923  12.319711538461533 8.867187499999998  11.57451923076924 9.94290865384615  L 14.66646634615384 13.034855769230765  Z " fill-rule="evenodd" />
    </mask>
  </defs>
  <g transform="matrix(1 0 0 1 -80 -24 )">
    <path d="M 9.19921875 9.19921875  C 9.989483173076934 8.408954326923071  10.384615384615401 7.45793269230769  10.384615384615401 6.346153846153848  C 10.384615384615401 5.234374999999996  9.989483173076934 4.283353365384613  9.19921875 3.4930889423076925  C 8.408954326923066 2.7028245192307705  7.457932692307708 2.3076923076923075  6.34615384615384 2.3076923076923075  C 5.234375000000014 2.3076923076923075  4.283353365384613 2.7028245192307705  3.493088942307722 3.4930889423076925  C 2.702824519230788 4.283353365384613  2.307692307692278 5.234374999999996  2.307692307692278 6.346153846153848  C 2.307692307692278 7.45793269230769  2.702824519230788 8.408954326923071  3.493088942307722 9.19921875  C 4.283353365384613 9.989483173076929  5.234375000000014 10.384615384615383  6.34615384615384 10.384615384615383  C 7.457932692307708 10.384615384615383  8.408954326923066 9.989483173076929  9.19921875 9.19921875  Z M 14.66646634615384 13.034855769230765  C 14.888822115384613 13.257211538461538  15 13.52764423076923  15 13.846153846153854  C 15 14.158653846153848  14.885817307692307 14.429086538461538  14.65745192307692 14.657451923076929  C 14.429086538461533 14.885817307692307  14.158653846153854 15  13.84615384615384 15  C 13.521634615384599 15  13.25120192307692 14.885817307692307  13.03485576923076 14.657451923076929  L 9.94290865384616 11.574519230769235  C 8.867187500000014 12.319711538461538  7.668269230769255 12.692307692307692  6.34615384615384 12.692307692307692  C 5.486778846153854 12.692307692307692  4.664963942307722 12.525540865384617  3.880709134615401 12.192007211538465  C 3.09645432692308 11.858473557692308  2.4203725961538396 11.40775240384615  1.8524639423077218 10.83984375  C 1.2845552884615188 10.27193509615385  0.833834134615401 9.595853365384617  0.5003004807692406 8.811598557692308  C 0.1667668269230802 8.02734375  0 7.205528846153843  0 6.346153846153848  C 0 5.486778846153848  0.1667668269230802 4.664963942307692  0.5003004807692406 3.8807091346153837  C 0.833834134615401 3.096454326923075  1.2845552884615188 2.420372596153845  1.8524639423077218 1.8524639423076912  C 2.4203725961538396 1.28455528846154  3.09645432692308 0.833834134615383  3.880709134615401 0.500300480769232  C 4.664963942307722 0.16676682692307687  5.486778846153854 0  6.34615384615384 0  C 7.205528846153825 0  8.02734375 0.16676682692307687  8.811598557692278 0.500300480769232  C 9.595853365384599 0.833834134615383  10.27193509615384 1.28455528846154  10.83984375 1.8524639423076912  C 11.40775240384616 2.420372596153845  11.858473557692278 3.096454326923075  12.192007211538481 3.8807091346153837  C 12.525540865384599 4.664963942307692  12.692307692307722 5.486778846153848  12.692307692307722 6.346153846153848  C 12.692307692307722 7.66826923076923  12.319711538461533 8.867187499999998  11.57451923076924 9.94290865384615  L 14.66646634615384 13.034855769230765  Z " fill-rule="nonzero" fill="rgba(170, 170, 170, 0.8)" stroke="none" transform="matrix(1 0 0 1 80 24 )" class="fill" />
    <path d="M 9.19921875 9.19921875  C 9.989483173076934 8.408954326923071  10.384615384615401 7.45793269230769  10.384615384615401 6.346153846153848  C 10.384615384615401 5.234374999999996  9.989483173076934 4.283353365384613  9.19921875 3.4930889423076925  C 8.408954326923066 2.7028245192307705  7.457932692307708 2.3076923076923075  6.34615384615384 2.3076923076923075  C 5.234375000000014 2.3076923076923075  4.283353365384613 2.7028245192307705  3.493088942307722 3.4930889423076925  C 2.702824519230788 4.283353365384613  2.307692307692278 5.234374999999996  2.307692307692278 6.346153846153848  C 2.307692307692278 7.45793269230769  2.702824519230788 8.408954326923071  3.493088942307722 9.19921875  C 4.283353365384613 9.989483173076929  5.234375000000014 10.384615384615383  6.34615384615384 10.384615384615383  C 7.457932692307708 10.384615384615383  8.408954326923066 9.989483173076929  9.19921875 9.19921875  Z " stroke-width="0" stroke-dasharray="0" stroke="rgba(121, 121, 121, 1)" fill="none" transform="matrix(1 0 0 1 80 24 )" class="stroke" mask="url(#Clip433)" />
    <path d="M 14.66646634615384 13.034855769230765  C 14.888822115384613 13.257211538461538  15 13.52764423076923  15 13.846153846153854  C 15 14.158653846153848  14.885817307692307 14.429086538461538  14.65745192307692 14.657451923076929  C 14.429086538461533 14.885817307692307  14.158653846153854 15  13.84615384615384 15  C 13.521634615384599 15  13.25120192307692 14.885817307692307  13.03485576923076 14.657451923076929  L 9.94290865384616 11.574519230769235  C 8.867187500000014 12.319711538461538  7.668269230769255 12.692307692307692  6.34615384615384 12.692307692307692  C 5.486778846153854 12.692307692307692  4.664963942307722 12.525540865384617  3.880709134615401 12.192007211538465  C 3.09645432692308 11.858473557692308  2.4203725961538396 11.40775240384615  1.8524639423077218 10.83984375  C 1.2845552884615188 10.27193509615385  0.833834134615401 9.595853365384617  0.5003004807692406 8.811598557692308  C 0.1667668269230802 8.02734375  0 7.205528846153843  0 6.346153846153848  C 0 5.486778846153848  0.1667668269230802 4.664963942307692  0.5003004807692406 3.8807091346153837  C 0.833834134615401 3.096454326923075  1.2845552884615188 2.420372596153845  1.8524639423077218 1.8524639423076912  C 2.4203725961538396 1.28455528846154  3.09645432692308 0.833834134615383  3.880709134615401 0.500300480769232  C 4.664963942307722 0.16676682692307687  5.486778846153854 0  6.34615384615384 0  C 7.205528846153825 0  8.02734375 0.16676682692307687  8.811598557692278 0.500300480769232  C 9.595853365384599 0.833834134615383  10.27193509615384 1.28455528846154  10.83984375 1.8524639423076912  C 11.40775240384616 2.420372596153845  11.858473557692278 3.096454326923075  12.192007211538481 3.8807091346153837  C 12.525540865384599 4.664963942307692  12.692307692307722 5.486778846153848  12.692307692307722 6.346153846153848  C 12.692307692307722 7.66826923076923  12.319711538461533 8.867187499999998  11.57451923076924 9.94290865384615  L 14.66646634615384 13.034855769230765  Z " stroke-width="0" stroke-dasharray="0" stroke="rgba(121, 121, 121, 1)" fill="none" transform="matrix(1 0 0 1 80 24 )" class="stroke" mask="url(#Clip433)" />
  </g>
</svg>