<?xml version="1.0" encoding="utf-8"?>
<svg version="1.1" xmlns:xlink="http://www.w3.org/1999/xlink" width="50px" height="50px" xmlns="http://www.w3.org/2000/svg">
  <defs>
    <pattern id="BGPattern" patternUnits="userSpaceOnUse" alignment="0 0" imageRepeat="None" />
    <mask fill="white" id="Clip341">
      <path d="M 0 40  L 0 10  C 0 4.3999999999999995  4.3999999999999995 0  10 0  L 40 0  C 45.6 0  50 4.3999999999999995  50 10  L 50 40  C 50 45.6  45.6 50  40 50  L 10 50  C 4.3999999999999995 50  0 45.6  0 40  Z " fill-rule="evenodd" />
    </mask>
  </defs>
  <g transform="matrix(1 0 0 1 -10 -262 )">
    <path d="M 0 40  L 0 10  C 0 4.3999999999999995  4.3999999999999995 0  10 0  L 40 0  C 45.6 0  50 4.3999999999999995  50 10  L 50 40  C 50 45.6  45.6 50  40 50  L 10 50  C 4.3999999999999995 50  0 45.6  0 40  Z " fill-rule="nonzero" fill="rgba(76, 175, 80, 1)" stroke="none" transform="matrix(1 0 0 1 10 262 )" class="fill" />
    <path d="M 0 40  L 0 10  C 0 4.3999999999999995  4.3999999999999995 0  10 0  L 40 0  C 45.6 0  50 4.3999999999999995  50 10  L 50 40  C 50 45.6  45.6 50  40 50  L 10 50  C 4.3999999999999995 50  0 45.6  0 40  Z " stroke-width="2" stroke-dasharray="0" stroke="rgba(255, 255, 255, 0)" fill="none" transform="matrix(1 0 0 1 10 262 )" class="stroke" mask="url(#Clip341)" />
  </g>
</svg>