<?xml version="1.0" encoding="utf-8"?>
<svg version="1.1" xmlns:xlink="http://www.w3.org/1999/xlink" width="30px" height="26px" xmlns="http://www.w3.org/2000/svg">
  <defs>
    <pattern id="BGPattern" patternUnits="userSpaceOnUse" alignment="0 0" imageRepeat="None" />
    <mask fill="white" id="Clip342">
      <path d="M 1.875 11.142857142857144  L 28.125 11.142857142857144  C 28.642578125000004 11.142857142857144  29.08447265625 11.32421875  29.45068359375 11.686941964285715  C 29.81689453125 12.049665178571429  30 12.487351190476188  30 13  C 30 13.512648809523808  29.81689453125 13.950334821428571  29.45068359375 14.313058035714288  C 29.08447265625 14.67578125  28.642578125000004 14.857142857142856  28.125 14.857142857142856  L 27.9052734375 14.857142857142856  L 26.220703125 24.462053571428573  C 26.142578125000004 24.906994047619047  25.927734375000004 25.274553571428573  25.576171875 25.564732142857142  C 25.224609375000004 25.854910714285715  24.824218750000004 26  24.375 26  L 5.625 26  C 5.175781250000001 26  4.775390625 25.854910714285715  4.423828125 25.564732142857142  C 4.072265625 25.274553571428573  3.8574218750000004 24.906994047619047  3.779296875 24.462053571428573  L 2.0947265625 14.857142857142856  L 1.875 14.857142857142856  C 1.357421875 14.857142857142856  0.9155273437500001 14.67578125  0.54931640625 14.313058035714288  C 0.18310546875 13.950334821428571  0 13.512648809523808  0 13  C 0 12.487351190476188  0.18310546875 12.049665178571429  0.54931640625 11.686941964285715  C 0.9155273437500001 11.32421875  1.357421875 11.142857142857144  1.875 11.142857142857144  Z M 7.03125 22.75  L 7.1044921875 22.75  C 7.358398437500001 22.730654761904763  7.570800781250001 22.621837797619047  7.74169921875 22.423549107142858  C 7.912597656250001 22.225260416666664  7.988281250000001 22.000372023809522  7.96875 21.748883928571427  L 7.5 15.713169642857144  C 7.480468750000001 15.461681547619046  7.370605468750001 15.251302083333332  7.17041015625 15.08203125  C 6.970214843750001 14.912760416666664  6.743164062500001 14.837797619047617  6.4892578125 14.857142857142856  C 6.235351562500001 14.876488095238095  6.022949218750001 14.985305059523808  5.85205078125 15.18359375  C 5.681152343750001 15.381882440476188  5.60546875 15.606770833333329  5.625 15.858258928571429  L 6.09375 21.89397321428571  C 6.113281250000001 22.13578869047619  6.21337890625 22.33891369047619  6.39404296875 22.50334821428571  C 6.574707031250001 22.667782738095237  6.787109375000001 22.75  7.03125 22.75  Z M 12.8466796875 22.474330357142858  C 13.032226562500002 22.290550595238095  13.125 22.072916666666664  13.125 21.821428571428573  L 13.125 15.785714285714288  C 13.125 15.534226190476188  13.032226562500002 15.316592261904761  12.8466796875 15.1328125  C 12.661132812500002 14.949032738095237  12.441406250000002 14.857142857142856  12.1875 14.857142857142856  C 11.933593750000002 14.857142857142856  11.713867187500002 14.949032738095237  11.5283203125 15.1328125  C 11.342773437499998 15.316592261904761  11.25 15.534226190476188  11.25 15.785714285714288  L 11.25 21.821428571428573  C 11.25 22.072916666666664  11.342773437499998 22.290550595238095  11.5283203125 22.474330357142858  C 11.713867187500002 22.65811011904762  11.933593750000002 22.75  12.1875 22.75  C 12.441406250000002 22.75  12.661132812500002 22.65811011904762  12.8466796875 22.474330357142858  Z M 18.4716796875 22.474330357142858  C 18.6572265625 22.290550595238095  18.75 22.072916666666664  18.75 21.821428571428573  L 18.75 15.785714285714288  C 18.75 15.534226190476188  18.6572265625 15.316592261904761  18.4716796875 15.1328125  C 18.286132812500004 14.949032738095237  18.066406250000004 14.857142857142856  17.8125 14.857142857142856  C 17.55859375 14.857142857142856  17.3388671875 14.949032738095237  17.1533203125 15.1328125  C 16.967773437500004 15.316592261904761  16.875 15.534226190476188  16.875 15.785714285714288  L 16.875 21.821428571428573  C 16.875 22.072916666666664  16.967773437500004 22.290550595238095  17.1533203125 22.474330357142858  C 17.3388671875 22.65811011904762  17.55859375 22.75  17.8125 22.75  C 18.066406250000004 22.75  18.286132812500004 22.65811011904762  18.4716796875 22.474330357142858  Z M 23.60595703125 22.50334821428571  C 23.786621093750004 22.33891369047619  23.88671875 22.13578869047619  23.90625 21.89397321428571  L 24.375 15.858258928571429  C 24.394531250000004 15.606770833333329  24.31884765625 15.381882440476188  24.14794921875 15.18359375  C 23.977050781250004 14.985305059523808  23.764648437500004 14.876488095238095  23.5107421875 14.857142857142856  C 23.2568359375 14.837797619047617  23.02978515625 14.912760416666664  22.82958984375 15.08203125  C 22.629394531250004 15.251302083333332  22.519531250000004 15.461681547619046  22.5 15.713169642857144  L 22.03125 21.748883928571427  C 22.01171875 22.000372023809522  22.087402343750004 22.225260416666664  22.25830078125 22.423549107142858  C 22.42919921875 22.621837797619047  22.6416015625 22.730654761904763  22.8955078125 22.75  L 22.96875 22.75  C 23.212890625000004 22.75  23.425292968750004 22.667782738095237  23.60595703125 22.50334821428571  Z M 7.63916015625 3.1919642857142847  C 7.30224609375 3.462797619047617  7.080078125000001 3.8110119047619015  6.97265625 4.236607142857144  L 5.6103515625 10.214285714285715  L 3.6767578125 10.214285714285715  L 5.15625 3.8158482142857153  C 5.341796875 2.9646577380952364  5.776367187500001 2.270647321428572  6.4599609375 1.7338169642857155  C 7.1435546875 1.1969866071428563  7.9248046875 0.9285714285714282  8.8037109375 0.9285714285714282  L 11.25 0.9285714285714282  C 11.25 0.6770833333333324  11.342773437499998 0.4594494047619013  11.5283203125 0.2756696428571437  C 11.713867187500002 0.09188988095238315  11.933593750000002 0  12.1875 0  L 17.8125 0  C 18.066406250000004 0  18.286132812500004 0.09188988095238315  18.4716796875 0.2756696428571437  C 18.6572265625 0.4594494047619013  18.75 0.6770833333333324  18.75 0.9285714285714282  L 21.1962890625 0.9285714285714282  C 22.0751953125 0.9285714285714282  22.856445312500004 1.1969866071428563  23.5400390625 1.7338169642857155  C 24.223632812500004 2.270647321428572  24.658203125000004 2.9646577380952364  24.84375 3.8158482142857153  L 26.3232421875 10.214285714285715  L 24.3896484375 10.214285714285715  L 23.02734375 4.236607142857144  C 22.919921875 3.8110119047619015  22.69775390625 3.462797619047617  22.36083984375 3.1919642857142847  C 22.02392578125 2.921130952380952  21.6357421875 2.7857142857142847  21.1962890625 2.7857142857142847  L 18.75 2.7857142857142847  C 18.75 3.0372023809523805  18.6572265625 3.2548363095238084  18.4716796875 3.438616071428572  C 18.286132812500004 3.622395833333332  18.066406250000004 3.7142857142857153  17.8125 3.7142857142857153  L 12.1875 3.7142857142857153  C 11.933593750000002 3.7142857142857153  11.713867187500002 3.622395833333332  11.5283203125 3.438616071428572  C 11.342773437499998 3.2548363095238084  11.25 3.0372023809523805  11.25 2.7857142857142847  L 8.8037109375 2.7857142857142847  C 8.3642578125 2.7857142857142847  7.97607421875 2.921130952380952  7.63916015625 3.1919642857142847  Z " fill-rule="evenodd" />
    </mask>
  </defs>
  <g transform="matrix(1 0 0 1 -20 -274 )">
    <path d="M 1.875 11.142857142857144  L 28.125 11.142857142857144  C 28.642578125000004 11.142857142857144  29.08447265625 11.32421875  29.45068359375 11.686941964285715  C 29.81689453125 12.049665178571429  30 12.487351190476188  30 13  C 30 13.512648809523808  29.81689453125 13.950334821428571  29.45068359375 14.313058035714288  C 29.08447265625 14.67578125  28.642578125000004 14.857142857142856  28.125 14.857142857142856  L 27.9052734375 14.857142857142856  L 26.220703125 24.462053571428573  C 26.142578125000004 24.906994047619047  25.927734375000004 25.274553571428573  25.576171875 25.564732142857142  C 25.224609375000004 25.854910714285715  24.824218750000004 26  24.375 26  L 5.625 26  C 5.175781250000001 26  4.775390625 25.854910714285715  4.423828125 25.564732142857142  C 4.072265625 25.274553571428573  3.8574218750000004 24.906994047619047  3.779296875 24.462053571428573  L 2.0947265625 14.857142857142856  L 1.875 14.857142857142856  C 1.357421875 14.857142857142856  0.9155273437500001 14.67578125  0.54931640625 14.313058035714288  C 0.18310546875 13.950334821428571  0 13.512648809523808  0 13  C 0 12.487351190476188  0.18310546875 12.049665178571429  0.54931640625 11.686941964285715  C 0.9155273437500001 11.32421875  1.357421875 11.142857142857144  1.875 11.142857142857144  Z M 7.03125 22.75  L 7.1044921875 22.75  C 7.358398437500001 22.730654761904763  7.570800781250001 22.621837797619047  7.74169921875 22.423549107142858  C 7.912597656250001 22.225260416666664  7.988281250000001 22.000372023809522  7.96875 21.748883928571427  L 7.5 15.713169642857144  C 7.480468750000001 15.461681547619046  7.370605468750001 15.251302083333332  7.17041015625 15.08203125  C 6.970214843750001 14.912760416666664  6.743164062500001 14.837797619047617  6.4892578125 14.857142857142856  C 6.235351562500001 14.876488095238095  6.022949218750001 14.985305059523808  5.85205078125 15.18359375  C 5.681152343750001 15.381882440476188  5.60546875 15.606770833333329  5.625 15.858258928571429  L 6.09375 21.89397321428571  C 6.113281250000001 22.13578869047619  6.21337890625 22.33891369047619  6.39404296875 22.50334821428571  C 6.574707031250001 22.667782738095237  6.787109375000001 22.75  7.03125 22.75  Z M 12.8466796875 22.474330357142858  C 13.032226562500002 22.290550595238095  13.125 22.072916666666664  13.125 21.821428571428573  L 13.125 15.785714285714288  C 13.125 15.534226190476188  13.032226562500002 15.316592261904761  12.8466796875 15.1328125  C 12.661132812500002 14.949032738095237  12.441406250000002 14.857142857142856  12.1875 14.857142857142856  C 11.933593750000002 14.857142857142856  11.713867187500002 14.949032738095237  11.5283203125 15.1328125  C 11.342773437499998 15.316592261904761  11.25 15.534226190476188  11.25 15.785714285714288  L 11.25 21.821428571428573  C 11.25 22.072916666666664  11.342773437499998 22.290550595238095  11.5283203125 22.474330357142858  C 11.713867187500002 22.65811011904762  11.933593750000002 22.75  12.1875 22.75  C 12.441406250000002 22.75  12.661132812500002 22.65811011904762  12.8466796875 22.474330357142858  Z M 18.4716796875 22.474330357142858  C 18.6572265625 22.290550595238095  18.75 22.072916666666664  18.75 21.821428571428573  L 18.75 15.785714285714288  C 18.75 15.534226190476188  18.6572265625 15.316592261904761  18.4716796875 15.1328125  C 18.286132812500004 14.949032738095237  18.066406250000004 14.857142857142856  17.8125 14.857142857142856  C 17.55859375 14.857142857142856  17.3388671875 14.949032738095237  17.1533203125 15.1328125  C 16.967773437500004 15.316592261904761  16.875 15.534226190476188  16.875 15.785714285714288  L 16.875 21.821428571428573  C 16.875 22.072916666666664  16.967773437500004 22.290550595238095  17.1533203125 22.474330357142858  C 17.3388671875 22.65811011904762  17.55859375 22.75  17.8125 22.75  C 18.066406250000004 22.75  18.286132812500004 22.65811011904762  18.4716796875 22.474330357142858  Z M 23.60595703125 22.50334821428571  C 23.786621093750004 22.33891369047619  23.88671875 22.13578869047619  23.90625 21.89397321428571  L 24.375 15.858258928571429  C 24.394531250000004 15.606770833333329  24.31884765625 15.381882440476188  24.14794921875 15.18359375  C 23.977050781250004 14.985305059523808  23.764648437500004 14.876488095238095  23.5107421875 14.857142857142856  C 23.2568359375 14.837797619047617  23.02978515625 14.912760416666664  22.82958984375 15.08203125  C 22.629394531250004 15.251302083333332  22.519531250000004 15.461681547619046  22.5 15.713169642857144  L 22.03125 21.748883928571427  C 22.01171875 22.000372023809522  22.087402343750004 22.225260416666664  22.25830078125 22.423549107142858  C 22.42919921875 22.621837797619047  22.6416015625 22.730654761904763  22.8955078125 22.75  L 22.96875 22.75  C 23.212890625000004 22.75  23.425292968750004 22.667782738095237  23.60595703125 22.50334821428571  Z M 7.63916015625 3.1919642857142847  C 7.30224609375 3.462797619047617  7.080078125000001 3.8110119047619015  6.97265625 4.236607142857144  L 5.6103515625 10.214285714285715  L 3.6767578125 10.214285714285715  L 5.15625 3.8158482142857153  C 5.341796875 2.9646577380952364  5.776367187500001 2.270647321428572  6.4599609375 1.7338169642857155  C 7.1435546875 1.1969866071428563  7.9248046875 0.9285714285714282  8.8037109375 0.9285714285714282  L 11.25 0.9285714285714282  C 11.25 0.6770833333333324  11.342773437499998 0.4594494047619013  11.5283203125 0.2756696428571437  C 11.713867187500002 0.09188988095238315  11.933593750000002 0  12.1875 0  L 17.8125 0  C 18.066406250000004 0  18.286132812500004 0.09188988095238315  18.4716796875 0.2756696428571437  C 18.6572265625 0.4594494047619013  18.75 0.6770833333333324  18.75 0.9285714285714282  L 21.1962890625 0.9285714285714282  C 22.0751953125 0.9285714285714282  22.856445312500004 1.1969866071428563  23.5400390625 1.7338169642857155  C 24.223632812500004 2.270647321428572  24.658203125000004 2.9646577380952364  24.84375 3.8158482142857153  L 26.3232421875 10.214285714285715  L 24.3896484375 10.214285714285715  L 23.02734375 4.236607142857144  C 22.919921875 3.8110119047619015  22.69775390625 3.462797619047617  22.36083984375 3.1919642857142847  C 22.02392578125 2.921130952380952  21.6357421875 2.7857142857142847  21.1962890625 2.7857142857142847  L 18.75 2.7857142857142847  C 18.75 3.0372023809523805  18.6572265625 3.2548363095238084  18.4716796875 3.438616071428572  C 18.286132812500004 3.622395833333332  18.066406250000004 3.7142857142857153  17.8125 3.7142857142857153  L 12.1875 3.7142857142857153  C 11.933593750000002 3.7142857142857153  11.713867187500002 3.622395833333332  11.5283203125 3.438616071428572  C 11.342773437499998 3.2548363095238084  11.25 3.0372023809523805  11.25 2.7857142857142847  L 8.8037109375 2.7857142857142847  C 8.3642578125 2.7857142857142847  7.97607421875 2.921130952380952  7.63916015625 3.1919642857142847  Z " fill-rule="nonzero" fill="rgba(255, 255, 255, 1)" stroke="none" transform="matrix(1 0 0 1 20 274 )" class="fill" />
    <path d="M 1.875 11.142857142857144  L 28.125 11.142857142857144  C 28.642578125000004 11.142857142857144  29.08447265625 11.32421875  29.45068359375 11.686941964285715  C 29.81689453125 12.049665178571429  30 12.487351190476188  30 13  C 30 13.512648809523808  29.81689453125 13.950334821428571  29.45068359375 14.313058035714288  C 29.08447265625 14.67578125  28.642578125000004 14.857142857142856  28.125 14.857142857142856  L 27.9052734375 14.857142857142856  L 26.220703125 24.462053571428573  C 26.142578125000004 24.906994047619047  25.927734375000004 25.274553571428573  25.576171875 25.564732142857142  C 25.224609375000004 25.854910714285715  24.824218750000004 26  24.375 26  L 5.625 26  C 5.175781250000001 26  4.775390625 25.854910714285715  4.423828125 25.564732142857142  C 4.072265625 25.274553571428573  3.8574218750000004 24.906994047619047  3.779296875 24.462053571428573  L 2.0947265625 14.857142857142856  L 1.875 14.857142857142856  C 1.357421875 14.857142857142856  0.9155273437500001 14.67578125  0.54931640625 14.313058035714288  C 0.18310546875 13.950334821428571  0 13.512648809523808  0 13  C 0 12.487351190476188  0.18310546875 12.049665178571429  0.54931640625 11.686941964285715  C 0.9155273437500001 11.32421875  1.357421875 11.142857142857144  1.875 11.142857142857144  Z " stroke-width="0" stroke-dasharray="0" stroke="rgba(255, 255, 255, 0)" fill="none" transform="matrix(1 0 0 1 20 274 )" class="stroke" mask="url(#Clip342)" />
    <path d="M 7.03125 22.75  L 7.1044921875 22.75  C 7.358398437500001 22.730654761904763  7.570800781250001 22.621837797619047  7.74169921875 22.423549107142858  C 7.912597656250001 22.225260416666664  7.988281250000001 22.000372023809522  7.96875 21.748883928571427  L 7.5 15.713169642857144  C 7.480468750000001 15.461681547619046  7.370605468750001 15.251302083333332  7.17041015625 15.08203125  C 6.970214843750001 14.912760416666664  6.743164062500001 14.837797619047617  6.4892578125 14.857142857142856  C 6.235351562500001 14.876488095238095  6.022949218750001 14.985305059523808  5.85205078125 15.18359375  C 5.681152343750001 15.381882440476188  5.60546875 15.606770833333329  5.625 15.858258928571429  L 6.09375 21.89397321428571  C 6.113281250000001 22.13578869047619  6.21337890625 22.33891369047619  6.39404296875 22.50334821428571  C 6.574707031250001 22.667782738095237  6.787109375000001 22.75  7.03125 22.75  Z " stroke-width="0" stroke-dasharray="0" stroke="rgba(255, 255, 255, 0)" fill="none" transform="matrix(1 0 0 1 20 274 )" class="stroke" mask="url(#Clip342)" />
    <path d="M 12.8466796875 22.474330357142858  C 13.032226562500002 22.290550595238095  13.125 22.072916666666664  13.125 21.821428571428573  L 13.125 15.785714285714288  C 13.125 15.534226190476188  13.032226562500002 15.316592261904761  12.8466796875 15.1328125  C 12.661132812500002 14.949032738095237  12.441406250000002 14.857142857142856  12.1875 14.857142857142856  C 11.933593750000002 14.857142857142856  11.713867187500002 14.949032738095237  11.5283203125 15.1328125  C 11.342773437499998 15.316592261904761  11.25 15.534226190476188  11.25 15.785714285714288  L 11.25 21.821428571428573  C 11.25 22.072916666666664  11.342773437499998 22.290550595238095  11.5283203125 22.474330357142858  C 11.713867187500002 22.65811011904762  11.933593750000002 22.75  12.1875 22.75  C 12.441406250000002 22.75  12.661132812500002 22.65811011904762  12.8466796875 22.474330357142858  Z " stroke-width="0" stroke-dasharray="0" stroke="rgba(255, 255, 255, 0)" fill="none" transform="matrix(1 0 0 1 20 274 )" class="stroke" mask="url(#Clip342)" />
    <path d="M 18.4716796875 22.474330357142858  C 18.6572265625 22.290550595238095  18.75 22.072916666666664  18.75 21.821428571428573  L 18.75 15.785714285714288  C 18.75 15.534226190476188  18.6572265625 15.316592261904761  18.4716796875 15.1328125  C 18.286132812500004 14.949032738095237  18.066406250000004 14.857142857142856  17.8125 14.857142857142856  C 17.55859375 14.857142857142856  17.3388671875 14.949032738095237  17.1533203125 15.1328125  C 16.967773437500004 15.316592261904761  16.875 15.534226190476188  16.875 15.785714285714288  L 16.875 21.821428571428573  C 16.875 22.072916666666664  16.967773437500004 22.290550595238095  17.1533203125 22.474330357142858  C 17.3388671875 22.65811011904762  17.55859375 22.75  17.8125 22.75  C 18.066406250000004 22.75  18.286132812500004 22.65811011904762  18.4716796875 22.474330357142858  Z " stroke-width="0" stroke-dasharray="0" stroke="rgba(255, 255, 255, 0)" fill="none" transform="matrix(1 0 0 1 20 274 )" class="stroke" mask="url(#Clip342)" />
    <path d="M 23.60595703125 22.50334821428571  C 23.786621093750004 22.33891369047619  23.88671875 22.13578869047619  23.90625 21.89397321428571  L 24.375 15.858258928571429  C 24.394531250000004 15.606770833333329  24.31884765625 15.381882440476188  24.14794921875 15.18359375  C 23.977050781250004 14.985305059523808  23.764648437500004 14.876488095238095  23.5107421875 14.857142857142856  C 23.2568359375 14.837797619047617  23.02978515625 14.912760416666664  22.82958984375 15.08203125  C 22.629394531250004 15.251302083333332  22.519531250000004 15.461681547619046  22.5 15.713169642857144  L 22.03125 21.748883928571427  C 22.01171875 22.000372023809522  22.087402343750004 22.225260416666664  22.25830078125 22.423549107142858  C 22.42919921875 22.621837797619047  22.6416015625 22.730654761904763  22.8955078125 22.75  L 22.96875 22.75  C 23.212890625000004 22.75  23.425292968750004 22.667782738095237  23.60595703125 22.50334821428571  Z " stroke-width="0" stroke-dasharray="0" stroke="rgba(255, 255, 255, 0)" fill="none" transform="matrix(1 0 0 1 20 274 )" class="stroke" mask="url(#Clip342)" />
    <path d="M 7.63916015625 3.1919642857142847  C 7.30224609375 3.462797619047617  7.080078125000001 3.8110119047619015  6.97265625 4.236607142857144  L 5.6103515625 10.214285714285715  L 3.6767578125 10.214285714285715  L 5.15625 3.8158482142857153  C 5.341796875 2.9646577380952364  5.776367187500001 2.270647321428572  6.4599609375 1.7338169642857155  C 7.1435546875 1.1969866071428563  7.9248046875 0.9285714285714282  8.8037109375 0.9285714285714282  L 11.25 0.9285714285714282  C 11.25 0.6770833333333324  11.342773437499998 0.4594494047619013  11.5283203125 0.2756696428571437  C 11.713867187500002 0.09188988095238315  11.933593750000002 0  12.1875 0  L 17.8125 0  C 18.066406250000004 0  18.286132812500004 0.09188988095238315  18.4716796875 0.2756696428571437  C 18.6572265625 0.4594494047619013  18.75 0.6770833333333324  18.75 0.9285714285714282  L 21.1962890625 0.9285714285714282  C 22.0751953125 0.9285714285714282  22.856445312500004 1.1969866071428563  23.5400390625 1.7338169642857155  C 24.223632812500004 2.270647321428572  24.658203125000004 2.9646577380952364  24.84375 3.8158482142857153  L 26.3232421875 10.214285714285715  L 24.3896484375 10.214285714285715  L 23.02734375 4.236607142857144  C 22.919921875 3.8110119047619015  22.69775390625 3.462797619047617  22.36083984375 3.1919642857142847  C 22.02392578125 2.921130952380952  21.6357421875 2.7857142857142847  21.1962890625 2.7857142857142847  L 18.75 2.7857142857142847  C 18.75 3.0372023809523805  18.6572265625 3.2548363095238084  18.4716796875 3.438616071428572  C 18.286132812500004 3.622395833333332  18.066406250000004 3.7142857142857153  17.8125 3.7142857142857153  L 12.1875 3.7142857142857153  C 11.933593750000002 3.7142857142857153  11.713867187500002 3.622395833333332  11.5283203125 3.438616071428572  C 11.342773437499998 3.2548363095238084  11.25 3.0372023809523805  11.25 2.7857142857142847  L 8.8037109375 2.7857142857142847  C 8.3642578125 2.7857142857142847  7.97607421875 2.921130952380952  7.63916015625 3.1919642857142847  Z " stroke-width="0" stroke-dasharray="0" stroke="rgba(255, 255, 255, 0)" fill="none" transform="matrix(1 0 0 1 20 274 )" class="stroke" mask="url(#Clip342)" />
  </g>
</svg>