<?xml version="1.0" encoding="utf-8"?>
<svg version="1.1" xmlns:xlink="http://www.w3.org/1999/xlink" width="30px" height="26px" xmlns="http://www.w3.org/2000/svg">
  <defs>
    <pattern id="BGPattern" patternUnits="userSpaceOnUse" alignment="0 0" imageRepeat="None" />
    <mask fill="white" id="Clip65">
      <path d="M 15.385044642857142 12.305989583333332  C 15.485491071428571 12.204427083333332  15.535714285714286 12.074652777777777  15.535714285714286 11.916666666666668  C 15.535714285714286 11.758680555555555  15.485491071428571 11.62890625  15.385044642857142 11.52734375  C 15.284598214285714 11.42578125  15.156250000000002 11.375  15 11.375  C 14.263392857142856 11.375  13.632812500000002 11.640190972222223  13.108258928571429 12.170572916666668  C 12.58370535714286 12.70095486111111  12.321428571428571 13.338541666666664  12.321428571428571 14.083333333333336  C 12.321428571428571 14.241319444444445  12.371651785714285 14.37109375  12.472098214285715 14.47265625  C 12.572544642857144 14.57421875  12.70089285714286 14.625  12.857142857142856 14.625  C 13.013392857142858 14.625  13.141741071428571 14.57421875  13.2421875 14.47265625  C 13.342633928571429 14.37109375  13.392857142857144 14.241319444444445  13.392857142857144 14.083333333333336  C 13.392857142857144 13.631944444444445  13.549107142857142 13.24826388888889  13.861607142857144 12.932291666666668  C 14.174107142857144 12.616319444444443  14.553571428571429 12.458333333333332  15 12.458333333333332  C 15.156250000000002 12.458333333333332  15.284598214285714 12.407552083333332  15.385044642857142 12.305989583333332  Z M 18.03013392857143 11.053385416666668  C 18.8671875 11.899739583333332  19.28571428571429 12.921006944444443  19.28571428571429 14.1171875  C 19.28571428571429 15.313368055555555  18.8671875 16.334635416666664  18.03013392857143 17.180989583333336  C 17.193080357142858 18.02734375  16.183035714285715 18.450520833333336  15 18.450520833333336  C 13.816964285714286 18.450520833333336  12.806919642857144 18.02734375  11.969866071428571 17.180989583333336  C 11.1328125 16.334635416666664  10.714285714285715 15.313368055555555  10.714285714285715 14.1171875  C 10.714285714285715 12.921006944444443  11.1328125 11.899739583333332  11.969866071428571 11.053385416666668  C 12.806919642857144 10.20703125  13.816964285714286 9.783854166666668  15 9.783854166666668  C 16.183035714285715 9.783854166666668  17.193080357142858 10.20703125  18.03013392857143 11.053385416666668  Z M 2.142857142857143 21.666666666666668  L 2.142857142857143 23.833333333333332  L 27.857142857142858 23.833333333333332  L 27.857142857142858 21.666666666666668  L 2.142857142857143 21.666666666666668  Z M 19.545200892857142 18.712890625  C 20.80078125 17.443359375  21.42857142857143 15.911458333333336  21.42857142857143 14.1171875  C 21.42857142857143 12.322916666666668  20.80078125 10.791015625  19.545200892857142 9.521484375  C 18.28962053571429 8.251953125  16.77455357142857 7.6171875  15 7.6171875  C 13.225446428571429 7.6171875  11.710379464285715 8.251953125  10.454799107142856 9.521484375  C 9.19921875 10.791015625  8.571428571428571 12.322916666666668  8.571428571428571 14.1171875  C 8.571428571428571 15.911458333333336  9.19921875 17.443359375  10.454799107142856 18.712890625  C 11.710379464285715 19.982421875  13.225446428571429 20.6171875  15 20.6171875  C 16.77455357142857 20.6171875  18.28962053571429 19.982421875  19.545200892857142 18.712890625  Z M 4.285714285714286 1.0833333333333324  L 4.285714285714286 3.25  L 10.714285714285715 3.25  L 10.714285714285715 1.0833333333333324  L 4.285714285714286 1.0833333333333324  Z M 2.142857142857143 4.333333333333332  L 2.142857142857143 7  L 27.857142857142858 7  L 27.857142857142858 4.502604166666668  L 27.857142857142858 2.166666666666668  L 13.995535714285715 2.166666666666668  L 12.924107142857144 4.333333333333332  L 2.142857142857143 4.333333333333332  Z M 29.37220982142857 0.634765625  C 29.790736607142858 1.0579427083333324  30 1.5685763888888873  30 2.166666666666668  L 30 23.833333333333332  C 30 24.43142361111111  29.790736607142858 24.942057291666668  29.37220982142857 25.365234375  C 28.95368303571429 25.788411458333332  28.44866071428572 26  27.857142857142858 26  L 2.142857142857143 26  C 1.5513392857142858 26  1.0463169642857144 25.788411458333332  0.6277901785714285 25.365234375  C 0.20926339285714288 24.942057291666668  0 24.43142361111111  0 23.833333333333332  L 0 2.166666666666668  C 0 1.5685763888888873  0.20926339285714288 1.0579427083333324  0.6277901785714285 0.634765625  C 1.0463169642857144 0.21158854166666763  1.5513392857142858 0  2.142857142857143 0  L 27.857142857142858 0  C 28.44866071428572 0  28.95368303571429 0.21158854166666763  29.37220982142857 0.634765625  Z " fill-rule="evenodd" />
    </mask>
  </defs>
  <g transform="matrix(1 0 0 1 -170 -274 )">
    <path d="M 15.385044642857142 12.305989583333332  C 15.485491071428571 12.204427083333332  15.535714285714286 12.074652777777777  15.535714285714286 11.916666666666668  C 15.535714285714286 11.758680555555555  15.485491071428571 11.62890625  15.385044642857142 11.52734375  C 15.284598214285714 11.42578125  15.156250000000002 11.375  15 11.375  C 14.263392857142856 11.375  13.632812500000002 11.640190972222223  13.108258928571429 12.170572916666668  C 12.58370535714286 12.70095486111111  12.321428571428571 13.338541666666664  12.321428571428571 14.083333333333336  C 12.321428571428571 14.241319444444445  12.371651785714285 14.37109375  12.472098214285715 14.47265625  C 12.572544642857144 14.57421875  12.70089285714286 14.625  12.857142857142856 14.625  C 13.013392857142858 14.625  13.141741071428571 14.57421875  13.2421875 14.47265625  C 13.342633928571429 14.37109375  13.392857142857144 14.241319444444445  13.392857142857144 14.083333333333336  C 13.392857142857144 13.631944444444445  13.549107142857142 13.24826388888889  13.861607142857144 12.932291666666668  C 14.174107142857144 12.616319444444443  14.553571428571429 12.458333333333332  15 12.458333333333332  C 15.156250000000002 12.458333333333332  15.284598214285714 12.407552083333332  15.385044642857142 12.305989583333332  Z M 18.03013392857143 11.053385416666668  C 18.8671875 11.899739583333332  19.28571428571429 12.921006944444443  19.28571428571429 14.1171875  C 19.28571428571429 15.313368055555555  18.8671875 16.334635416666664  18.03013392857143 17.180989583333336  C 17.193080357142858 18.02734375  16.183035714285715 18.450520833333336  15 18.450520833333336  C 13.816964285714286 18.450520833333336  12.806919642857144 18.02734375  11.969866071428571 17.180989583333336  C 11.1328125 16.334635416666664  10.714285714285715 15.313368055555555  10.714285714285715 14.1171875  C 10.714285714285715 12.921006944444443  11.1328125 11.899739583333332  11.969866071428571 11.053385416666668  C 12.806919642857144 10.20703125  13.816964285714286 9.783854166666668  15 9.783854166666668  C 16.183035714285715 9.783854166666668  17.193080357142858 10.20703125  18.03013392857143 11.053385416666668  Z M 2.142857142857143 21.666666666666668  L 2.142857142857143 23.833333333333332  L 27.857142857142858 23.833333333333332  L 27.857142857142858 21.666666666666668  L 2.142857142857143 21.666666666666668  Z M 19.545200892857142 18.712890625  C 20.80078125 17.443359375  21.42857142857143 15.911458333333336  21.42857142857143 14.1171875  C 21.42857142857143 12.322916666666668  20.80078125 10.791015625  19.545200892857142 9.521484375  C 18.28962053571429 8.251953125  16.77455357142857 7.6171875  15 7.6171875  C 13.225446428571429 7.6171875  11.710379464285715 8.251953125  10.454799107142856 9.521484375  C 9.19921875 10.791015625  8.571428571428571 12.322916666666668  8.571428571428571 14.1171875  C 8.571428571428571 15.911458333333336  9.19921875 17.443359375  10.454799107142856 18.712890625  C 11.710379464285715 19.982421875  13.225446428571429 20.6171875  15 20.6171875  C 16.77455357142857 20.6171875  18.28962053571429 19.982421875  19.545200892857142 18.712890625  Z M 4.285714285714286 1.0833333333333324  L 4.285714285714286 3.25  L 10.714285714285715 3.25  L 10.714285714285715 1.0833333333333324  L 4.285714285714286 1.0833333333333324  Z M 2.142857142857143 4.333333333333332  L 2.142857142857143 7  L 27.857142857142858 7  L 27.857142857142858 4.502604166666668  L 27.857142857142858 2.166666666666668  L 13.995535714285715 2.166666666666668  L 12.924107142857144 4.333333333333332  L 2.142857142857143 4.333333333333332  Z M 29.37220982142857 0.634765625  C 29.790736607142858 1.0579427083333324  30 1.5685763888888873  30 2.166666666666668  L 30 23.833333333333332  C 30 24.43142361111111  29.790736607142858 24.942057291666668  29.37220982142857 25.365234375  C 28.95368303571429 25.788411458333332  28.44866071428572 26  27.857142857142858 26  L 2.142857142857143 26  C 1.5513392857142858 26  1.0463169642857144 25.788411458333332  0.6277901785714285 25.365234375  C 0.20926339285714288 24.942057291666668  0 24.43142361111111  0 23.833333333333332  L 0 2.166666666666668  C 0 1.5685763888888873  0.20926339285714288 1.0579427083333324  0.6277901785714285 0.634765625  C 1.0463169642857144 0.21158854166666763  1.5513392857142858 0  2.142857142857143 0  L 27.857142857142858 0  C 28.44866071428572 0  28.95368303571429 0.21158854166666763  29.37220982142857 0.634765625  Z " fill-rule="nonzero" fill="rgba(255, 255, 255, 1)" stroke="none" transform="matrix(1 0 0 1 170 274 )" class="fill" />
    <path d="M 15.385044642857142 12.305989583333332  C 15.485491071428571 12.204427083333332  15.535714285714286 12.074652777777777  15.535714285714286 11.916666666666668  C 15.535714285714286 11.758680555555555  15.485491071428571 11.62890625  15.385044642857142 11.52734375  C 15.284598214285714 11.42578125  15.156250000000002 11.375  15 11.375  C 14.263392857142856 11.375  13.632812500000002 11.640190972222223  13.108258928571429 12.170572916666668  C 12.58370535714286 12.70095486111111  12.321428571428571 13.338541666666664  12.321428571428571 14.083333333333336  C 12.321428571428571 14.241319444444445  12.371651785714285 14.37109375  12.472098214285715 14.47265625  C 12.572544642857144 14.57421875  12.70089285714286 14.625  12.857142857142856 14.625  C 13.013392857142858 14.625  13.141741071428571 14.57421875  13.2421875 14.47265625  C 13.342633928571429 14.37109375  13.392857142857144 14.241319444444445  13.392857142857144 14.083333333333336  C 13.392857142857144 13.631944444444445  13.549107142857142 13.24826388888889  13.861607142857144 12.932291666666668  C 14.174107142857144 12.616319444444443  14.553571428571429 12.458333333333332  15 12.458333333333332  C 15.156250000000002 12.458333333333332  15.284598214285714 12.407552083333332  15.385044642857142 12.305989583333332  Z " stroke-width="0" stroke-dasharray="0" stroke="rgba(255, 255, 255, 0)" fill="none" transform="matrix(1 0 0 1 170 274 )" class="stroke" mask="url(#Clip65)" />
    <path d="M 18.03013392857143 11.053385416666668  C 18.8671875 11.899739583333332  19.28571428571429 12.921006944444443  19.28571428571429 14.1171875  C 19.28571428571429 15.313368055555555  18.8671875 16.334635416666664  18.03013392857143 17.180989583333336  C 17.193080357142858 18.02734375  16.183035714285715 18.450520833333336  15 18.450520833333336  C 13.816964285714286 18.450520833333336  12.806919642857144 18.02734375  11.969866071428571 17.180989583333336  C 11.1328125 16.334635416666664  10.714285714285715 15.313368055555555  10.714285714285715 14.1171875  C 10.714285714285715 12.921006944444443  11.1328125 11.899739583333332  11.969866071428571 11.053385416666668  C 12.806919642857144 10.20703125  13.816964285714286 9.783854166666668  15 9.783854166666668  C 16.183035714285715 9.783854166666668  17.193080357142858 10.20703125  18.03013392857143 11.053385416666668  Z " stroke-width="0" stroke-dasharray="0" stroke="rgba(255, 255, 255, 0)" fill="none" transform="matrix(1 0 0 1 170 274 )" class="stroke" mask="url(#Clip65)" />
    <path d="M 2.142857142857143 21.666666666666668  L 2.142857142857143 23.833333333333332  L 27.857142857142858 23.833333333333332  L 27.857142857142858 21.666666666666668  L 2.142857142857143 21.666666666666668  Z " stroke-width="0" stroke-dasharray="0" stroke="rgba(255, 255, 255, 0)" fill="none" transform="matrix(1 0 0 1 170 274 )" class="stroke" mask="url(#Clip65)" />
    <path d="M 19.545200892857142 18.712890625  C 20.80078125 17.443359375  21.42857142857143 15.911458333333336  21.42857142857143 14.1171875  C 21.42857142857143 12.322916666666668  20.80078125 10.791015625  19.545200892857142 9.521484375  C 18.28962053571429 8.251953125  16.77455357142857 7.6171875  15 7.6171875  C 13.225446428571429 7.6171875  11.710379464285715 8.251953125  10.454799107142856 9.521484375  C 9.19921875 10.791015625  8.571428571428571 12.322916666666668  8.571428571428571 14.1171875  C 8.571428571428571 15.911458333333336  9.19921875 17.443359375  10.454799107142856 18.712890625  C 11.710379464285715 19.982421875  13.225446428571429 20.6171875  15 20.6171875  C 16.77455357142857 20.6171875  18.28962053571429 19.982421875  19.545200892857142 18.712890625  Z " stroke-width="0" stroke-dasharray="0" stroke="rgba(255, 255, 255, 0)" fill="none" transform="matrix(1 0 0 1 170 274 )" class="stroke" mask="url(#Clip65)" />
    <path d="M 4.285714285714286 1.0833333333333324  L 4.285714285714286 3.25  L 10.714285714285715 3.25  L 10.714285714285715 1.0833333333333324  L 4.285714285714286 1.0833333333333324  Z " stroke-width="0" stroke-dasharray="0" stroke="rgba(255, 255, 255, 0)" fill="none" transform="matrix(1 0 0 1 170 274 )" class="stroke" mask="url(#Clip65)" />
    <path d="M 2.142857142857143 4.333333333333332  L 2.142857142857143 7  L 27.857142857142858 7  L 27.857142857142858 4.502604166666668  L 27.857142857142858 2.166666666666668  L 13.995535714285715 2.166666666666668  L 12.924107142857144 4.333333333333332  L 2.142857142857143 4.333333333333332  Z " stroke-width="0" stroke-dasharray="0" stroke="rgba(255, 255, 255, 0)" fill="none" transform="matrix(1 0 0 1 170 274 )" class="stroke" mask="url(#Clip65)" />
    <path d="M 29.37220982142857 0.634765625  C 29.790736607142858 1.0579427083333324  30 1.5685763888888873  30 2.166666666666668  L 30 23.833333333333332  C 30 24.43142361111111  29.790736607142858 24.942057291666668  29.37220982142857 25.365234375  C 28.95368303571429 25.788411458333332  28.44866071428572 26  27.857142857142858 26  L 2.142857142857143 26  C 1.5513392857142858 26  1.0463169642857144 25.788411458333332  0.6277901785714285 25.365234375  C 0.20926339285714288 24.942057291666668  0 24.43142361111111  0 23.833333333333332  L 0 2.166666666666668  C 0 1.5685763888888873  0.20926339285714288 1.0579427083333324  0.6277901785714285 0.634765625  C 1.0463169642857144 0.21158854166666763  1.5513392857142858 0  2.142857142857143 0  L 27.857142857142858 0  C 28.44866071428572 0  28.95368303571429 0.21158854166666763  29.37220982142857 0.634765625  Z " stroke-width="0" stroke-dasharray="0" stroke="rgba(255, 255, 255, 0)" fill="none" transform="matrix(1 0 0 1 170 274 )" class="stroke" mask="url(#Clip65)" />
  </g>
</svg>