<?xml version="1.0" encoding="utf-8"?>
<svg version="1.1" xmlns:xlink="http://www.w3.org/1999/xlink" width="30px" height="19px" xmlns="http://www.w3.org/2000/svg">
  <defs>
    <pattern id="BGPattern" patternUnits="userSpaceOnUse" alignment="0 0" imageRepeat="None" />
    <mask fill="white" id="Clip344">
      <path d="M 4 0.9500000000000008  L 4 11.4  L 29.0625 11.4  C 29.316406250000004 11.4  29.536132812500004 11.494010416666665  29.7216796875 11.68203125  C 29.9072265625 11.870052083333334  30 12.09270833333333  30 12.35  L 30 19  L 26.25 19  L 26.25 15  L 3.75 15  L 3.75 19  L 0 19  L 0 0.9500000000000008  C 0 0.6927083333333319  0.0927734375 0.4700520833333319  0.2783203125 0.28203125000000084  C 0.4638671875 0.09401041666666554  0.6835937500000001 0  0.9375 0  L 2.8125 0  C 3.06640625 0  3.2861328125 0.09401041666666554  3.4716796875 0.28203125000000084  C 3.6572265625000004 0.4700520833333319  3.75 0.6927083333333319  4 0.9500000000000008  Z M 11.0888671875 9.336718750000001  C 11.8212890625 8.594531250000001  12.1875 7.698958333333333  12.1875 6.6499999999999995  C 12.1875 5.6010416666666645  11.8212890625 4.7054687500000005  11.0888671875 3.9632812500000005  C 10.3564453125 3.2210937500000005  9.472656250000002 2.8500000000000005  8.4375 2.8500000000000005  C 7.402343750000001 2.8500000000000005  6.5185546875 3.2210937500000005  5.7861328125 3.9632812500000005  C 5.0537109375 4.7054687500000005  4.6875 5.6010416666666645  4.6875 6.6499999999999995  C 4.6875 7.698958333333333  5.0537109375 8.594531250000001  5.7861328125 9.336718750000001  C 6.5185546875 10.078906250000001  7.402343750000001 10.450000000000001  8.4375 10.450000000000001  C 9.472656250000002 10.450000000000001  10.3564453125 10.078906250000001  11.0888671875 9.336718750000001  Z M 13.125 10.450000000000001  L 30 10.450000000000001  L 30 9.5  C 30 7.926562500000001  29.45068359375 6.583203124999999  28.35205078125 5.469921874999999  C 27.25341796875 4.356640624999999  25.927734375 3.799999999999999  24.375 4  L 14.0625 4  C 13.808593750000002 3.799999999999999  13.588867187500002 3.8940104166666645  13.4033203125 4.08203125  C 13.2177734375 4.270052083333333  13.125 4.492708333333333  13.125 4.75  L 13.125 10.450000000000001  Z " fill-rule="evenodd" />
    </mask>
  </defs>
  <g transform="matrix(1 0 0 1 -245 -278 )">
    <path d="M 4 0.9500000000000008  L 4 11.4  L 29.0625 11.4  C 29.316406250000004 11.4  29.536132812500004 11.494010416666665  29.7216796875 11.68203125  C 29.9072265625 11.870052083333334  30 12.09270833333333  30 12.35  L 30 19  L 26.25 19  L 26.25 15  L 3.75 15  L 3.75 19  L 0 19  L 0 0.9500000000000008  C 0 0.6927083333333319  0.0927734375 0.4700520833333319  0.2783203125 0.28203125000000084  C 0.4638671875 0.09401041666666554  0.6835937500000001 0  0.9375 0  L 2.8125 0  C 3.06640625 0  3.2861328125 0.09401041666666554  3.4716796875 0.28203125000000084  C 3.6572265625000004 0.4700520833333319  3.75 0.6927083333333319  4 0.9500000000000008  Z M 11.0888671875 9.336718750000001  C 11.8212890625 8.594531250000001  12.1875 7.698958333333333  12.1875 6.6499999999999995  C 12.1875 5.6010416666666645  11.8212890625 4.7054687500000005  11.0888671875 3.9632812500000005  C 10.3564453125 3.2210937500000005  9.472656250000002 2.8500000000000005  8.4375 2.8500000000000005  C 7.402343750000001 2.8500000000000005  6.5185546875 3.2210937500000005  5.7861328125 3.9632812500000005  C 5.0537109375 4.7054687500000005  4.6875 5.6010416666666645  4.6875 6.6499999999999995  C 4.6875 7.698958333333333  5.0537109375 8.594531250000001  5.7861328125 9.336718750000001  C 6.5185546875 10.078906250000001  7.402343750000001 10.450000000000001  8.4375 10.450000000000001  C 9.472656250000002 10.450000000000001  10.3564453125 10.078906250000001  11.0888671875 9.336718750000001  Z M 13.125 10.450000000000001  L 30 10.450000000000001  L 30 9.5  C 30 7.926562500000001  29.45068359375 6.583203124999999  28.35205078125 5.469921874999999  C 27.25341796875 4.356640624999999  25.927734375 3.799999999999999  24.375 4  L 14.0625 4  C 13.808593750000002 3.799999999999999  13.588867187500002 3.8940104166666645  13.4033203125 4.08203125  C 13.2177734375 4.270052083333333  13.125 4.492708333333333  13.125 4.75  L 13.125 10.450000000000001  Z " fill-rule="nonzero" fill="rgba(255, 255, 255, 1)" stroke="none" transform="matrix(1 0 0 1 245 278 )" class="fill" />
    <path d="M 4 0.9500000000000008  L 4 11.4  L 29.0625 11.4  C 29.316406250000004 11.4  29.536132812500004 11.494010416666665  29.7216796875 11.68203125  C 29.9072265625 11.870052083333334  30 12.09270833333333  30 12.35  L 30 19  L 26.25 19  L 26.25 15  L 3.75 15  L 3.75 19  L 0 19  L 0 0.9500000000000008  C 0 0.6927083333333319  0.0927734375 0.4700520833333319  0.2783203125 0.28203125000000084  C 0.4638671875 0.09401041666666554  0.6835937500000001 0  0.9375 0  L 2.8125 0  C 3.06640625 0  3.2861328125 0.09401041666666554  3.4716796875 0.28203125000000084  C 3.6572265625000004 0.4700520833333319  3.75 0.6927083333333319  4 0.9500000000000008  Z " stroke-width="0" stroke-dasharray="0" stroke="rgba(255, 255, 255, 0)" fill="none" transform="matrix(1 0 0 1 245 278 )" class="stroke" mask="url(#Clip344)" />
    <path d="M 11.0888671875 9.336718750000001  C 11.8212890625 8.594531250000001  12.1875 7.698958333333333  12.1875 6.6499999999999995  C 12.1875 5.6010416666666645  11.8212890625 4.7054687500000005  11.0888671875 3.9632812500000005  C 10.3564453125 3.2210937500000005  9.472656250000002 2.8500000000000005  8.4375 2.8500000000000005  C 7.402343750000001 2.8500000000000005  6.5185546875 3.2210937500000005  5.7861328125 3.9632812500000005  C 5.0537109375 4.7054687500000005  4.6875 5.6010416666666645  4.6875 6.6499999999999995  C 4.6875 7.698958333333333  5.0537109375 8.594531250000001  5.7861328125 9.336718750000001  C 6.5185546875 10.078906250000001  7.402343750000001 10.450000000000001  8.4375 10.450000000000001  C 9.472656250000002 10.450000000000001  10.3564453125 10.078906250000001  11.0888671875 9.336718750000001  Z " stroke-width="0" stroke-dasharray="0" stroke="rgba(255, 255, 255, 0)" fill="none" transform="matrix(1 0 0 1 245 278 )" class="stroke" mask="url(#Clip344)" />
    <path d="M 13.125 10.450000000000001  L 30 10.450000000000001  L 30 9.5  C 30 7.926562500000001  29.45068359375 6.583203124999999  28.35205078125 5.469921874999999  C 27.25341796875 4.356640624999999  25.927734375 3.799999999999999  24.375 4  L 14.0625 4  C 13.808593750000002 3.799999999999999  13.588867187500002 3.8940104166666645  13.4033203125 4.08203125  C 13.2177734375 4.270052083333333  13.125 4.492708333333333  13.125 4.75  L 13.125 10.450000000000001  Z " stroke-width="0" stroke-dasharray="0" stroke="rgba(255, 255, 255, 0)" fill="none" transform="matrix(1 0 0 1 245 278 )" class="stroke" mask="url(#Clip344)" />
  </g>
</svg>