<?xml version="1.0" encoding="utf-8"?>
<svg version="1.1" xmlns:xlink="http://www.w3.org/1999/xlink" width="29px" height="23px" xmlns="http://www.w3.org/2000/svg">
  <defs>
    <pattern id="BGPattern" patternUnits="userSpaceOnUse" alignment="0 0" imageRepeat="None" />
    <mask fill="white" id="Clip346">
      <path d="M 6.13134765625 15.424375000000001  C 6.575032552083334 14.97395833333333  6.796875000000001 14.4325  6.796875 13.799999999999999  C 6.796875000000001 13.1675  6.575032552083334 12.626041666666664  6.13134765625 12.175624999999998  C 5.687662760416667 11.725208333333333  5.154296875 11.5  4.53125 11.5  C 3.908203125 11.5  3.3748372395833335 11.725208333333333  2.93115234375 12.175624999999998  C 2.487467447916667 12.626041666666664  2.265625 13.1675  2.265625 13.799999999999999  C 2.265625 14.4325  2.487467447916667 14.97395833333333  2.93115234375 15.424375000000001  C 3.3748372395833335 15.874791666666667  3.908203125 16.099999999999998  4.53125 16.099999999999998  C 5.154296875 16.099999999999998  5.687662760416667 15.874791666666667  6.13134765625 15.424375000000001  Z M 8.56689453125 4.068125  L 7.306640625 9.200000000000001  L 21.693359375 9.200000000000001  L 20.43310546875 4.068125  C 20.414225260416668 3.9914583333333318  20.34814453125 3.9076041666666645  20.23486328125 3.816562499999999  C 20.12158203125 3.7255208333333307  20.0224609375 3.6800000000000006  19.9375 4  L 9.0625 4  C 8.9775390625 3.6800000000000006  8.87841796875 3.7255208333333307  8.76513671875 3.816562499999999  C 8.65185546875 3.9076041666666645  8.585774739583334 3.9914583333333318  8.56689453125 4.068125  Z M 26.06884765625 15.424375000000001  C 26.512532552083336 14.97395833333333  26.734375 14.4325  26.734375 13.799999999999999  C 26.734375 13.1675  26.512532552083336 12.626041666666664  26.06884765625 12.175624999999998  C 25.62516276041667 11.725208333333333  25.091796875000004 11.5  24.46875 11.5  C 23.845703125000004 11.5  23.312337239583336 11.725208333333333  22.86865234375 12.175624999999998  C 22.424967447916668 12.626041666666664  22.203125 13.1675  22.203125 13.799999999999999  C 22.203125 14.4325  22.424967447916668 14.97395833333333  22.86865234375 15.424375000000001  C 23.312337239583336 15.874791666666667  23.845703125000004 16.099999999999998  24.46875 16.099999999999998  C 25.091796875000004 16.099999999999998  25.62516276041667 15.874791666666667  26.06884765625 15.424375000000001  Z M 28.072509765625 10.1415625  C 28.690836588541668 10.769270833333334  29 11.528749999999999  29 12.420000000000002  L 29 17.94  C 29 18.074166666666667  28.95751953125 18.184375  28.87255859375 18.270625000000003  C 28.78759765625 18.356875  28.679036458333336 18.400000000000002  28.546875 18.400000000000002  L 27.1875 18.400000000000002  L 27.1875 20.24  C 27.187500000000004 21.006666666666668  26.923177083333336 21.658333333333335  26.39453125 22.195  C 25.865885416666668 22.731666666666666  25.223958333333336 23  24.46875 23  C 23.713541666666668 23  23.071614583333336 22.731666666666666  22.54296875 22.195  C 22.014322916666664 21.658333333333335  21.75 21.006666666666668  21.75 20.24  L 21.75 18  L 7.25 18  L 7.25 20.24  C 7.25 21.006666666666668  6.985677083333334 21.658333333333335  6.45703125 22.195  C 5.928385416666667 22.731666666666666  5.286458333333334 23  4.53125 23  C 3.776041666666667 23  3.134114583333334 22.731666666666666  2.60546875 22.195  C 2.076822916666667 21.658333333333335  1.8125 21.006666666666668  1.8125 20.24  L 1.8125 18.400000000000002  L 0.453125 18.400000000000002  C 0.3209635416666667 18.400000000000002  0.21240234375000003 18.356875  0.12744140625 18.270625000000003  C 0.04248046875 18.184375  0 18.074166666666667  0 17.94  L 0 12.420000000000002  C 0 11.528749999999999  0.3091634114583333 10.769270833333334  0.927490234375 10.1415625  C 1.5458170572916667 9.513854166666668  2.2939453125 9.200000000000001  3.171875 9.200000000000001  L 3.568359375 9.200000000000001  L 5.05517578125 3.1768750000000012  C 5.272298177083334 2.276041666666665  5.76318359375 1.5213541666666646  6.52783203125 0.9128124999999997  C 7.29248046875 0.3042708333333324  8.137369791666668 0  9.0625 0  L 19.9375 0  C 20.862630208333336 0  21.70751953125 0.3042708333333324  22.47216796875 0.9128124999999997  C 23.236816406250004 1.5213541666666646  23.72770182291667 2.276041666666665  23.94482421875 3.1768750000000012  L 25.431640625 9.200000000000001  L 25.828125 9.200000000000001  C 26.706054687500004 9.200000000000001  27.454182942708336 9.513854166666668  28.072509765625 10.1415625  Z " fill-rule="evenodd" />
    </mask>
  </defs>
  <g transform="matrix(1 0 0 1 -321 -278 )">
    <path d="M 6.13134765625 15.424375000000001  C 6.575032552083334 14.97395833333333  6.796875000000001 14.4325  6.796875 13.799999999999999  C 6.796875000000001 13.1675  6.575032552083334 12.626041666666664  6.13134765625 12.175624999999998  C 5.687662760416667 11.725208333333333  5.154296875 11.5  4.53125 11.5  C 3.908203125 11.5  3.3748372395833335 11.725208333333333  2.93115234375 12.175624999999998  C 2.487467447916667 12.626041666666664  2.265625 13.1675  2.265625 13.799999999999999  C 2.265625 14.4325  2.487467447916667 14.97395833333333  2.93115234375 15.424375000000001  C 3.3748372395833335 15.874791666666667  3.908203125 16.099999999999998  4.53125 16.099999999999998  C 5.154296875 16.099999999999998  5.687662760416667 15.874791666666667  6.13134765625 15.424375000000001  Z M 8.56689453125 4.068125  L 7.306640625 9.200000000000001  L 21.693359375 9.200000000000001  L 20.43310546875 4.068125  C 20.414225260416668 3.9914583333333318  20.34814453125 3.9076041666666645  20.23486328125 3.816562499999999  C 20.12158203125 3.7255208333333307  20.0224609375 3.6800000000000006  19.9375 4  L 9.0625 4  C 8.9775390625 3.6800000000000006  8.87841796875 3.7255208333333307  8.76513671875 3.816562499999999  C 8.65185546875 3.9076041666666645  8.585774739583334 3.9914583333333318  8.56689453125 4.068125  Z M 26.06884765625 15.424375000000001  C 26.512532552083336 14.97395833333333  26.734375 14.4325  26.734375 13.799999999999999  C 26.734375 13.1675  26.512532552083336 12.626041666666664  26.06884765625 12.175624999999998  C 25.62516276041667 11.725208333333333  25.091796875000004 11.5  24.46875 11.5  C 23.845703125000004 11.5  23.312337239583336 11.725208333333333  22.86865234375 12.175624999999998  C 22.424967447916668 12.626041666666664  22.203125 13.1675  22.203125 13.799999999999999  C 22.203125 14.4325  22.424967447916668 14.97395833333333  22.86865234375 15.424375000000001  C 23.312337239583336 15.874791666666667  23.845703125000004 16.099999999999998  24.46875 16.099999999999998  C 25.091796875000004 16.099999999999998  25.62516276041667 15.874791666666667  26.06884765625 15.424375000000001  Z M 28.072509765625 10.1415625  C 28.690836588541668 10.769270833333334  29 11.528749999999999  29 12.420000000000002  L 29 17.94  C 29 18.074166666666667  28.95751953125 18.184375  28.87255859375 18.270625000000003  C 28.78759765625 18.356875  28.679036458333336 18.400000000000002  28.546875 18.400000000000002  L 27.1875 18.400000000000002  L 27.1875 20.24  C 27.187500000000004 21.006666666666668  26.923177083333336 21.658333333333335  26.39453125 22.195  C 25.865885416666668 22.731666666666666  25.223958333333336 23  24.46875 23  C 23.713541666666668 23  23.071614583333336 22.731666666666666  22.54296875 22.195  C 22.014322916666664 21.658333333333335  21.75 21.006666666666668  21.75 20.24  L 21.75 18  L 7.25 18  L 7.25 20.24  C 7.25 21.006666666666668  6.985677083333334 21.658333333333335  6.45703125 22.195  C 5.928385416666667 22.731666666666666  5.286458333333334 23  4.53125 23  C 3.776041666666667 23  3.134114583333334 22.731666666666666  2.60546875 22.195  C 2.076822916666667 21.658333333333335  1.8125 21.006666666666668  1.8125 20.24  L 1.8125 18.400000000000002  L 0.453125 18.400000000000002  C 0.3209635416666667 18.400000000000002  0.21240234375000003 18.356875  0.12744140625 18.270625000000003  C 0.04248046875 18.184375  0 18.074166666666667  0 17.94  L 0 12.420000000000002  C 0 11.528749999999999  0.3091634114583333 10.769270833333334  0.927490234375 10.1415625  C 1.5458170572916667 9.513854166666668  2.2939453125 9.200000000000001  3.171875 9.200000000000001  L 3.568359375 9.200000000000001  L 5.05517578125 3.1768750000000012  C 5.272298177083334 2.276041666666665  5.76318359375 1.5213541666666646  6.52783203125 0.9128124999999997  C 7.29248046875 0.3042708333333324  8.137369791666668 0  9.0625 0  L 19.9375 0  C 20.862630208333336 0  21.70751953125 0.3042708333333324  22.47216796875 0.9128124999999997  C 23.236816406250004 1.5213541666666646  23.72770182291667 2.276041666666665  23.94482421875 3.1768750000000012  L 25.431640625 9.200000000000001  L 25.828125 9.200000000000001  C 26.706054687500004 9.200000000000001  27.454182942708336 9.513854166666668  28.072509765625 10.1415625  Z " fill-rule="nonzero" fill="rgba(255, 255, 255, 1)" stroke="none" transform="matrix(1 0 0 1 321 278 )" class="fill" />
    <path d="M 6.13134765625 15.424375000000001  C 6.575032552083334 14.97395833333333  6.796875000000001 14.4325  6.796875 13.799999999999999  C 6.796875000000001 13.1675  6.575032552083334 12.626041666666664  6.13134765625 12.175624999999998  C 5.687662760416667 11.725208333333333  5.154296875 11.5  4.53125 11.5  C 3.908203125 11.5  3.3748372395833335 11.725208333333333  2.93115234375 12.175624999999998  C 2.487467447916667 12.626041666666664  2.265625 13.1675  2.265625 13.799999999999999  C 2.265625 14.4325  2.487467447916667 14.97395833333333  2.93115234375 15.424375000000001  C 3.3748372395833335 15.874791666666667  3.908203125 16.099999999999998  4.53125 16.099999999999998  C 5.154296875 16.099999999999998  5.687662760416667 15.874791666666667  6.13134765625 15.424375000000001  Z " stroke-width="0" stroke-dasharray="0" stroke="rgba(255, 255, 255, 0)" fill="none" transform="matrix(1 0 0 1 321 278 )" class="stroke" mask="url(#Clip346)" />
    <path d="M 8.56689453125 4.068125  L 7.306640625 9.200000000000001  L 21.693359375 9.200000000000001  L 20.43310546875 4.068125  C 20.414225260416668 3.9914583333333318  20.34814453125 3.9076041666666645  20.23486328125 3.816562499999999  C 20.12158203125 3.7255208333333307  20.0224609375 3.6800000000000006  19.9375 4  L 9.0625 4  C 8.9775390625 3.6800000000000006  8.87841796875 3.7255208333333307  8.76513671875 3.816562499999999  C 8.65185546875 3.9076041666666645  8.585774739583334 3.9914583333333318  8.56689453125 4.068125  Z " stroke-width="0" stroke-dasharray="0" stroke="rgba(255, 255, 255, 0)" fill="none" transform="matrix(1 0 0 1 321 278 )" class="stroke" mask="url(#Clip346)" />
    <path d="M 26.06884765625 15.424375000000001  C 26.512532552083336 14.97395833333333  26.734375 14.4325  26.734375 13.799999999999999  C 26.734375 13.1675  26.512532552083336 12.626041666666664  26.06884765625 12.175624999999998  C 25.62516276041667 11.725208333333333  25.091796875000004 11.5  24.46875 11.5  C 23.845703125000004 11.5  23.312337239583336 11.725208333333333  22.86865234375 12.175624999999998  C 22.424967447916668 12.626041666666664  22.203125 13.1675  22.203125 13.799999999999999  C 22.203125 14.4325  22.424967447916668 14.97395833333333  22.86865234375 15.424375000000001  C 23.312337239583336 15.874791666666667  23.845703125000004 16.099999999999998  24.46875 16.099999999999998  C 25.091796875000004 16.099999999999998  25.62516276041667 15.874791666666667  26.06884765625 15.424375000000001  Z " stroke-width="0" stroke-dasharray="0" stroke="rgba(255, 255, 255, 0)" fill="none" transform="matrix(1 0 0 1 321 278 )" class="stroke" mask="url(#Clip346)" />
    <path d="M 28.072509765625 10.1415625  C 28.690836588541668 10.769270833333334  29 11.528749999999999  29 12.420000000000002  L 29 17.94  C 29 18.074166666666667  28.95751953125 18.184375  28.87255859375 18.270625000000003  C 28.78759765625 18.356875  28.679036458333336 18.400000000000002  28.546875 18.400000000000002  L 27.1875 18.400000000000002  L 27.1875 20.24  C 27.187500000000004 21.006666666666668  26.923177083333336 21.658333333333335  26.39453125 22.195  C 25.865885416666668 22.731666666666666  25.223958333333336 23  24.46875 23  C 23.713541666666668 23  23.071614583333336 22.731666666666666  22.54296875 22.195  C 22.014322916666664 21.658333333333335  21.75 21.006666666666668  21.75 20.24  L 21.75 18  L 7.25 18  L 7.25 20.24  C 7.25 21.006666666666668  6.985677083333334 21.658333333333335  6.45703125 22.195  C 5.928385416666667 22.731666666666666  5.286458333333334 23  4.53125 23  C 3.776041666666667 23  3.134114583333334 22.731666666666666  2.60546875 22.195  C 2.076822916666667 21.658333333333335  1.8125 21.006666666666668  1.8125 20.24  L 1.8125 18.400000000000002  L 0.453125 18.400000000000002  C 0.3209635416666667 18.400000000000002  0.21240234375000003 18.356875  0.12744140625 18.270625000000003  C 0.04248046875 18.184375  0 18.074166666666667  0 17.94  L 0 12.420000000000002  C 0 11.528749999999999  0.3091634114583333 10.769270833333334  0.927490234375 10.1415625  C 1.5458170572916667 9.513854166666668  2.2939453125 9.200000000000001  3.171875 9.200000000000001  L 3.568359375 9.200000000000001  L 5.05517578125 3.1768750000000012  C 5.272298177083334 2.276041666666665  5.76318359375 1.5213541666666646  6.52783203125 0.9128124999999997  C 7.29248046875 0.3042708333333324  8.137369791666668 0  9.0625 0  L 19.9375 0  C 20.862630208333336 0  21.70751953125 0.3042708333333324  22.47216796875 0.9128124999999997  C 23.236816406250004 1.5213541666666646  23.72770182291667 2.276041666666665  23.94482421875 3.1768750000000012  L 25.431640625 9.200000000000001  L 25.828125 9.200000000000001  C 26.706054687500004 9.200000000000001  27.454182942708336 9.513854166666668  28.072509765625 10.1415625  Z " stroke-width="0" stroke-dasharray="0" stroke="rgba(255, 255, 255, 0)" fill="none" transform="matrix(1 0 0 1 321 278 )" class="stroke" mask="url(#Clip346)" />
  </g>
</svg>