<?xml version="1.0" encoding="utf-8"?>
<svg version="1.1" xmlns:xlink="http://www.w3.org/1999/xlink" width="30px" height="26px" xmlns="http://www.w3.org/2000/svg">
  <defs>
    <pattern id="BGPattern" patternUnits="userSpaceOnUse" alignment="0 0" imageRepeat="None" />
    <mask fill="white" id="Clip348">
      <path d="M 17.7734375 23.26264880952381  C 18.0078125 23.088541666666668  18.125 22.84027777777778  18.125 22.517857142857142  L 18.125 21.43452380952381  L 18.125 12.38095238095238  L 18.125 8.666666666666668  L 11.875 8.666666666666668  L 11.875 12.38095238095238  L 11.875 21.43452380952381  L 11.875 22.517857142857142  C 11.875 22.84027777777778  11.9921875 23.088541666666668  12.2265625 23.26264880952381  C 12.4609375 23.436755952380953  12.760416666666668 23.523809523809526  13.125 23.523809523809526  L 16.875 23.523809523809526  C 17.239583333333332 23.523809523809526  17.5390625 23.436755952380953  17.7734375 23.26264880952381  Z M 7.890624999999999 5.648809523809524  C 8.255208333333336 6.009920634920631  8.697916666666668 6.190476190476192  9.21875 6.190476190476192  L 13.02734375 6.190476190476192  L 10.56640625 3.0758928571428563  C 10.227864583333334 2.6760912698412676  9.778645833333334 2.4761904761904763  9.21875 2.4761904761904763  C 8.697916666666668 2.4761904761904763  8.255208333333336 2.6567460317460307  7.890624999999999 3.0178571428571437  C 7.526041666666668 3.3789682539682504  7.34375 3.8174603174603154  7.34375 4.333333333333332  C 7.34375 4.849206349206346  7.526041666666668 5.287698412698411  7.890624999999999 5.648809523809524  Z M 22.109375 5.648809523809524  C 22.473958333333336 5.287698412698411  22.65625 4.849206349206346  22.65625 4.333333333333332  C 22.65625 3.8174603174603154  22.473958333333336 3.3789682539682504  22.109375 3.0178571428571437  C 21.744791666666668 2.6567460317460307  21.302083333333336 2.4761904761904763  20.78125 2.4761904761904763  C 20.221354166666668 2.4761904761904763  19.772135416666668 2.6760912698412676  19.43359375 3.0758928571428563  L 16.9921875 6.190476190476192  L 20.78125 6.190476190476192  C 21.302083333333336 6.190476190476192  21.744791666666668 6.009920634920631  22.109375 5.648809523809524  Z M 29.82421875 8.840773809523808  C 29.94140625 8.956845238095239  30 9.10515873015873  30 9.285714285714285  L 30 15.476190476190476  C 30 15.656746031746032  29.94140625 15.805059523809524  29.82421875 15.921130952380953  C 29.70703125 16.03720238095238  29.55729166666667 16.095238095238095  29.375 16.095238095238095  L 27.5 16.095238095238095  L 27.5 24.142857142857142  C 27.5 24.65873015873016  27.317708333333332 25.09722222222222  26.953125 25.458333333333332  C 26.58854166666667 25.819444444444446  26.145833333333332 26  25.625 26  L 4.375 26  C 3.854166666666667 26  3.411458333333334 25.819444444444446  3.046875 25.458333333333332  C 2.6822916666666665 25.09722222222222  2.5 24.65873015873016  2.5 24.142857142857142  L 2.5 16.095238095238095  L 0.625 16.095238095238095  C 0.44270833333333337 16.095238095238095  0.29296875000000006 16.03720238095238  0.17578125 15.921130952380953  C 0.05859375 15.805059523809524  0 15.656746031746032  0 15.476190476190476  L 0 9.285714285714285  C 0 9.10515873015873  0.05859375 8.956845238095239  0.17578125 8.840773809523808  C 0.29296875000000006 8.72470238095238  0.44270833333333337 8.666666666666668  0.625 8.666666666666668  L 9.21875 8.666666666666668  C 8.0078125 8.666666666666668  6.975911458333333 8.244295634920634  6.123046875 7.399553571428572  C 5.270182291666668 6.554811507936507  4.84375 5.532738095238096  4.84375 4.333333333333332  C 4.84375 3.133928571428572  5.270182291666668 2.1118551587301546  6.123046875 1.2671130952380958  C 6.975911458333333 0.42237103174603097  8.0078125 0  9.21875 0  C 10.611979166666666 0  11.705729166666668 0.49652777777777457  12.5 1.4895833333333324  L 15 4.6815476190476195  L 17.5 1.4895833333333324  C 18.294270833333332 0.49652777777777457  19.388020833333336 0  20.78125 0  C 21.9921875 0  23.02408854166667 0.42237103174603097  23.876953125 1.2671130952380958  C 24.729817708333336 2.1118551587301546  25.15625 3.133928571428572  25.15625 4.333333333333332  C 25.15625 5.532738095238096  24.729817708333336 6.554811507936507  23.876953125 7.399553571428572  C 23.02408854166667 8.244295634920634  21.9921875 8.666666666666668  20.78125 8.666666666666668  L 29.375 8.666666666666668  C 29.55729166666667 8.666666666666668  29.70703125 8.72470238095238  29.82421875 8.840773809523808  Z " fill-rule="evenodd" />
    </mask>
  </defs>
  <g transform="matrix(1 0 0 1 -170 -349 )">
    <path d="M 17.7734375 23.26264880952381  C 18.0078125 23.088541666666668  18.125 22.84027777777778  18.125 22.517857142857142  L 18.125 21.43452380952381  L 18.125 12.38095238095238  L 18.125 8.666666666666668  L 11.875 8.666666666666668  L 11.875 12.38095238095238  L 11.875 21.43452380952381  L 11.875 22.517857142857142  C 11.875 22.84027777777778  11.9921875 23.088541666666668  12.2265625 23.26264880952381  C 12.4609375 23.436755952380953  12.760416666666668 23.523809523809526  13.125 23.523809523809526  L 16.875 23.523809523809526  C 17.239583333333332 23.523809523809526  17.5390625 23.436755952380953  17.7734375 23.26264880952381  Z M 7.890624999999999 5.648809523809524  C 8.255208333333336 6.009920634920631  8.697916666666668 6.190476190476192  9.21875 6.190476190476192  L 13.02734375 6.190476190476192  L 10.56640625 3.0758928571428563  C 10.227864583333334 2.6760912698412676  9.778645833333334 2.4761904761904763  9.21875 2.4761904761904763  C 8.697916666666668 2.4761904761904763  8.255208333333336 2.6567460317460307  7.890624999999999 3.0178571428571437  C 7.526041666666668 3.3789682539682504  7.34375 3.8174603174603154  7.34375 4.333333333333332  C 7.34375 4.849206349206346  7.526041666666668 5.287698412698411  7.890624999999999 5.648809523809524  Z M 22.109375 5.648809523809524  C 22.473958333333336 5.287698412698411  22.65625 4.849206349206346  22.65625 4.333333333333332  C 22.65625 3.8174603174603154  22.473958333333336 3.3789682539682504  22.109375 3.0178571428571437  C 21.744791666666668 2.6567460317460307  21.302083333333336 2.4761904761904763  20.78125 2.4761904761904763  C 20.221354166666668 2.4761904761904763  19.772135416666668 2.6760912698412676  19.43359375 3.0758928571428563  L 16.9921875 6.190476190476192  L 20.78125 6.190476190476192  C 21.302083333333336 6.190476190476192  21.744791666666668 6.009920634920631  22.109375 5.648809523809524  Z M 29.82421875 8.840773809523808  C 29.94140625 8.956845238095239  30 9.10515873015873  30 9.285714285714285  L 30 15.476190476190476  C 30 15.656746031746032  29.94140625 15.805059523809524  29.82421875 15.921130952380953  C 29.70703125 16.03720238095238  29.55729166666667 16.095238095238095  29.375 16.095238095238095  L 27.5 16.095238095238095  L 27.5 24.142857142857142  C 27.5 24.65873015873016  27.317708333333332 25.09722222222222  26.953125 25.458333333333332  C 26.58854166666667 25.819444444444446  26.145833333333332 26  25.625 26  L 4.375 26  C 3.854166666666667 26  3.411458333333334 25.819444444444446  3.046875 25.458333333333332  C 2.6822916666666665 25.09722222222222  2.5 24.65873015873016  2.5 24.142857142857142  L 2.5 16.095238095238095  L 0.625 16.095238095238095  C 0.44270833333333337 16.095238095238095  0.29296875000000006 16.03720238095238  0.17578125 15.921130952380953  C 0.05859375 15.805059523809524  0 15.656746031746032  0 15.476190476190476  L 0 9.285714285714285  C 0 9.10515873015873  0.05859375 8.956845238095239  0.17578125 8.840773809523808  C 0.29296875000000006 8.72470238095238  0.44270833333333337 8.666666666666668  0.625 8.666666666666668  L 9.21875 8.666666666666668  C 8.0078125 8.666666666666668  6.975911458333333 8.244295634920634  6.123046875 7.399553571428572  C 5.270182291666668 6.554811507936507  4.84375 5.532738095238096  4.84375 4.333333333333332  C 4.84375 3.133928571428572  5.270182291666668 2.1118551587301546  6.123046875 1.2671130952380958  C 6.975911458333333 0.42237103174603097  8.0078125 0  9.21875 0  C 10.611979166666666 0  11.705729166666668 0.49652777777777457  12.5 1.4895833333333324  L 15 4.6815476190476195  L 17.5 1.4895833333333324  C 18.294270833333332 0.49652777777777457  19.388020833333336 0  20.78125 0  C 21.9921875 0  23.02408854166667 0.42237103174603097  23.876953125 1.2671130952380958  C 24.729817708333336 2.1118551587301546  25.15625 3.133928571428572  25.15625 4.333333333333332  C 25.15625 5.532738095238096  24.729817708333336 6.554811507936507  23.876953125 7.399553571428572  C 23.02408854166667 8.244295634920634  21.9921875 8.666666666666668  20.78125 8.666666666666668  L 29.375 8.666666666666668  C 29.55729166666667 8.666666666666668  29.70703125 8.72470238095238  29.82421875 8.840773809523808  Z " fill-rule="nonzero" fill="rgba(255, 255, 255, 1)" stroke="none" transform="matrix(1 0 0 1 170 349 )" class="fill" />
    <path d="M 17.7734375 23.26264880952381  C 18.0078125 23.088541666666668  18.125 22.84027777777778  18.125 22.517857142857142  L 18.125 21.43452380952381  L 18.125 12.38095238095238  L 18.125 8.666666666666668  L 11.875 8.666666666666668  L 11.875 12.38095238095238  L 11.875 21.43452380952381  L 11.875 22.517857142857142  C 11.875 22.84027777777778  11.9921875 23.088541666666668  12.2265625 23.26264880952381  C 12.4609375 23.436755952380953  12.760416666666668 23.523809523809526  13.125 23.523809523809526  L 16.875 23.523809523809526  C 17.239583333333332 23.523809523809526  17.5390625 23.436755952380953  17.7734375 23.26264880952381  Z " stroke-width="0" stroke-dasharray="0" stroke="rgba(255, 255, 255, 0)" fill="none" transform="matrix(1 0 0 1 170 349 )" class="stroke" mask="url(#Clip348)" />
    <path d="M 7.890624999999999 5.648809523809524  C 8.255208333333336 6.009920634920631  8.697916666666668 6.190476190476192  9.21875 6.190476190476192  L 13.02734375 6.190476190476192  L 10.56640625 3.0758928571428563  C 10.227864583333334 2.6760912698412676  9.778645833333334 2.4761904761904763  9.21875 2.4761904761904763  C 8.697916666666668 2.4761904761904763  8.255208333333336 2.6567460317460307  7.890624999999999 3.0178571428571437  C 7.526041666666668 3.3789682539682504  7.34375 3.8174603174603154  7.34375 4.333333333333332  C 7.34375 4.849206349206346  7.526041666666668 5.287698412698411  7.890624999999999 5.648809523809524  Z " stroke-width="0" stroke-dasharray="0" stroke="rgba(255, 255, 255, 0)" fill="none" transform="matrix(1 0 0 1 170 349 )" class="stroke" mask="url(#Clip348)" />
    <path d="M 22.109375 5.648809523809524  C 22.473958333333336 5.287698412698411  22.65625 4.849206349206346  22.65625 4.333333333333332  C 22.65625 3.8174603174603154  22.473958333333336 3.3789682539682504  22.109375 3.0178571428571437  C 21.744791666666668 2.6567460317460307  21.302083333333336 2.4761904761904763  20.78125 2.4761904761904763  C 20.221354166666668 2.4761904761904763  19.772135416666668 2.6760912698412676  19.43359375 3.0758928571428563  L 16.9921875 6.190476190476192  L 20.78125 6.190476190476192  C 21.302083333333336 6.190476190476192  21.744791666666668 6.009920634920631  22.109375 5.648809523809524  Z " stroke-width="0" stroke-dasharray="0" stroke="rgba(255, 255, 255, 0)" fill="none" transform="matrix(1 0 0 1 170 349 )" class="stroke" mask="url(#Clip348)" />
    <path d="M 29.82421875 8.840773809523808  C 29.94140625 8.956845238095239  30 9.10515873015873  30 9.285714285714285  L 30 15.476190476190476  C 30 15.656746031746032  29.94140625 15.805059523809524  29.82421875 15.921130952380953  C 29.70703125 16.03720238095238  29.55729166666667 16.095238095238095  29.375 16.095238095238095  L 27.5 16.095238095238095  L 27.5 24.142857142857142  C 27.5 24.65873015873016  27.317708333333332 25.09722222222222  26.953125 25.458333333333332  C 26.58854166666667 25.819444444444446  26.145833333333332 26  25.625 26  L 4.375 26  C 3.854166666666667 26  3.411458333333334 25.819444444444446  3.046875 25.458333333333332  C 2.6822916666666665 25.09722222222222  2.5 24.65873015873016  2.5 24.142857142857142  L 2.5 16.095238095238095  L 0.625 16.095238095238095  C 0.44270833333333337 16.095238095238095  0.29296875000000006 16.03720238095238  0.17578125 15.921130952380953  C 0.05859375 15.805059523809524  0 15.656746031746032  0 15.476190476190476  L 0 9.285714285714285  C 0 9.10515873015873  0.05859375 8.956845238095239  0.17578125 8.840773809523808  C 0.29296875000000006 8.72470238095238  0.44270833333333337 8.666666666666668  0.625 8.666666666666668  L 9.21875 8.666666666666668  C 8.0078125 8.666666666666668  6.975911458333333 8.244295634920634  6.123046875 7.399553571428572  C 5.270182291666668 6.554811507936507  4.84375 5.532738095238096  4.84375 4.333333333333332  C 4.84375 3.133928571428572  5.270182291666668 2.1118551587301546  6.123046875 1.2671130952380958  C 6.975911458333333 0.42237103174603097  8.0078125 0  9.21875 0  C 10.611979166666666 0  11.705729166666668 0.49652777777777457  12.5 1.4895833333333324  L 15 4.6815476190476195  L 17.5 1.4895833333333324  C 18.294270833333332 0.49652777777777457  19.388020833333336 0  20.78125 0  C 21.9921875 0  23.02408854166667 0.42237103174603097  23.876953125 1.2671130952380958  C 24.729817708333336 2.1118551587301546  25.15625 3.133928571428572  25.15625 4.333333333333332  C 25.15625 5.532738095238096  24.729817708333336 6.554811507936507  23.876953125 7.399553571428572  C 23.02408854166667 8.244295634920634  21.9921875 8.666666666666668  20.78125 8.666666666666668  L 29.375 8.666666666666668  C 29.55729166666667 8.666666666666668  29.70703125 8.72470238095238  29.82421875 8.840773809523808  Z " stroke-width="0" stroke-dasharray="0" stroke="rgba(255, 255, 255, 0)" fill="none" transform="matrix(1 0 0 1 170 349 )" class="stroke" mask="url(#Clip348)" />
  </g>
</svg>