<?xml version="1.0" encoding="utf-8"?>
<svg version="1.1" xmlns:xlink="http://www.w3.org/1999/xlink" width="30px" height="26px" xmlns="http://www.w3.org/2000/svg">
  <defs>
    <pattern id="BGPattern" patternUnits="userSpaceOnUse" alignment="0 0" imageRepeat="None" />
    <mask fill="white" id="Clip349">
      <path d="M 20.474330357142858 14.57421875  C 20.67522321428571 14.969184027777775  20.99330357142857 15.166666666666664  21.42857142857143 15.166666666666664  L 26.53459821428571 15.166666666666664  C 26.478794642857146 15.234375  26.422991071428577 15.293619791666664  26.3671875 15.344401041666664  C 26.31138392857143 15.395182291666664  26.261160714285715 15.4375  26.216517857142858 15.471354166666664  L 26.166294642857142 15.5390625  L 15.736607142857142 25.6953125  C 15.535714285714286 25.8984375  15.290178571428573 26  15 26  C 14.709821428571429 26  14.464285714285715 25.8984375  14.263392857142856 25.6953125  L 3.8169642857142856 15.505208333333336  C 3.7611607142857144 15.48263888888889  3.643973214285715 15.369791666666664  3.465401785714286 15.166666666666664  L 9.642857142857144 15.166666666666664  C 9.88839285714286 15.166666666666664  10.108816964285715 15.090494791666664  10.304129464285715 14.938151041666664  C 10.499441964285715 14.785807291666664  10.625 14.591145833333336  10.680803571428571 14.354166666666664  L 11.852678571428571 9.59765625  L 15.033482142857142 20.888020833333332  C 15.100446428571429 21.11371527777778  15.228794642857144 21.299913194444443  15.418526785714286 21.446614583333332  C 15.60825892857143 21.59331597222222  15.82589285714286 21.666666666666668  16.07142857142857 21.666666666666668  C 16.305803571428573 21.666666666666668  16.517857142857146 21.59331597222222  16.70758928571429 21.446614583333332  C 16.89732142857143 21.299913194444443  17.025669642857142 21.11371527777778  17.09263392857143 20.888020833333332  L 19.536830357142858 12.678385416666668  L 20.474330357142858 14.57421875  Z M 27.87388392857143 2.098958333333332  C 29.291294642857146 3.4982638888888875  30 5.43923611111111  30 7.921875  C 30 9.55815972222222  29.425223214285715 11.250868055555552  28.275669642857142 13  L 22.09821428571429 13  L 20.239955357142858 9.259114583333332  C 20.150669642857146 9.067274305555555  20.008370535714285 8.914930555555555  19.81305803571429 8.802083333333332  C 19.61774553571429 8.68923611111111  19.414062500000004 8.64409722222222  19.20200892857143 8.666666666666668  C 18.69977678571429 8.723090277777777  18.38727678571429 8.982638888888888  18.26450892857143 9.4453125  L 16.10491071428571 16.723958333333336  L 12.823660714285715 5.111979166666668  C 12.756696428571429 4.88628472222222  12.625558035714288 4.700086805555552  12.430245535714285 4.553385416666668  C 12.234933035714286 4.406684027777778  12.014508928571429 4.333333333333332  11.768973214285715 4.333333333333332  C 11.523437500000002 4.333333333333332  11.305803571428573 4.409505208333332  11.116071428571429 4.561848958333332  C 10.926339285714288 4.714192708333332  10.803571428571429 4.908854166666668  10.747767857142856 5.145833333333332  L 8.805803571428571 13  L 1.724330357142857 13  C 0.5747767857142857 11.250868055555552  0 9.55815972222222  0 7.921875  C 0 5.43923611111111  0.708705357142857 3.4982638888888875  2.126116071428571 2.098958333333332  C 3.543526785714286 0.6996527777777775  5.502232142857142 0  8.002232142857144 0  C 8.694196428571429 0  9.400111607142856 0.12131076388888729  10.119977678571429 0.36393229166666763  C 10.83984375 0.6065538194444422  11.509486607142856 0.9338107638888873  12.12890625 1.345703125  C 12.748325892857146 1.7575954861111098  13.281250000000004 2.1440972222222197  13.727678571428571 2.505208333333332  C 14.174107142857144 2.866319444444442  14.598214285714285 3.25  15 3.65625  C 15.401785714285714 3.25  15.82589285714286 2.866319444444442  16.27232142857143 2.505208333333332  C 16.718750000000004 2.1440972222222197  17.251674107142858 1.7575954861111098  17.87109375 1.345703125  C 18.490513392857142 0.9338107638888873  19.16015625 0.6065538194444422  19.88002232142857 0.36393229166666763  C 20.599888392857142 0.12131076388888729  21.305803571428573 0  21.997767857142858 0  C 24.497767857142858 0  26.45647321428572 0.6996527777777775  27.87388392857143 2.098958333333332  Z " fill-rule="evenodd" />
    </mask>
  </defs>
  <g transform="matrix(1 0 0 1 -245 -349 )">
    <path d="M 20.474330357142858 14.57421875  C 20.67522321428571 14.969184027777775  20.99330357142857 15.166666666666664  21.42857142857143 15.166666666666664  L 26.53459821428571 15.166666666666664  C 26.478794642857146 15.234375  26.422991071428577 15.293619791666664  26.3671875 15.344401041666664  C 26.31138392857143 15.395182291666664  26.261160714285715 15.4375  26.216517857142858 15.471354166666664  L 26.166294642857142 15.5390625  L 15.736607142857142 25.6953125  C 15.535714285714286 25.8984375  15.290178571428573 26  15 26  C 14.709821428571429 26  14.464285714285715 25.8984375  14.263392857142856 25.6953125  L 3.8169642857142856 15.505208333333336  C 3.7611607142857144 15.48263888888889  3.643973214285715 15.369791666666664  3.465401785714286 15.166666666666664  L 9.642857142857144 15.166666666666664  C 9.88839285714286 15.166666666666664  10.108816964285715 15.090494791666664  10.304129464285715 14.938151041666664  C 10.499441964285715 14.785807291666664  10.625 14.591145833333336  10.680803571428571 14.354166666666664  L 11.852678571428571 9.59765625  L 15.033482142857142 20.888020833333332  C 15.100446428571429 21.11371527777778  15.228794642857144 21.299913194444443  15.418526785714286 21.446614583333332  C 15.60825892857143 21.59331597222222  15.82589285714286 21.666666666666668  16.07142857142857 21.666666666666668  C 16.305803571428573 21.666666666666668  16.517857142857146 21.59331597222222  16.70758928571429 21.446614583333332  C 16.89732142857143 21.299913194444443  17.025669642857142 21.11371527777778  17.09263392857143 20.888020833333332  L 19.536830357142858 12.678385416666668  L 20.474330357142858 14.57421875  Z M 27.87388392857143 2.098958333333332  C 29.291294642857146 3.4982638888888875  30 5.43923611111111  30 7.921875  C 30 9.55815972222222  29.425223214285715 11.250868055555552  28.275669642857142 13  L 22.09821428571429 13  L 20.239955357142858 9.259114583333332  C 20.150669642857146 9.067274305555555  20.008370535714285 8.914930555555555  19.81305803571429 8.802083333333332  C 19.61774553571429 8.68923611111111  19.414062500000004 8.64409722222222  19.20200892857143 8.666666666666668  C 18.69977678571429 8.723090277777777  18.38727678571429 8.982638888888888  18.26450892857143 9.4453125  L 16.10491071428571 16.723958333333336  L 12.823660714285715 5.111979166666668  C 12.756696428571429 4.88628472222222  12.625558035714288 4.700086805555552  12.430245535714285 4.553385416666668  C 12.234933035714286 4.406684027777778  12.014508928571429 4.333333333333332  11.768973214285715 4.333333333333332  C 11.523437500000002 4.333333333333332  11.305803571428573 4.409505208333332  11.116071428571429 4.561848958333332  C 10.926339285714288 4.714192708333332  10.803571428571429 4.908854166666668  10.747767857142856 5.145833333333332  L 8.805803571428571 13  L 1.724330357142857 13  C 0.5747767857142857 11.250868055555552  0 9.55815972222222  0 7.921875  C 0 5.43923611111111  0.708705357142857 3.4982638888888875  2.126116071428571 2.098958333333332  C 3.543526785714286 0.6996527777777775  5.502232142857142 0  8.002232142857144 0  C 8.694196428571429 0  9.400111607142856 0.12131076388888729  10.119977678571429 0.36393229166666763  C 10.83984375 0.6065538194444422  11.509486607142856 0.9338107638888873  12.12890625 1.345703125  C 12.748325892857146 1.7575954861111098  13.281250000000004 2.1440972222222197  13.727678571428571 2.505208333333332  C 14.174107142857144 2.866319444444442  14.598214285714285 3.25  15 3.65625  C 15.401785714285714 3.25  15.82589285714286 2.866319444444442  16.27232142857143 2.505208333333332  C 16.718750000000004 2.1440972222222197  17.251674107142858 1.7575954861111098  17.87109375 1.345703125  C 18.490513392857142 0.9338107638888873  19.16015625 0.6065538194444422  19.88002232142857 0.36393229166666763  C 20.599888392857142 0.12131076388888729  21.305803571428573 0  21.997767857142858 0  C 24.497767857142858 0  26.45647321428572 0.6996527777777775  27.87388392857143 2.098958333333332  Z " fill-rule="nonzero" fill="rgba(255, 255, 255, 1)" stroke="none" transform="matrix(1 0 0 1 245 349 )" class="fill" />
    <path d="M 20.474330357142858 14.57421875  C 20.67522321428571 14.969184027777775  20.99330357142857 15.166666666666664  21.42857142857143 15.166666666666664  L 26.53459821428571 15.166666666666664  C 26.478794642857146 15.234375  26.422991071428577 15.293619791666664  26.3671875 15.344401041666664  C 26.31138392857143 15.395182291666664  26.261160714285715 15.4375  26.216517857142858 15.471354166666664  L 26.166294642857142 15.5390625  L 15.736607142857142 25.6953125  C 15.535714285714286 25.8984375  15.290178571428573 26  15 26  C 14.709821428571429 26  14.464285714285715 25.8984375  14.263392857142856 25.6953125  L 3.8169642857142856 15.505208333333336  C 3.7611607142857144 15.48263888888889  3.643973214285715 15.369791666666664  3.465401785714286 15.166666666666664  L 9.642857142857144 15.166666666666664  C 9.88839285714286 15.166666666666664  10.108816964285715 15.090494791666664  10.304129464285715 14.938151041666664  C 10.499441964285715 14.785807291666664  10.625 14.591145833333336  10.680803571428571 14.354166666666664  L 11.852678571428571 9.59765625  L 15.033482142857142 20.888020833333332  C 15.100446428571429 21.11371527777778  15.228794642857144 21.299913194444443  15.418526785714286 21.446614583333332  C 15.60825892857143 21.59331597222222  15.82589285714286 21.666666666666668  16.07142857142857 21.666666666666668  C 16.305803571428573 21.666666666666668  16.517857142857146 21.59331597222222  16.70758928571429 21.446614583333332  C 16.89732142857143 21.299913194444443  17.025669642857142 21.11371527777778  17.09263392857143 20.888020833333332  L 19.536830357142858 12.678385416666668  L 20.474330357142858 14.57421875  Z " stroke-width="0" stroke-dasharray="0" stroke="rgba(255, 255, 255, 0)" fill="none" transform="matrix(1 0 0 1 245 349 )" class="stroke" mask="url(#Clip349)" />
    <path d="M 27.87388392857143 2.098958333333332  C 29.291294642857146 3.4982638888888875  30 5.43923611111111  30 7.921875  C 30 9.55815972222222  29.425223214285715 11.250868055555552  28.275669642857142 13  L 22.09821428571429 13  L 20.239955357142858 9.259114583333332  C 20.150669642857146 9.067274305555555  20.008370535714285 8.914930555555555  19.81305803571429 8.802083333333332  C 19.61774553571429 8.68923611111111  19.414062500000004 8.64409722222222  19.20200892857143 8.666666666666668  C 18.69977678571429 8.723090277777777  18.38727678571429 8.982638888888888  18.26450892857143 9.4453125  L 16.10491071428571 16.723958333333336  L 12.823660714285715 5.111979166666668  C 12.756696428571429 4.88628472222222  12.625558035714288 4.700086805555552  12.430245535714285 4.553385416666668  C 12.234933035714286 4.406684027777778  12.014508928571429 4.333333333333332  11.768973214285715 4.333333333333332  C 11.523437500000002 4.333333333333332  11.305803571428573 4.409505208333332  11.116071428571429 4.561848958333332  C 10.926339285714288 4.714192708333332  10.803571428571429 4.908854166666668  10.747767857142856 5.145833333333332  L 8.805803571428571 13  L 1.724330357142857 13  C 0.5747767857142857 11.250868055555552  0 9.55815972222222  0 7.921875  C 0 5.43923611111111  0.708705357142857 3.4982638888888875  2.126116071428571 2.098958333333332  C 3.543526785714286 0.6996527777777775  5.502232142857142 0  8.002232142857144 0  C 8.694196428571429 0  9.400111607142856 0.12131076388888729  10.119977678571429 0.36393229166666763  C 10.83984375 0.6065538194444422  11.509486607142856 0.9338107638888873  12.12890625 1.345703125  C 12.748325892857146 1.7575954861111098  13.281250000000004 2.1440972222222197  13.727678571428571 2.505208333333332  C 14.174107142857144 2.866319444444442  14.598214285714285 3.25  15 3.65625  C 15.401785714285714 3.25  15.82589285714286 2.866319444444442  16.27232142857143 2.505208333333332  C 16.718750000000004 2.1440972222222197  17.251674107142858 1.7575954861111098  17.87109375 1.345703125  C 18.490513392857142 0.9338107638888873  19.16015625 0.6065538194444422  19.88002232142857 0.36393229166666763  C 20.599888392857142 0.12131076388888729  21.305803571428573 0  21.997767857142858 0  C 24.497767857142858 0  26.45647321428572 0.6996527777777775  27.87388392857143 2.098958333333332  Z " stroke-width="0" stroke-dasharray="0" stroke="rgba(255, 255, 255, 0)" fill="none" transform="matrix(1 0 0 1 245 349 )" class="stroke" mask="url(#Clip349)" />
  </g>
</svg>