<?xml version="1.0" encoding="utf-8"?>
<svg version="1.1" xmlns:xlink="http://www.w3.org/1999/xlink" width="10px" height="10px" xmlns="http://www.w3.org/2000/svg">
  <defs>
    <pattern id="BGPattern" patternUnits="userSpaceOnUse" alignment="0 0" imageRepeat="None" />
    <mask fill="white" id="Clip74">
      <path d="M 9.449869791666666 0.5501302083333337  C 9.81662326388889 0.9168836805555547  10 1.358506944444443  10 1.875  L 10 8.125  C 10 8.641493055555555  9.81662326388889 9.083116319444445  9.449869791666666 9.449869791666666  C 9.083116319444445 9.81662326388889  8.641493055555557 10  8.125 10  L 1.875 10  C 1.3585069444444444 10  0.9168836805555557 9.81662326388889  0.5501302083333334 9.449869791666666  C 0.18337673611111108 9.083116319444445  0 8.641493055555555  0 8.125  L 0 1.875  C 0 1.358506944444443  0.18337673611111108 0.9168836805555547  0.5501302083333334 0.5501302083333337  C 0.9168836805555557 0.1833767361111105  1.3585069444444444 0  1.875 0  L 8.125 0  C 8.641493055555557 0  9.083116319444445 0.1833767361111105  9.449869791666666 0.5501302083333337  Z " fill-rule="evenodd" />
    </mask>
  </defs>
  <g transform="matrix(1 0 0 1 -323 -350 )">
    <path d="M 9.449869791666666 0.5501302083333337  C 9.81662326388889 0.9168836805555547  10 1.358506944444443  10 1.875  L 10 8.125  C 10 8.641493055555555  9.81662326388889 9.083116319444445  9.449869791666666 9.449869791666666  C 9.083116319444445 9.81662326388889  8.641493055555557 10  8.125 10  L 1.875 10  C 1.3585069444444444 10  0.9168836805555557 9.81662326388889  0.5501302083333334 9.449869791666666  C 0.18337673611111108 9.083116319444445  0 8.641493055555555  0 8.125  L 0 1.875  C 0 1.358506944444443  0.18337673611111108 0.9168836805555547  0.5501302083333334 0.5501302083333337  C 0.9168836805555557 0.1833767361111105  1.3585069444444444 0  1.875 0  L 8.125 0  C 8.641493055555557 0  9.083116319444445 0.1833767361111105  9.449869791666666 0.5501302083333337  Z " fill-rule="nonzero" fill="rgba(255, 255, 255, 1)" stroke="none" transform="matrix(1 0 0 1 323 350 )" class="fill" />
    <path d="M 9.449869791666666 0.5501302083333337  C 9.81662326388889 0.9168836805555547  10 1.358506944444443  10 1.875  L 10 8.125  C 10 8.641493055555555  9.81662326388889 9.083116319444445  9.449869791666666 9.449869791666666  C 9.083116319444445 9.81662326388889  8.641493055555557 10  8.125 10  L 1.875 10  C 1.3585069444444444 10  0.9168836805555557 9.81662326388889  0.5501302083333334 9.449869791666666  C 0.18337673611111108 9.083116319444445  0 8.641493055555555  0 8.125  L 0 1.875  C 0 1.358506944444443  0.18337673611111108 0.9168836805555547  0.5501302083333334 0.5501302083333337  C 0.9168836805555557 0.1833767361111105  1.3585069444444444 0  1.875 0  L 8.125 0  C 8.641493055555557 0  9.083116319444445 0.1833767361111105  9.449869791666666 0.5501302083333337  Z " stroke-width="0" stroke-dasharray="0" stroke="rgba(255, 255, 255, 0)" fill="none" transform="matrix(1 0 0 1 323 350 )" class="stroke" mask="url(#Clip74)" />
  </g>
</svg>