<?xml version="1.0" encoding="utf-8"?>
<svg version="1.1" xmlns:xlink="http://www.w3.org/1999/xlink" width="133px" height="40px" xmlns="http://www.w3.org/2000/svg">
  <defs>
    <linearGradient gradientUnits="userSpaceOnUse" x1="0" y1="20" x2="133" y2="20" id="LinearGradient83">
      <stop id="Stop84" stop-color="#94e080" offset="0" />
      <stop id="Stop85" stop-color="#06b3a6" offset="1" />
    </linearGradient>
    <pattern id="BGPattern" patternUnits="userSpaceOnUse" alignment="0 0" imageRepeat="None" />
    <mask fill="white" id="Clip86">
      <path d="M 0 30  L 0 10  C 0 4.3999999999999995  4.3999999999999995 0  10 0  L 123 0  C 128.6 0  133 4.3999999999999995  133 10  L 133 30  C 133 35.6  128.6 40  123 40  L 10 40  C 4.3999999999999995 40  0 35.6  0 30  Z " fill-rule="evenodd" />
    </mask>
  </defs>
  <g transform="matrix(1 0 0 1 -227 -269 )">
    <path d="M 0 30  L 0 10  C 0 4.3999999999999995  4.3999999999999995 0  10 0  L 123 0  C 128.6 0  133 4.3999999999999995  133 10  L 133 30  C 133 35.6  128.6 40  123 40  L 10 40  C 4.3999999999999995 40  0 35.6  0 30  Z " fill-rule="nonzero" fill="url(#LinearGradient83)" stroke="none" transform="matrix(1 0 0 1 227 269 )" class="fill" />
    <path d="M 0 30  L 0 10  C 0 4.3999999999999995  4.3999999999999995 0  10 0  L 123 0  C 128.6 0  133 4.3999999999999995  133 10  L 133 30  C 133 35.6  128.6 40  123 40  L 10 40  C 4.3999999999999995 40  0 35.6  0 30  Z " stroke-width="2" stroke-dasharray="0" stroke="rgba(255, 255, 255, 0)" fill="none" transform="matrix(1 0 0 1 227 269 )" class="stroke" mask="url(#Clip86)" />
  </g>
</svg>