<?xml version="1.0" encoding="utf-8"?>
<svg version="1.1" xmlns:xlink="http://www.w3.org/1999/xlink" width="360px" height="164px" xmlns="http://www.w3.org/2000/svg">
  <defs>
    <pattern id="BGPattern" patternUnits="userSpaceOnUse" alignment="0 0" imageRepeat="None" />
    <mask fill="white" id="Clip782">
      <path d="M 0 154  L 0 10  C 0 4.3999999999999995  4.399999999999999 0  10 0  L 350 0  C 355.59999999999997 0  360 4.3999999999999995  360 10  L 360 154  C 360 159.6  355.59999999999997 164  350 164  L 10 164  C 4.399999999999999 164  0 159.6  0 154  Z " fill-rule="evenodd" />
    </mask>
  </defs>
  <g transform="matrix(1 0 0 1 -7 -72 )">
    <path d="M 0 154  L 0 10  C 0 4.3999999999999995  4.399999999999999 0  10 0  L 350 0  C 355.59999999999997 0  360 4.3999999999999995  360 10  L 360 154  C 360 159.6  355.59999999999997 164  350 164  L 10 164  C 4.399999999999999 164  0 159.6  0 154  Z " fill-rule="nonzero" fill="rgba(255, 255, 255, 1)" stroke="none" transform="matrix(1 0 0 1 7 72 )" class="fill" />
    <path d="M 0 154  L 0 10  C 0 4.3999999999999995  4.399999999999999 0  10 0  L 350 0  C 355.59999999999997 0  360 4.3999999999999995  360 10  L 360 154  C 360 159.6  355.59999999999997 164  350 164  L 10 164  C 4.399999999999999 164  0 159.6  0 154  Z " stroke-width="2" stroke-dasharray="0" stroke="rgba(255, 255, 255, 0)" fill="none" transform="matrix(1 0 0 1 7 72 )" class="stroke" mask="url(#Clip782)" />
  </g>
</svg>