<?xml version="1.0" encoding="utf-8"?>
<svg version="1.1" xmlns:xlink="http://www.w3.org/1999/xlink" width="105px" height="105px" xmlns="http://www.w3.org/2000/svg">
  <defs>
    <mask fill="white" id="Clip498">
      <path d="M 52 190  C 46.45 190  42 185.55  42 180  L 42 95  C 42 89.45  46.45 85  52 85  L 137 85  C 142.55 85  147 89.45  147 95  L 147 180  C 147 185.55  142.55 190  137 190  " fill-rule="evenodd" />
    </mask>
  </defs>
  <g transform="matrix(1 0 0 1 -42 -85 )">
    <path d="M 42 85  L 147 85  L 147 190  L 42 190  L 42 85  " fill-rule="nonzero" fill="rgba(204, 204, 204, 1)" stroke="none" class="fill" mask="url(#Clip498)" />
    <path d="M 49 92  L 140 92  L 140 183  L 49 183  L 49 92  " fill-rule="nonzero" fill="rgba(255, 255, 255, 1)" stroke="none" class="fill" mask="url(#Clip498)" />
    <path d="M 104.475 116.5  C 100.065 116.5  96.6 113.035  96.6 108.625  C 96.6 104.215  100.065 100.75  104.475 100.75  C 108.88499999999999 100.75  112.35 104.215  112.35 108.625  C 112.35 113.035  108.88499999999999 116.5  104.475 116.5  " fill-rule="nonzero" fill="rgba(204, 204, 204, 1)" stroke="none" class="fill" mask="url(#Clip498)" />
    <path d="M 52 181  L 52 133.7  L 73.5 112.2  L 103.6 129.4  L 120.8 125.1  L 138 129.4  L 138 181  L 52 181  " fill-rule="nonzero" fill="rgba(22, 155, 213, 1)" stroke="none" class="fill" mask="url(#Clip498)" />
  </g>
</svg>