<?xml version="1.0" encoding="utf-8"?>
<svg version="1.1" xmlns:xlink="http://www.w3.org/1999/xlink" width="100px" height="40px" xmlns="http://www.w3.org/2000/svg">
  <defs>
    <linearGradient gradientUnits="userSpaceOnUse" x1="0" y1="20" x2="100" y2="20" id="LinearGradient131">
      <stop id="Stop132" stop-color="#94e080" offset="0" />
      <stop id="Stop133" stop-color="#06b3a6" offset="1" />
    </linearGradient>
    <pattern id="BGPattern" patternUnits="userSpaceOnUse" alignment="0 0" imageRepeat="None" />
    <mask fill="white" id="Clip134">
      <path d="M 0 30  L 0 10  C 0 4.3999999999999995  4.3999999999999995 0  10 0  L 90 0  C 95.6 0  100 4.3999999999999995  100 10  L 100 30  C 100 35.6  95.6 40  90 40  L 10 40  C 4.3999999999999995 40  0 35.6  0 30  Z " fill-rule="evenodd" />
    </mask>
  </defs>
  <g transform="matrix(1 0 0 1 -250 -9 )">
    <path d="M 0 30  L 0 10  C 0 4.3999999999999995  4.3999999999999995 0  10 0  L 90 0  C 95.6 0  100 4.3999999999999995  100 10  L 100 30  C 100 35.6  95.6 40  90 40  L 10 40  C 4.3999999999999995 40  0 35.6  0 30  Z " fill-rule="nonzero" fill="url(#LinearGradient131)" stroke="none" transform="matrix(1 0 0 1 250 9 )" class="fill" />
    <path d="M 0 30  L 0 10  C 0 4.3999999999999995  4.3999999999999995 0  10 0  L 90 0  C 95.6 0  100 4.3999999999999995  100 10  L 100 30  C 100 35.6  95.6 40  90 40  L 10 40  C 4.3999999999999995 40  0 35.6  0 30  Z " stroke-width="2" stroke-dasharray="0" stroke="rgba(255, 255, 255, 0)" fill="none" transform="matrix(1 0 0 1 250 9 )" class="stroke" mask="url(#Clip134)" />
  </g>
</svg>