<?xml version="1.0" encoding="utf-8"?>
<svg version="1.1" xmlns:xlink="http://www.w3.org/1999/xlink" width="26px" height="26px" xmlns="http://www.w3.org/2000/svg">
  <defs>
    <pattern id="BGPattern" patternUnits="userSpaceOnUse" alignment="0 0" imageRepeat="None" />
    <mask fill="white" id="Clip128">
      <path d="M 0 22  L 0 4  C 0 1.76  1.76 0  4 0  L 22 0  C 24.24 0  26 1.76  26 4  L 26 22  C 26 24.24  24.24 26  22 26  L 4 26  C 1.76 26  0 24.24  0 22  Z " fill-rule="evenodd" />
    </mask>
  </defs>
  <g transform="matrix(1 0 0 1 -292 -95 )">
    <path d="M 0 22  L 0 4  C 0 1.76  1.76 0  4 0  L 22 0  C 24.24 0  26 1.76  26 4  L 26 22  C 26 24.24  24.24 26  22 26  L 4 26  C 1.76 26  0 24.24  0 22  Z " fill-rule="nonzero" fill="rgba(242, 242, 242, 1)" stroke="none" transform="matrix(1 0 0 1 292 95 )" class="fill" />
    <path d="M 0 22  L 0 4  C 0 1.76  1.76 0  4 0  L 22 0  C 24.24 0  26 1.76  26 4  L 26 22  C 26 24.24  24.24 26  22 26  L 4 26  C 1.76 26  0 24.24  0 22  Z " stroke-width="2" stroke-dasharray="0" stroke="rgba(255, 255, 255, 0)" fill="none" transform="matrix(1 0 0 1 292 95 )" class="stroke" mask="url(#Clip128)" />
  </g>
</svg>