<?xml version="1.0" encoding="utf-8"?>
<svg version="1.1" xmlns:xlink="http://www.w3.org/1999/xlink" width="29px" height="30px" xmlns="http://www.w3.org/2000/svg">
  <defs>
    <pattern id="BGPattern" patternUnits="userSpaceOnUse" alignment="0 0" imageRepeat="None" />
    <mask fill="white" id="Clip485">
      <path d="M 28.674968866749687 0.38762019230769384  C 28.89165628891656 0.5498798076923062  29 0.7692307692307665  29 1.0456730769230782  C 29 1.466346153846152  28.74117891241179 1.935096153846152  28.223536737235367 2.4519230769230784  L 16.811332503113324 13.846153846153847  L 16.811332503113324 27.692307692307693  L 22.589663760896638 27.692307692307693  C 22.90265670402657 27.692307692307693  23.173515981735164 27.806490384615383  23.402241594022417 28.03485576923077  C 23.630967206309673 28.263221153846153  23.7453300124533 28.533653846153847  23.7453300124533 28.846153846153847  C 23.7453300124533 29.158653846153847  23.630967206309673 29.429086538461537  23.402241594022417 29.657451923076923  C 23.173515981735164 29.88581730769231  22.90265670402657 30  22.589663760896638 30  L 6.410336239103362 30  C 6.097343295973433 30  5.826484018264841 29.88581730769231  5.597758405977584 29.657451923076923  C 5.369032793690328 29.429086538461537  5.2546699875467 29.158653846153847  5.2546699875467 28.846153846153847  C 5.2546699875467 28.533653846153847  5.369032793690328 28.263221153846153  5.597758405977584 28.03485576923077  C 5.826484018264841 27.806490384615383  6.097343295973433 27.692307692307693  6.410336239103362 27.692307692307693  L 12.188667496886675 27.692307692307693  L 12.188667496886675 13.846153846153847  L 0.7764632627646326 2.4519230769230784  C 0.2588210875882111 1.935096153846152  0 1.466346153846152  0 1.0456730769230782  C 0 0.7692307692307665  0.10834371108343711 0.5498798076923062  0.3250311332503113 0.38762019230769384  C 0.5417185554171858 0.2253605769230782  0.770444167704442 0.12019230769230393  1.0112079701120797 0.07211538461538436  C 1.251971772519718 0.024038461538461453  1.510792860107929 0  1.7876712328767121 0  L 27.21232876712329 0  C 27.489207139892073 0  27.74802822748029 0.024038461538461453  27.988792029887918 0.07211538461538436  C 28.22955583229556 0.12019230769230393  28.458281444582816 0.2253605769230782  28.674968866749687 0.38762019230769384  Z " fill-rule="evenodd" />
    </mask>
  </defs>
  <g transform="matrix(1 0 0 1 -96 -15 )">
    <path d="M 28.674968866749687 0.38762019230769384  C 28.89165628891656 0.5498798076923062  29 0.7692307692307665  29 1.0456730769230782  C 29 1.466346153846152  28.74117891241179 1.935096153846152  28.223536737235367 2.4519230769230784  L 16.811332503113324 13.846153846153847  L 16.811332503113324 27.692307692307693  L 22.589663760896638 27.692307692307693  C 22.90265670402657 27.692307692307693  23.173515981735164 27.806490384615383  23.402241594022417 28.03485576923077  C 23.630967206309673 28.263221153846153  23.7453300124533 28.533653846153847  23.7453300124533 28.846153846153847  C 23.7453300124533 29.158653846153847  23.630967206309673 29.429086538461537  23.402241594022417 29.657451923076923  C 23.173515981735164 29.88581730769231  22.90265670402657 30  22.589663760896638 30  L 6.410336239103362 30  C 6.097343295973433 30  5.826484018264841 29.88581730769231  5.597758405977584 29.657451923076923  C 5.369032793690328 29.429086538461537  5.2546699875467 29.158653846153847  5.2546699875467 28.846153846153847  C 5.2546699875467 28.533653846153847  5.369032793690328 28.263221153846153  5.597758405977584 28.03485576923077  C 5.826484018264841 27.806490384615383  6.097343295973433 27.692307692307693  6.410336239103362 27.692307692307693  L 12.188667496886675 27.692307692307693  L 12.188667496886675 13.846153846153847  L 0.7764632627646326 2.4519230769230784  C 0.2588210875882111 1.935096153846152  0 1.466346153846152  0 1.0456730769230782  C 0 0.7692307692307665  0.10834371108343711 0.5498798076923062  0.3250311332503113 0.38762019230769384  C 0.5417185554171858 0.2253605769230782  0.770444167704442 0.12019230769230393  1.0112079701120797 0.07211538461538436  C 1.251971772519718 0.024038461538461453  1.510792860107929 0  1.7876712328767121 0  L 27.21232876712329 0  C 27.489207139892073 0  27.74802822748029 0.024038461538461453  27.988792029887918 0.07211538461538436  C 28.22955583229556 0.12019230769230393  28.458281444582816 0.2253605769230782  28.674968866749687 0.38762019230769384  Z " fill-rule="nonzero" fill="rgba(76, 175, 80, 1)" stroke="none" transform="matrix(1 0 0 1 96 15 )" class="fill" />
    <path d="M 28.674968866749687 0.38762019230769384  C 28.89165628891656 0.5498798076923062  29 0.7692307692307665  29 1.0456730769230782  C 29 1.466346153846152  28.74117891241179 1.935096153846152  28.223536737235367 2.4519230769230784  L 16.811332503113324 13.846153846153847  L 16.811332503113324 27.692307692307693  L 22.589663760896638 27.692307692307693  C 22.90265670402657 27.692307692307693  23.173515981735164 27.806490384615383  23.402241594022417 28.03485576923077  C 23.630967206309673 28.263221153846153  23.7453300124533 28.533653846153847  23.7453300124533 28.846153846153847  C 23.7453300124533 29.158653846153847  23.630967206309673 29.429086538461537  23.402241594022417 29.657451923076923  C 23.173515981735164 29.88581730769231  22.90265670402657 30  22.589663760896638 30  L 6.410336239103362 30  C 6.097343295973433 30  5.826484018264841 29.88581730769231  5.597758405977584 29.657451923076923  C 5.369032793690328 29.429086538461537  5.2546699875467 29.158653846153847  5.2546699875467 28.846153846153847  C 5.2546699875467 28.533653846153847  5.369032793690328 28.263221153846153  5.597758405977584 28.03485576923077  C 5.826484018264841 27.806490384615383  6.097343295973433 27.692307692307693  6.410336239103362 27.692307692307693  L 12.188667496886675 27.692307692307693  L 12.188667496886675 13.846153846153847  L 0.7764632627646326 2.4519230769230784  C 0.2588210875882111 1.935096153846152  0 1.466346153846152  0 1.0456730769230782  C 0 0.7692307692307665  0.10834371108343711 0.5498798076923062  0.3250311332503113 0.38762019230769384  C 0.5417185554171858 0.2253605769230782  0.770444167704442 0.12019230769230393  1.0112079701120797 0.07211538461538436  C 1.251971772519718 0.024038461538461453  1.510792860107929 0  1.7876712328767121 0  L 27.21232876712329 0  C 27.489207139892073 0  27.74802822748029 0.024038461538461453  27.988792029887918 0.07211538461538436  C 28.22955583229556 0.12019230769230393  28.458281444582816 0.2253605769230782  28.674968866749687 0.38762019230769384  Z " stroke-width="0" stroke-dasharray="0" stroke="rgba(255, 255, 255, 0)" fill="none" transform="matrix(1 0 0 1 96 15 )" class="stroke" mask="url(#Clip485)" />
  </g>
</svg>