<?xml version="1.0" encoding="utf-8"?>
<svg version="1.1" xmlns:xlink="http://www.w3.org/1999/xlink" width="30px" height="26px" xmlns="http://www.w3.org/2000/svg">
  <defs>
    <pattern id="BGPattern" patternUnits="userSpaceOnUse" alignment="0 0" imageRepeat="None" />
    <mask fill="white" id="Clip118">
      <path d="M 10.714285714285715 2.166666666666668  L 10.714285714285715 4.333333333333332  L 19.28571428571429 4.333333333333332  L 19.28571428571429 2.166666666666668  L 10.714285714285715 2.166666666666668  Z M 18.75 15  L 30 15  L 30 23.291666666666668  C 30 24.036458333333332  29.73772321428572 24.67404513888889  29.213169642857142 25.204427083333332  C 28.688616071428577 25.73480902777778  28.05803571428572 26  27.32142857142857 26  L 2.678571428571429 26  C 1.9419642857142858 26  1.3113839285714286 25.73480902777778  0.7868303571428572 25.204427083333332  C 0.2622767857142857 24.67404513888889  0 24.036458333333332  0 23.291666666666668  L 0 15  L 11.25 15  L 11.25 17.875  C 11.25 18.168402777777775  11.356026785714286 18.422309027777775  11.568080357142856 18.63671875  C 11.780133928571429 18.85112847222222  12.03125 18.958333333333336  12.321428571428571 18.958333333333336  L 17.67857142857143 18.958333333333336  C 17.96875 18.958333333333336  18.219866071428577 18.85112847222222  18.431919642857142 18.63671875  C 18.643973214285715 18.422309027777775  18.75 18.168402777777775  18.75 17.875  L 18.75 15  Z M 12.857142857142856 15.166666666666664  L 17.142857142857142 15.166666666666664  L 17.142857142857142 17.333333333333336  L 12.857142857142856 17.333333333333336  L 12.857142857142856 15.166666666666664  Z M 29.213169642857142 5.12890625  C 29.73772321428572 5.659288194444442  30 6.296875  30 7.041666666666668  L 30 13.541666666666664  L 0 13.541666666666664  L 0 7.041666666666668  C 0 6.296875  0.2622767857142857 5.659288194444442  0.7868303571428572 5.12890625  C 1.3113839285714286 4.598524305555552  1.9419642857142858 4.333333333333332  2.678571428571429 4.333333333333332  L 8.571428571428571 4.333333333333332  L 8.571428571428571 1.625  C 8.571428571428571 1.1736111111111098  8.727678571428573 0.789930555555552  9.040178571428571 0.47395833333333237  C 9.352678571428573 0.15798611111111271  9.732142857142858 0  10.178571428571429 0  L 19.82142857142857 0  C 20.267857142857146 0  20.64732142857143 0.15798611111111271  20.95982142857143 0.47395833333333237  C 21.27232142857143 0.789930555555552  21.42857142857143 1.1736111111111098  21.42857142857143 1.625  L 21.42857142857143 4.333333333333332  L 27.32142857142857 4.333333333333332  C 28.05803571428572 4.333333333333332  28.688616071428577 4.598524305555552  29.213169642857142 5.12890625  Z " fill-rule="evenodd" />
    </mask>
  </defs>
  <g transform="matrix(1 0 0 1 -387 -17 )">
    <path d="M 10.714285714285715 2.166666666666668  L 10.714285714285715 4.333333333333332  L 19.28571428571429 4.333333333333332  L 19.28571428571429 2.166666666666668  L 10.714285714285715 2.166666666666668  Z M 18.75 15  L 30 15  L 30 23.291666666666668  C 30 24.036458333333332  29.73772321428572 24.67404513888889  29.213169642857142 25.204427083333332  C 28.688616071428577 25.73480902777778  28.05803571428572 26  27.32142857142857 26  L 2.678571428571429 26  C 1.9419642857142858 26  1.3113839285714286 25.73480902777778  0.7868303571428572 25.204427083333332  C 0.2622767857142857 24.67404513888889  0 24.036458333333332  0 23.291666666666668  L 0 15  L 11.25 15  L 11.25 17.875  C 11.25 18.168402777777775  11.356026785714286 18.422309027777775  11.568080357142856 18.63671875  C 11.780133928571429 18.85112847222222  12.03125 18.958333333333336  12.321428571428571 18.958333333333336  L 17.67857142857143 18.958333333333336  C 17.96875 18.958333333333336  18.219866071428577 18.85112847222222  18.431919642857142 18.63671875  C 18.643973214285715 18.422309027777775  18.75 18.168402777777775  18.75 17.875  L 18.75 15  Z M 12.857142857142856 15.166666666666664  L 17.142857142857142 15.166666666666664  L 17.142857142857142 17.333333333333336  L 12.857142857142856 17.333333333333336  L 12.857142857142856 15.166666666666664  Z M 29.213169642857142 5.12890625  C 29.73772321428572 5.659288194444442  30 6.296875  30 7.041666666666668  L 30 13.541666666666664  L 0 13.541666666666664  L 0 7.041666666666668  C 0 6.296875  0.2622767857142857 5.659288194444442  0.7868303571428572 5.12890625  C 1.3113839285714286 4.598524305555552  1.9419642857142858 4.333333333333332  2.678571428571429 4.333333333333332  L 8.571428571428571 4.333333333333332  L 8.571428571428571 1.625  C 8.571428571428571 1.1736111111111098  8.727678571428573 0.789930555555552  9.040178571428571 0.47395833333333237  C 9.352678571428573 0.15798611111111271  9.732142857142858 0  10.178571428571429 0  L 19.82142857142857 0  C 20.267857142857146 0  20.64732142857143 0.15798611111111271  20.95982142857143 0.47395833333333237  C 21.27232142857143 0.789930555555552  21.42857142857143 1.1736111111111098  21.42857142857143 1.625  L 21.42857142857143 4.333333333333332  L 27.32142857142857 4.333333333333332  C 28.05803571428572 4.333333333333332  28.688616071428577 4.598524305555552  29.213169642857142 5.12890625  Z " fill-rule="nonzero" fill="rgba(76, 175, 80, 1)" stroke="none" transform="matrix(1 0 0 1 387 17 )" class="fill" />
    <path d="M 10.714285714285715 2.166666666666668  L 10.714285714285715 4.333333333333332  L 19.28571428571429 4.333333333333332  L 19.28571428571429 2.166666666666668  L 10.714285714285715 2.166666666666668  Z " stroke-width="0" stroke-dasharray="0" stroke="rgba(255, 255, 255, 0)" fill="none" transform="matrix(1 0 0 1 387 17 )" class="stroke" mask="url(#Clip118)" />
    <path d="M 18.75 15  L 30 15  L 30 23.291666666666668  C 30 24.036458333333332  29.73772321428572 24.67404513888889  29.213169642857142 25.204427083333332  C 28.688616071428577 25.73480902777778  28.05803571428572 26  27.32142857142857 26  L 2.678571428571429 26  C 1.9419642857142858 26  1.3113839285714286 25.73480902777778  0.7868303571428572 25.204427083333332  C 0.2622767857142857 24.67404513888889  0 24.036458333333332  0 23.291666666666668  L 0 15  L 11.25 15  L 11.25 17.875  C 11.25 18.168402777777775  11.356026785714286 18.422309027777775  11.568080357142856 18.63671875  C 11.780133928571429 18.85112847222222  12.03125 18.958333333333336  12.321428571428571 18.958333333333336  L 17.67857142857143 18.958333333333336  C 17.96875 18.958333333333336  18.219866071428577 18.85112847222222  18.431919642857142 18.63671875  C 18.643973214285715 18.422309027777775  18.75 18.168402777777775  18.75 17.875  L 18.75 15  Z " stroke-width="0" stroke-dasharray="0" stroke="rgba(255, 255, 255, 0)" fill="none" transform="matrix(1 0 0 1 387 17 )" class="stroke" mask="url(#Clip118)" />
    <path d="M 12.857142857142856 15.166666666666664  L 17.142857142857142 15.166666666666664  L 17.142857142857142 17.333333333333336  L 12.857142857142856 17.333333333333336  L 12.857142857142856 15.166666666666664  Z " stroke-width="0" stroke-dasharray="0" stroke="rgba(255, 255, 255, 0)" fill="none" transform="matrix(1 0 0 1 387 17 )" class="stroke" mask="url(#Clip118)" />
    <path d="M 29.213169642857142 5.12890625  C 29.73772321428572 5.659288194444442  30 6.296875  30 7.041666666666668  L 30 13.541666666666664  L 0 13.541666666666664  L 0 7.041666666666668  C 0 6.296875  0.2622767857142857 5.659288194444442  0.7868303571428572 5.12890625  C 1.3113839285714286 4.598524305555552  1.9419642857142858 4.333333333333332  2.678571428571429 4.333333333333332  L 8.571428571428571 4.333333333333332  L 8.571428571428571 1.625  C 8.571428571428571 1.1736111111111098  8.727678571428573 0.789930555555552  9.040178571428571 0.47395833333333237  C 9.352678571428573 0.15798611111111271  9.732142857142858 0  10.178571428571429 0  L 19.82142857142857 0  C 20.267857142857146 0  20.64732142857143 0.15798611111111271  20.95982142857143 0.47395833333333237  C 21.27232142857143 0.789930555555552  21.42857142857143 1.1736111111111098  21.42857142857143 1.625  L 21.42857142857143 4.333333333333332  L 27.32142857142857 4.333333333333332  C 28.05803571428572 4.333333333333332  28.688616071428577 4.598524305555552  29.213169642857142 5.12890625  Z " stroke-width="0" stroke-dasharray="0" stroke="rgba(255, 255, 255, 0)" fill="none" transform="matrix(1 0 0 1 387 17 )" class="stroke" mask="url(#Clip118)" />
  </g>
</svg>