<?xml version="1.0" encoding="utf-8"?>
<svg version="1.1" xmlns:xlink="http://www.w3.org/1999/xlink" width="30px" height="30px" xmlns="http://www.w3.org/2000/svg">
  <defs>
    <pattern id="BGPattern" patternUnits="userSpaceOnUse" alignment="0 0" imageRepeat="None" />
    <mask fill="white" id="Clip121">
      <path d="M 12.036830357142856 19.285714285714285  L 10.1953125 13.660714285714286  L 15 10.178571428571429  L 19.8046875 13.660714285714286  L 17.97991071428571 19.285714285714285  L 12.036830357142856 19.285714285714285  Z M 9.174107142857144 1.188616071428571  C 11.026785714285715 0.396205357142857  12.96875 0  15 0  C 17.03125 0  18.97321428571429 0.396205357142857  20.825892857142858 1.188616071428571  C 22.67857142857143 1.981026785714285  24.27455357142857 3.046875  25.61383928571429 4.386160714285713  C 26.953125000000004 5.725446428571429  28.01897321428572 7.3214285714285685  28.81138392857143 9.174107142857142  C 29.603794642857146 11.026785714285712  30 12.968749999999998  30 15  C 30 17.031249999999996  29.603794642857146 18.973214285714285  28.81138392857143 20.825892857142858  C 28.01897321428572 22.678571428571427  26.953125000000004 24.27455357142857  25.61383928571429 25.613839285714285  C 24.27455357142857 26.953125  22.67857142857143 28.018973214285715  20.825892857142858 28.81138392857143  C 18.97321428571429 29.603794642857142  17.03125 30  15 30  C 12.96875 30  11.026785714285715 29.603794642857142  9.174107142857144 28.81138392857143  C 7.321428571428572 28.018973214285715  5.725446428571428 26.953125  4.386160714285714 25.613839285714285  C 3.046875 24.27455357142857  1.9810267857142858 22.678571428571427  1.1886160714285714 20.825892857142858  C 0.3962053571428571 18.973214285714285  0 17.031249999999996  0 15  C 0 12.968749999999998  0.3962053571428571 11.026785714285712  1.1886160714285714 9.174107142857142  C 1.9810267857142858 7.3214285714285685  3.046875 5.725446428571429  4.386160714285714 4.386160714285713  C 5.725446428571428 3.046875  7.321428571428572 1.981026785714285  9.174107142857144 1.188616071428571  Z M 24.86049107142857 20.390625  L 25.36272321428571 22.60044642857143  C 27.025669642857146 20.334821428571427  27.857142857142858 17.801339285714285  27.857142857142858 15  L 27.857142857142858 14.949776785714286  L 26.14955357142857 16.439732142857142  L 22.13169642857143 12.689732142857142  L 23.18638392857143 7.282366071428571  L 25.4296875 7.483258928571429  C 23.755580357142858 5.184151785714283  21.58482142857143 3.61049107142857  18.91741071428571 2.7622767857142874  L 19.8046875 4.838169642857142  L 15 7.5  L 10.1953125 4.838169642857142  L 11.082589285714285 2.7622767857142874  C 8.415178571428573 3.61049107142857  6.244419642857143 5.184151785714283  4.5703125 7.483258928571429  L 6.830357142857142 7.282366071428571  L 7.868303571428571 12.689732142857142  L 3.8504464285714284 16.439732142857142  L 2.142857142857143 14.949776785714286  L 2.142857142857143 15  C 2.142857142857143 17.801339285714285  2.974330357142857 20.334821428571427  4.637276785714286 22.60044642857143  L 5.139508928571428 20.390625  L 10.597098214285715 21.060267857142858  L 12.924107142857144 26.049107142857142  L 10.982142857142856 27.20424107142857  C 12.287946428571429 27.63950892857143  13.627232142857144 27.857142857142858  15 27.857142857142858  C 16.372767857142858 27.857142857142858  17.71205357142857 27.63950892857143  19.017857142857142 27.20424107142857  L 17.075892857142858 26.049107142857142  L 19.40290178571429 21.060267857142858  L 24.86049107142857 20.390625  Z " fill-rule="evenodd" />
    </mask>
  </defs>
  <g transform="matrix(1 0 0 1 -463 -17 )">
    <path d="M 12.036830357142856 19.285714285714285  L 10.1953125 13.660714285714286  L 15 10.178571428571429  L 19.8046875 13.660714285714286  L 17.97991071428571 19.285714285714285  L 12.036830357142856 19.285714285714285  Z M 9.174107142857144 1.188616071428571  C 11.026785714285715 0.396205357142857  12.96875 0  15 0  C 17.03125 0  18.97321428571429 0.396205357142857  20.825892857142858 1.188616071428571  C 22.67857142857143 1.981026785714285  24.27455357142857 3.046875  25.61383928571429 4.386160714285713  C 26.953125000000004 5.725446428571429  28.01897321428572 7.3214285714285685  28.81138392857143 9.174107142857142  C 29.603794642857146 11.026785714285712  30 12.968749999999998  30 15  C 30 17.031249999999996  29.603794642857146 18.973214285714285  28.81138392857143 20.825892857142858  C 28.01897321428572 22.678571428571427  26.953125000000004 24.27455357142857  25.61383928571429 25.613839285714285  C 24.27455357142857 26.953125  22.67857142857143 28.018973214285715  20.825892857142858 28.81138392857143  C 18.97321428571429 29.603794642857142  17.03125 30  15 30  C 12.96875 30  11.026785714285715 29.603794642857142  9.174107142857144 28.81138392857143  C 7.321428571428572 28.018973214285715  5.725446428571428 26.953125  4.386160714285714 25.613839285714285  C 3.046875 24.27455357142857  1.9810267857142858 22.678571428571427  1.1886160714285714 20.825892857142858  C 0.3962053571428571 18.973214285714285  0 17.031249999999996  0 15  C 0 12.968749999999998  0.3962053571428571 11.026785714285712  1.1886160714285714 9.174107142857142  C 1.9810267857142858 7.3214285714285685  3.046875 5.725446428571429  4.386160714285714 4.386160714285713  C 5.725446428571428 3.046875  7.321428571428572 1.981026785714285  9.174107142857144 1.188616071428571  Z M 24.86049107142857 20.390625  L 25.36272321428571 22.60044642857143  C 27.025669642857146 20.334821428571427  27.857142857142858 17.801339285714285  27.857142857142858 15  L 27.857142857142858 14.949776785714286  L 26.14955357142857 16.439732142857142  L 22.13169642857143 12.689732142857142  L 23.18638392857143 7.282366071428571  L 25.4296875 7.483258928571429  C 23.755580357142858 5.184151785714283  21.58482142857143 3.61049107142857  18.91741071428571 2.7622767857142874  L 19.8046875 4.838169642857142  L 15 7.5  L 10.1953125 4.838169642857142  L 11.082589285714285 2.7622767857142874  C 8.415178571428573 3.61049107142857  6.244419642857143 5.184151785714283  4.5703125 7.483258928571429  L 6.830357142857142 7.282366071428571  L 7.868303571428571 12.689732142857142  L 3.8504464285714284 16.439732142857142  L 2.142857142857143 14.949776785714286  L 2.142857142857143 15  C 2.142857142857143 17.801339285714285  2.974330357142857 20.334821428571427  4.637276785714286 22.60044642857143  L 5.139508928571428 20.390625  L 10.597098214285715 21.060267857142858  L 12.924107142857144 26.049107142857142  L 10.982142857142856 27.20424107142857  C 12.287946428571429 27.63950892857143  13.627232142857144 27.857142857142858  15 27.857142857142858  C 16.372767857142858 27.857142857142858  17.71205357142857 27.63950892857143  19.017857142857142 27.20424107142857  L 17.075892857142858 26.049107142857142  L 19.40290178571429 21.060267857142858  L 24.86049107142857 20.390625  Z " fill-rule="nonzero" fill="rgba(76, 175, 80, 1)" stroke="none" transform="matrix(1 0 0 1 463 17 )" class="fill" />
    <path d="M 12.036830357142856 19.285714285714285  L 10.1953125 13.660714285714286  L 15 10.178571428571429  L 19.8046875 13.660714285714286  L 17.97991071428571 19.285714285714285  L 12.036830357142856 19.285714285714285  Z " stroke-width="0" stroke-dasharray="0" stroke="rgba(255, 255, 255, 0)" fill="none" transform="matrix(1 0 0 1 463 17 )" class="stroke" mask="url(#Clip121)" />
    <path d="M 9.174107142857144 1.188616071428571  C 11.026785714285715 0.396205357142857  12.96875 0  15 0  C 17.03125 0  18.97321428571429 0.396205357142857  20.825892857142858 1.188616071428571  C 22.67857142857143 1.981026785714285  24.27455357142857 3.046875  25.61383928571429 4.386160714285713  C 26.953125000000004 5.725446428571429  28.01897321428572 7.3214285714285685  28.81138392857143 9.174107142857142  C 29.603794642857146 11.026785714285712  30 12.968749999999998  30 15  C 30 17.031249999999996  29.603794642857146 18.973214285714285  28.81138392857143 20.825892857142858  C 28.01897321428572 22.678571428571427  26.953125000000004 24.27455357142857  25.61383928571429 25.613839285714285  C 24.27455357142857 26.953125  22.67857142857143 28.018973214285715  20.825892857142858 28.81138392857143  C 18.97321428571429 29.603794642857142  17.03125 30  15 30  C 12.96875 30  11.026785714285715 29.603794642857142  9.174107142857144 28.81138392857143  C 7.321428571428572 28.018973214285715  5.725446428571428 26.953125  4.386160714285714 25.613839285714285  C 3.046875 24.27455357142857  1.9810267857142858 22.678571428571427  1.1886160714285714 20.825892857142858  C 0.3962053571428571 18.973214285714285  0 17.031249999999996  0 15  C 0 12.968749999999998  0.3962053571428571 11.026785714285712  1.1886160714285714 9.174107142857142  C 1.9810267857142858 7.3214285714285685  3.046875 5.725446428571429  4.386160714285714 4.386160714285713  C 5.725446428571428 3.046875  7.321428571428572 1.981026785714285  9.174107142857144 1.188616071428571  Z " stroke-width="0" stroke-dasharray="0" stroke="rgba(255, 255, 255, 0)" fill="none" transform="matrix(1 0 0 1 463 17 )" class="stroke" mask="url(#Clip121)" />
    <path d="M 24.86049107142857 20.390625  L 25.36272321428571 22.60044642857143  C 27.025669642857146 20.334821428571427  27.857142857142858 17.801339285714285  27.857142857142858 15  L 27.857142857142858 14.949776785714286  L 26.14955357142857 16.439732142857142  L 22.13169642857143 12.689732142857142  L 23.18638392857143 7.282366071428571  L 25.4296875 7.483258928571429  C 23.755580357142858 5.184151785714283  21.58482142857143 3.61049107142857  18.91741071428571 2.7622767857142874  L 19.8046875 4.838169642857142  L 15 7.5  L 10.1953125 4.838169642857142  L 11.082589285714285 2.7622767857142874  C 8.415178571428573 3.61049107142857  6.244419642857143 5.184151785714283  4.5703125 7.483258928571429  L 6.830357142857142 7.282366071428571  L 7.868303571428571 12.689732142857142  L 3.8504464285714284 16.439732142857142  L 2.142857142857143 14.949776785714286  L 2.142857142857143 15  C 2.142857142857143 17.801339285714285  2.974330357142857 20.334821428571427  4.637276785714286 22.60044642857143  L 5.139508928571428 20.390625  L 10.597098214285715 21.060267857142858  L 12.924107142857144 26.049107142857142  L 10.982142857142856 27.20424107142857  C 12.287946428571429 27.63950892857143  13.627232142857144 27.857142857142858  15 27.857142857142858  C 16.372767857142858 27.857142857142858  17.71205357142857 27.63950892857143  19.017857142857142 27.20424107142857  L 17.075892857142858 26.049107142857142  L 19.40290178571429 21.060267857142858  L 24.86049107142857 20.390625  Z " stroke-width="0" stroke-dasharray="0" stroke="rgba(255, 255, 255, 0)" fill="none" transform="matrix(1 0 0 1 463 17 )" class="stroke" mask="url(#Clip121)" />
  </g>
</svg>