<?xml version="1.0" encoding="utf-8"?>
<svg version="1.1" xmlns:xlink="http://www.w3.org/1999/xlink" width="360px" height="105px" xmlns="http://www.w3.org/2000/svg">
  <defs>
    <pattern id="BGPattern" patternUnits="userSpaceOnUse" alignment="0 0" imageRepeat="None" />
    <mask fill="white" id="Clip794">
      <path d="M 0 95  L 0 10  C 0 4.3999999999999995  4.399999999999999 0  10 0  L 350 0  C 355.59999999999997 0  360 4.3999999999999995  360 10  L 360 95  C 360 100.60000000000001  355.59999999999997 105  350 105  L 10 105  C 4.399999999999999 105  0 100.60000000000001  0 95  Z " fill-rule="evenodd" />
    </mask>
  </defs>
  <g transform="matrix(1 0 0 1 -5 -143 )">
    <path d="M 0 95  L 0 10  C 0 4.3999999999999995  4.399999999999999 0  10 0  L 350 0  C 355.59999999999997 0  360 4.3999999999999995  360 10  L 360 95  C 360 100.60000000000001  355.59999999999997 105  350 105  L 10 105  C 4.399999999999999 105  0 100.60000000000001  0 95  Z " fill-rule="nonzero" fill="rgba(255, 255, 255, 1)" stroke="none" transform="matrix(1 0 0 1 5 143 )" class="fill" />
    <path d="M 0 95  L 0 10  C 0 4.3999999999999995  4.399999999999999 0  10 0  L 350 0  C 355.59999999999997 0  360 4.3999999999999995  360 10  L 360 95  C 360 100.60000000000001  355.59999999999997 105  350 105  L 10 105  C 4.399999999999999 105  0 100.60000000000001  0 95  Z " stroke-width="2" stroke-dasharray="0" stroke="rgba(255, 255, 255, 0)" fill="none" transform="matrix(1 0 0 1 5 143 )" class="stroke" mask="url(#Clip794)" />
  </g>
</svg>