<?xml version="1.0" encoding="utf-8"?>
<svg version="1.1" xmlns:xlink="http://www.w3.org/1999/xlink" width="25px" height="20px" xmlns="http://www.w3.org/2000/svg">
  <defs>
    <pattern id="BGPattern" patternUnits="userSpaceOnUse" alignment="0 0" imageRepeat="None" />
    <mask fill="white" id="Clip136">
      <path d="M 7.783564814814816 17.642045454545453  C 8.150077160493828 17.28219696969697  8.333333333333332 16.85606060606061  8.333333333333332 16.363636363636363  C 8.333333333333332 15.87121212121212  8.150077160493828 15.445075757575758  7.783564814814816 15.085227272727273  C 7.417052469135804 14.725378787878789  6.983024691358025 14.545454545454547  6.481481481481481 14.545454545454547  C 5.979938271604939 14.545454545454547  5.545910493827161 14.725378787878789  5.179398148148148 15.085227272727273  C 4.812885802469135 15.445075757575758  4.62962962962963 15.87121212121212  4.62962962962963 16.363636363636363  C 4.62962962962963 16.85606060606061  4.812885802469135 17.28219696969697  5.179398148148148 17.642045454545453  C 5.545910493827161 18.001893939393938  5.979938271604939 18.18181818181818  6.481481481481481 18.18181818181818  C 6.983024691358025 18.18181818181818  7.417052469135804 18.001893939393938  7.783564814814816 17.642045454545453  Z M 2.7777777777777777 8.664772727272727  L 2.7777777777777777 9.090909090909092  L 8.333333333333332 9.090909090909092  L 8.333333333333332 5.454545454545454  L 6.047453703703703 5.454545454545454  C 5.922067901234569 5.454545454545454  5.815972222222222 5.497159090909092  5.729166666666666 5.582386363636365  L 2.907986111111111 8.352272727272727  C 2.821180555555556 8.4375  2.7777777777777777 8.541666666666664  2.7777777777777777 8.664772727272727  Z M 20.74652777777778 17.642045454545453  C 21.113040123456788 17.28219696969697  21.296296296296298 16.85606060606061  21.296296296296298 16.363636363636363  C 21.296296296296298 15.87121212121212  21.113040123456788 15.445075757575758  20.74652777777778 15.085227272727273  C 20.380015432098766 14.725378787878789  19.945987654320987 14.545454545454547  19.444444444444446 14.545454545454547  C 18.942901234567902 14.545454545454547  18.508873456790127 14.725378787878789  18.14236111111111 15.085227272727273  C 17.7758487654321 15.445075757575758  17.59259259259259 15.87121212121212  17.59259259259259 16.363636363636363  C 17.59259259259259 16.85606060606061  17.7758487654321 17.28219696969697  18.14236111111111 17.642045454545453  C 18.508873456790127 18.001893939393938  18.942901234567902 18.18181818181818  19.444444444444446 18.18181818181818  C 19.945987654320987 18.18181818181818  20.380015432098766 18.001893939393938  20.74652777777778 17.642045454545453  Z M 24.72511574074074 0.26988636363636465  C 24.90837191358025 0.4498106060606033  25 0.6628787878787867  25 0.9090909090909083  L 25 15.454545454545453  C 25 15.596590909090908  24.980709876543212 15.722064393939393  24.94212962962963 15.830965909090908  C 24.90354938271605 15.939867424242426  24.838445216049383 16.027462121212118  24.74681712962963 16.09375  C 24.655189043209877 16.160037878787882  24.575617283950617 16.214488636363637  24.50810185185185 16.257102272727273  C 24.44058641975309 16.299715909090907  24.327256944444446 16.328125  24.168113425925927 16.342329545454547  C 24.00896990740741 16.356534090909093  23.900462962962962 16.36600378787879  23.84259259259259 16.370738636363637  C 23.78472222222222 16.375473484848484  23.661747685185187 16.375473484848484  23.47366898148148 16.370738636363637  C 23.28559027777778 16.36600378787879  23.177083333333336 16.363636363636363  23.14814814814815 16.363636363636363  C 23.14814814814815 17.367424242424242  22.786458333333336 18.22443181818182  22.063078703703702 18.934659090909093  C 21.339699074074073 19.644886363636363  20.466820987654323 20  19.444444444444446 20  C 18.42206790123457 20  17.549189814814813 19.644886363636363  16.825810185185187 18.934659090909093  C 16.102430555555554 18.22443181818182  15.74074074074074 17.367424242424242  15.74074074074074 16.363636363636363  L 10.185185185185185 16.363636363636363  C 10.185185185185185 17.367424242424242  9.82349537037037 18.22443181818182  9.10011574074074 18.934659090909093  C 8.37673611111111 19.644886363636363  7.503858024691359 20  6.481481481481481 20  C 5.459104938271605 20  4.586226851851852 19.644886363636363  3.8628472222222223 18.934659090909093  C 3.139467592592592 18.22443181818182  2.7777777777777777 17.367424242424242  2.7777777777777777 16.363636363636363  L 1.8518518518518516 16.363636363636363  C 1.8229166666666667 16.363636363636363  1.7144097222222223 16.36600378787879  1.5263310185185186 16.370738636363637  C 1.3382523148148149 16.375473484848484  1.215277777777778 16.375473484848484  1.1574074074074074 16.370738636363637  C 1.099537037037037 16.36600378787879  0.9910300925925927 16.356534090909093  0.8318865740740742 16.342329545454547  C 0.6727430555555558 16.328125  0.5594135802469139 16.299715909090907  0.49189814814814814 16.257102272727273  C 0.4243827160493829 16.214488636363637  0.3448109567901236 16.160037878787882  0.25318287037037035 16.09375  C 0.16155478395061734 16.027462121212118  0.09645061728395068 15.939867424242426  0.057870370370370364 15.830965909090908  C 0.01929012345679026 15.722064393939393  0 15.596590909090908  0 15.454545454545453  C 0 15.208333333333336  0.09162808641975322 14.995265151515152  0.27488425925925924 14.815340909090908  C 0.45814043209876576 14.635416666666664  0.6751543209876546 14.545454545454547  0.9259259259259258 14.545454545454547  L 0.9259259259259258 10  C 0.9259259259259258 9.924242424242424  0.9235146604938272 9.758522727272727  0.9186921296296295 9.502840909090908  C 0.9138695987654322 9.247159090909092  0.9138695987654322 9.067234848484846  0.9186921296296295 8.963068181818182  C 0.9235146604938272 8.858901515151514  0.9355709876543213 8.69554924242424  0.9548611111111112 8.473011363636365  C 0.9741512345679014 8.250473484848484  1.0054976851851851 8.075284090909092  1.048900462962963 7.947443181818182  C 1.0923032407407407 7.819602272727273  1.1598186728395066 7.675189393939393  1.2514467592592593 7.514204545454546  C 1.3430748456790125 7.353219696969697  1.451581790123457 7.211174242424243  1.5769675925925926 7.088068181818182  L 4.441550925925926 4.275568181818182  C 4.624807098765433 4.095643939393938  4.868344907407408 3.9441287878787867  5.172164351851852 3.821022727272727  C 5.475983796296298 3.697916666666665  5.758101851851852 3.6363636363636354  6.018518518518518 3.6363636363636354  L 8.333333333333332 3.6363636363636354  L 8.333333333333332 0.9090909090909083  C 8.333333333333332 0.6628787878787867  8.424961419753087 0.4498106060606033  8.608217592592593 0.26988636363636465  C 8.7914737654321 0.08996212121211933  9.008487654320989 0  9.25925925925926 0  L 24.074074074074073 0  C 24.32484567901235 0  24.541859567901238 0.08996212121211933  24.72511574074074 0.26988636363636465  Z " fill-rule="evenodd" />
    </mask>
  </defs>
  <g transform="matrix(1 0 0 1 -174 -236 )">
    <path d="M 7.783564814814816 17.642045454545453  C 8.150077160493828 17.28219696969697  8.333333333333332 16.85606060606061  8.333333333333332 16.363636363636363  C 8.333333333333332 15.87121212121212  8.150077160493828 15.445075757575758  7.783564814814816 15.085227272727273  C 7.417052469135804 14.725378787878789  6.983024691358025 14.545454545454547  6.481481481481481 14.545454545454547  C 5.979938271604939 14.545454545454547  5.545910493827161 14.725378787878789  5.179398148148148 15.085227272727273  C 4.812885802469135 15.445075757575758  4.62962962962963 15.87121212121212  4.62962962962963 16.363636363636363  C 4.62962962962963 16.85606060606061  4.812885802469135 17.28219696969697  5.179398148148148 17.642045454545453  C 5.545910493827161 18.001893939393938  5.979938271604939 18.18181818181818  6.481481481481481 18.18181818181818  C 6.983024691358025 18.18181818181818  7.417052469135804 18.001893939393938  7.783564814814816 17.642045454545453  Z M 2.7777777777777777 8.664772727272727  L 2.7777777777777777 9.090909090909092  L 8.333333333333332 9.090909090909092  L 8.333333333333332 5.454545454545454  L 6.047453703703703 5.454545454545454  C 5.922067901234569 5.454545454545454  5.815972222222222 5.497159090909092  5.729166666666666 5.582386363636365  L 2.907986111111111 8.352272727272727  C 2.821180555555556 8.4375  2.7777777777777777 8.541666666666664  2.7777777777777777 8.664772727272727  Z M 20.74652777777778 17.642045454545453  C 21.113040123456788 17.28219696969697  21.296296296296298 16.85606060606061  21.296296296296298 16.363636363636363  C 21.296296296296298 15.87121212121212  21.113040123456788 15.445075757575758  20.74652777777778 15.085227272727273  C 20.380015432098766 14.725378787878789  19.945987654320987 14.545454545454547  19.444444444444446 14.545454545454547  C 18.942901234567902 14.545454545454547  18.508873456790127 14.725378787878789  18.14236111111111 15.085227272727273  C 17.7758487654321 15.445075757575758  17.59259259259259 15.87121212121212  17.59259259259259 16.363636363636363  C 17.59259259259259 16.85606060606061  17.7758487654321 17.28219696969697  18.14236111111111 17.642045454545453  C 18.508873456790127 18.001893939393938  18.942901234567902 18.18181818181818  19.444444444444446 18.18181818181818  C 19.945987654320987 18.18181818181818  20.380015432098766 18.001893939393938  20.74652777777778 17.642045454545453  Z M 24.72511574074074 0.26988636363636465  C 24.90837191358025 0.4498106060606033  25 0.6628787878787867  25 0.9090909090909083  L 25 15.454545454545453  C 25 15.596590909090908  24.980709876543212 15.722064393939393  24.94212962962963 15.830965909090908  C 24.90354938271605 15.939867424242426  24.838445216049383 16.027462121212118  24.74681712962963 16.09375  C 24.655189043209877 16.160037878787882  24.575617283950617 16.214488636363637  24.50810185185185 16.257102272727273  C 24.44058641975309 16.299715909090907  24.327256944444446 16.328125  24.168113425925927 16.342329545454547  C 24.00896990740741 16.356534090909093  23.900462962962962 16.36600378787879  23.84259259259259 16.370738636363637  C 23.78472222222222 16.375473484848484  23.661747685185187 16.375473484848484  23.47366898148148 16.370738636363637  C 23.28559027777778 16.36600378787879  23.177083333333336 16.363636363636363  23.14814814814815 16.363636363636363  C 23.14814814814815 17.367424242424242  22.786458333333336 18.22443181818182  22.063078703703702 18.934659090909093  C 21.339699074074073 19.644886363636363  20.466820987654323 20  19.444444444444446 20  C 18.42206790123457 20  17.549189814814813 19.644886363636363  16.825810185185187 18.934659090909093  C 16.102430555555554 18.22443181818182  15.74074074074074 17.367424242424242  15.74074074074074 16.363636363636363  L 10.185185185185185 16.363636363636363  C 10.185185185185185 17.367424242424242  9.82349537037037 18.22443181818182  9.10011574074074 18.934659090909093  C 8.37673611111111 19.644886363636363  7.503858024691359 20  6.481481481481481 20  C 5.459104938271605 20  4.586226851851852 19.644886363636363  3.8628472222222223 18.934659090909093  C 3.139467592592592 18.22443181818182  2.7777777777777777 17.367424242424242  2.7777777777777777 16.363636363636363  L 1.8518518518518516 16.363636363636363  C 1.8229166666666667 16.363636363636363  1.7144097222222223 16.36600378787879  1.5263310185185186 16.370738636363637  C 1.3382523148148149 16.375473484848484  1.215277777777778 16.375473484848484  1.1574074074074074 16.370738636363637  C 1.099537037037037 16.36600378787879  0.9910300925925927 16.356534090909093  0.8318865740740742 16.342329545454547  C 0.6727430555555558 16.328125  0.5594135802469139 16.299715909090907  0.49189814814814814 16.257102272727273  C 0.4243827160493829 16.214488636363637  0.3448109567901236 16.160037878787882  0.25318287037037035 16.09375  C 0.16155478395061734 16.027462121212118  0.09645061728395068 15.939867424242426  0.057870370370370364 15.830965909090908  C 0.01929012345679026 15.722064393939393  0 15.596590909090908  0 15.454545454545453  C 0 15.208333333333336  0.09162808641975322 14.995265151515152  0.27488425925925924 14.815340909090908  C 0.45814043209876576 14.635416666666664  0.6751543209876546 14.545454545454547  0.9259259259259258 14.545454545454547  L 0.9259259259259258 10  C 0.9259259259259258 9.924242424242424  0.9235146604938272 9.758522727272727  0.9186921296296295 9.502840909090908  C 0.9138695987654322 9.247159090909092  0.9138695987654322 9.067234848484846  0.9186921296296295 8.963068181818182  C 0.9235146604938272 8.858901515151514  0.9355709876543213 8.69554924242424  0.9548611111111112 8.473011363636365  C 0.9741512345679014 8.250473484848484  1.0054976851851851 8.075284090909092  1.048900462962963 7.947443181818182  C 1.0923032407407407 7.819602272727273  1.1598186728395066 7.675189393939393  1.2514467592592593 7.514204545454546  C 1.3430748456790125 7.353219696969697  1.451581790123457 7.211174242424243  1.5769675925925926 7.088068181818182  L 4.441550925925926 4.275568181818182  C 4.624807098765433 4.095643939393938  4.868344907407408 3.9441287878787867  5.172164351851852 3.821022727272727  C 5.475983796296298 3.697916666666665  5.758101851851852 3.6363636363636354  6.018518518518518 3.6363636363636354  L 8.333333333333332 3.6363636363636354  L 8.333333333333332 0.9090909090909083  C 8.333333333333332 0.6628787878787867  8.424961419753087 0.4498106060606033  8.608217592592593 0.26988636363636465  C 8.7914737654321 0.08996212121211933  9.008487654320989 0  9.25925925925926 0  L 24.074074074074073 0  C 24.32484567901235 0  24.541859567901238 0.08996212121211933  24.72511574074074 0.26988636363636465  Z " fill-rule="nonzero" fill="rgba(0, 0, 0, 1)" stroke="none" transform="matrix(1 0 0 1 174 236 )" class="fill" />
    <path d="M 7.783564814814816 17.642045454545453  C 8.150077160493828 17.28219696969697  8.333333333333332 16.85606060606061  8.333333333333332 16.363636363636363  C 8.333333333333332 15.87121212121212  8.150077160493828 15.445075757575758  7.783564814814816 15.085227272727273  C 7.417052469135804 14.725378787878789  6.983024691358025 14.545454545454547  6.481481481481481 14.545454545454547  C 5.979938271604939 14.545454545454547  5.545910493827161 14.725378787878789  5.179398148148148 15.085227272727273  C 4.812885802469135 15.445075757575758  4.62962962962963 15.87121212121212  4.62962962962963 16.363636363636363  C 4.62962962962963 16.85606060606061  4.812885802469135 17.28219696969697  5.179398148148148 17.642045454545453  C 5.545910493827161 18.001893939393938  5.979938271604939 18.18181818181818  6.481481481481481 18.18181818181818  C 6.983024691358025 18.18181818181818  7.417052469135804 18.001893939393938  7.783564814814816 17.642045454545453  Z " stroke-width="0" stroke-dasharray="0" stroke="rgba(255, 255, 255, 0)" fill="none" transform="matrix(1 0 0 1 174 236 )" class="stroke" mask="url(#Clip136)" />
    <path d="M 2.7777777777777777 8.664772727272727  L 2.7777777777777777 9.090909090909092  L 8.333333333333332 9.090909090909092  L 8.333333333333332 5.454545454545454  L 6.047453703703703 5.454545454545454  C 5.922067901234569 5.454545454545454  5.815972222222222 5.497159090909092  5.729166666666666 5.582386363636365  L 2.907986111111111 8.352272727272727  C 2.821180555555556 8.4375  2.7777777777777777 8.541666666666664  2.7777777777777777 8.664772727272727  Z " stroke-width="0" stroke-dasharray="0" stroke="rgba(255, 255, 255, 0)" fill="none" transform="matrix(1 0 0 1 174 236 )" class="stroke" mask="url(#Clip136)" />
    <path d="M 20.74652777777778 17.642045454545453  C 21.113040123456788 17.28219696969697  21.296296296296298 16.85606060606061  21.296296296296298 16.363636363636363  C 21.296296296296298 15.87121212121212  21.113040123456788 15.445075757575758  20.74652777777778 15.085227272727273  C 20.380015432098766 14.725378787878789  19.945987654320987 14.545454545454547  19.444444444444446 14.545454545454547  C 18.942901234567902 14.545454545454547  18.508873456790127 14.725378787878789  18.14236111111111 15.085227272727273  C 17.7758487654321 15.445075757575758  17.59259259259259 15.87121212121212  17.59259259259259 16.363636363636363  C 17.59259259259259 16.85606060606061  17.7758487654321 17.28219696969697  18.14236111111111 17.642045454545453  C 18.508873456790127 18.001893939393938  18.942901234567902 18.18181818181818  19.444444444444446 18.18181818181818  C 19.945987654320987 18.18181818181818  20.380015432098766 18.001893939393938  20.74652777777778 17.642045454545453  Z " stroke-width="0" stroke-dasharray="0" stroke="rgba(255, 255, 255, 0)" fill="none" transform="matrix(1 0 0 1 174 236 )" class="stroke" mask="url(#Clip136)" />
    <path d="M 24.72511574074074 0.26988636363636465  C 24.90837191358025 0.4498106060606033  25 0.6628787878787867  25 0.9090909090909083  L 25 15.454545454545453  C 25 15.596590909090908  24.980709876543212 15.722064393939393  24.94212962962963 15.830965909090908  C 24.90354938271605 15.939867424242426  24.838445216049383 16.027462121212118  24.74681712962963 16.09375  C 24.655189043209877 16.160037878787882  24.575617283950617 16.214488636363637  24.50810185185185 16.257102272727273  C 24.44058641975309 16.299715909090907  24.327256944444446 16.328125  24.168113425925927 16.342329545454547  C 24.00896990740741 16.356534090909093  23.900462962962962 16.36600378787879  23.84259259259259 16.370738636363637  C 23.78472222222222 16.375473484848484  23.661747685185187 16.375473484848484  23.47366898148148 16.370738636363637  C 23.28559027777778 16.36600378787879  23.177083333333336 16.363636363636363  23.14814814814815 16.363636363636363  C 23.14814814814815 17.367424242424242  22.786458333333336 18.22443181818182  22.063078703703702 18.934659090909093  C 21.339699074074073 19.644886363636363  20.466820987654323 20  19.444444444444446 20  C 18.42206790123457 20  17.549189814814813 19.644886363636363  16.825810185185187 18.934659090909093  C 16.102430555555554 18.22443181818182  15.74074074074074 17.367424242424242  15.74074074074074 16.363636363636363  L 10.185185185185185 16.363636363636363  C 10.185185185185185 17.367424242424242  9.82349537037037 18.22443181818182  9.10011574074074 18.934659090909093  C 8.37673611111111 19.644886363636363  7.503858024691359 20  6.481481481481481 20  C 5.459104938271605 20  4.586226851851852 19.644886363636363  3.8628472222222223 18.934659090909093  C 3.139467592592592 18.22443181818182  2.7777777777777777 17.367424242424242  2.7777777777777777 16.363636363636363  L 1.8518518518518516 16.363636363636363  C 1.8229166666666667 16.363636363636363  1.7144097222222223 16.36600378787879  1.5263310185185186 16.370738636363637  C 1.3382523148148149 16.375473484848484  1.215277777777778 16.375473484848484  1.1574074074074074 16.370738636363637  C 1.099537037037037 16.36600378787879  0.9910300925925927 16.356534090909093  0.8318865740740742 16.342329545454547  C 0.6727430555555558 16.328125  0.5594135802469139 16.299715909090907  0.49189814814814814 16.257102272727273  C 0.4243827160493829 16.214488636363637  0.3448109567901236 16.160037878787882  0.25318287037037035 16.09375  C 0.16155478395061734 16.027462121212118  0.09645061728395068 15.939867424242426  0.057870370370370364 15.830965909090908  C 0.01929012345679026 15.722064393939393  0 15.596590909090908  0 15.454545454545453  C 0 15.208333333333336  0.09162808641975322 14.995265151515152  0.27488425925925924 14.815340909090908  C 0.45814043209876576 14.635416666666664  0.6751543209876546 14.545454545454547  0.9259259259259258 14.545454545454547  L 0.9259259259259258 10  C 0.9259259259259258 9.924242424242424  0.9235146604938272 9.758522727272727  0.9186921296296295 9.502840909090908  C 0.9138695987654322 9.247159090909092  0.9138695987654322 9.067234848484846  0.9186921296296295 8.963068181818182  C 0.9235146604938272 8.858901515151514  0.9355709876543213 8.69554924242424  0.9548611111111112 8.473011363636365  C 0.9741512345679014 8.250473484848484  1.0054976851851851 8.075284090909092  1.048900462962963 7.947443181818182  C 1.0923032407407407 7.819602272727273  1.1598186728395066 7.675189393939393  1.2514467592592593 7.514204545454546  C 1.3430748456790125 7.353219696969697  1.451581790123457 7.211174242424243  1.5769675925925926 7.088068181818182  L 4.441550925925926 4.275568181818182  C 4.624807098765433 4.095643939393938  4.868344907407408 3.9441287878787867  5.172164351851852 3.821022727272727  C 5.475983796296298 3.697916666666665  5.758101851851852 3.6363636363636354  6.018518518518518 3.6363636363636354  L 8.333333333333332 3.6363636363636354  L 8.333333333333332 0.9090909090909083  C 8.333333333333332 0.6628787878787867  8.424961419753087 0.4498106060606033  8.608217592592593 0.26988636363636465  C 8.7914737654321 0.08996212121211933  9.008487654320989 0  9.25925925925926 0  L 24.074074074074073 0  C 24.32484567901235 0  24.541859567901238 0.08996212121211933  24.72511574074074 0.26988636363636465  Z " stroke-width="0" stroke-dasharray="0" stroke="rgba(255, 255, 255, 0)" fill="none" transform="matrix(1 0 0 1 174 236 )" class="stroke" mask="url(#Clip136)" />
  </g>
</svg>