<?xml version="1.0" encoding="utf-8"?>
<svg version="1.1" xmlns:xlink="http://www.w3.org/1999/xlink" width="35px" height="35px" xmlns="http://www.w3.org/2000/svg">
  <defs>
    <pattern id="BGPattern" patternUnits="userSpaceOnUse" alignment="0 0" imageRepeat="None" />
    <mask fill="white" id="Clip513">
      <path d="M 5.905044510385757 14.391691394658753  L 14.391691394658753 5.905044510385757  L 19.080118694362017 10.593471810089019  L 10.59347181008902 19.08011869436202  L 5.905044510385757 14.391691394658753  Z M 10.59347181008902 20.6973293768546  C 10.860534124629082 20.6973293768546  11.083086053412465 20.608308605341247  11.261127596439168 20.430267062314538  L 20.430267062314538 11.261127596439168  C 20.618199802176065 11.073194856577645  20.712166172106823 10.850642927794263  20.712166172106823 10.593471810089019  C 20.712166172106823 10.336300692383778  20.618199802176065 10.113748763600395  20.430267062314538 9.925816023738873  L 15.059347181008903 4.554896142433234  C 14.881305637982194 4.3768545994065295  14.658753709198812 4.287833827893175  14.391691394658753 4.287833827893175  C 14.124629080118694 4.287833827893175  13.902077151335313 4.3768545994065295  13.724035608308604 4.554896142433234  L 4.554896142433234 13.724035608308604  C 4.366963402571711 13.911968348170129  4.27299703264095 14.134520276953511  4.27299703264095 14.391691394658753  C 4.27299703264095 14.648862512363994  4.366963402571711 14.87141444114738  4.554896142433234 15.059347181008903  L 9.925816023738872 20.430267062314538  C 10.103857566765578 20.608308605341247  10.326409495548962 20.6973293768546  10.59347181008902 20.6973293768546  Z M 25 9.636498516320474  C 25 10.165677546983185  24.817012858555888 10.613254203758654  24.451038575667656 10.979228486646884  L 10.99406528189911 24.451038575667656  C 10.628090999010881 24.817012858555888  10.18051434223541 25  9.651335311572701 25  C 9.12215628090999 25  8.674579624134521 24.817012858555888  8.30860534124629 24.451038575667656  L 6.439169139465875 22.58160237388724  C 6.99307616221563 22.02769535113749  7.270029673590504 21.35509396636993  7.270029673590504 20.56379821958457  C 7.270029673590504 19.772502472799207  6.99307616221563 19.09990108803165  6.439169139465875 18.545994065281903  C 5.885262116716124 17.992087042532145  5.212660731948566 17.71513353115727  4.421364985163205 17.71513353115727  C 3.6300692383778443 17.71513353115727  2.957467853610287 17.992087042532145  2.4035608308605343 18.545994065281903  L 0.5489614243323443 16.676557863501486  C 0.18298714144411488 16.31058358061325  0 15.86300692383778  0 15.333827893175073  C 0 14.804648862512362  0.18298714144411488 14.357072205736893  0.5489614243323443 13.991097922848667  L 14.00593471810089 0.5489614243323448  C 14.371909000989122 0.1829871414441131  14.819485657764591 0  15.348664688427299 0  C 15.877843719090013 0  16.32542037586548 0.1829871414441131  16.69139465875371 0.5489614243323448  L 18.5459940652819 2.4035608308605347  C 17.992087042532148 2.957467853610285  17.71513353115727 3.630069238377842  17.71513353115727 4.421364985163204  C 17.71513353115727 5.212660731948565  17.992087042532148 5.885262116716119  18.5459940652819 6.439169139465875  C 19.099901088031654 6.993076162215628  19.77250247279921 7.270029673590505  20.56379821958457 7.270029673590505  C 21.355093966369935 7.270029673590505  22.02769535113749 6.993076162215628  22.58160237388724 6.439169139465875  L 24.451038575667656 8.293768545994066  C 24.817012858555888 8.659742828882292  25 9.107319485657763  25 9.636498516320474  Z " fill-rule="evenodd" />
    </mask>
  </defs>
  <g transform="matrix(1 0 0 1 -100 -289 )">
    <path d="M 5.905044510385757 14.391691394658753  L 14.391691394658753 5.905044510385757  L 19.080118694362017 10.593471810089019  L 10.59347181008902 19.08011869436202  L 5.905044510385757 14.391691394658753  Z M 10.59347181008902 20.6973293768546  C 10.860534124629082 20.6973293768546  11.083086053412465 20.608308605341247  11.261127596439168 20.430267062314538  L 20.430267062314538 11.261127596439168  C 20.618199802176065 11.073194856577645  20.712166172106823 10.850642927794263  20.712166172106823 10.593471810089019  C 20.712166172106823 10.336300692383778  20.618199802176065 10.113748763600395  20.430267062314538 9.925816023738873  L 15.059347181008903 4.554896142433234  C 14.881305637982194 4.3768545994065295  14.658753709198812 4.287833827893175  14.391691394658753 4.287833827893175  C 14.124629080118694 4.287833827893175  13.902077151335313 4.3768545994065295  13.724035608308604 4.554896142433234  L 4.554896142433234 13.724035608308604  C 4.366963402571711 13.911968348170129  4.27299703264095 14.134520276953511  4.27299703264095 14.391691394658753  C 4.27299703264095 14.648862512363994  4.366963402571711 14.87141444114738  4.554896142433234 15.059347181008903  L 9.925816023738872 20.430267062314538  C 10.103857566765578 20.608308605341247  10.326409495548962 20.6973293768546  10.59347181008902 20.6973293768546  Z M 25 9.636498516320474  C 25 10.165677546983185  24.817012858555888 10.613254203758654  24.451038575667656 10.979228486646884  L 10.99406528189911 24.451038575667656  C 10.628090999010881 24.817012858555888  10.18051434223541 25  9.651335311572701 25  C 9.12215628090999 25  8.674579624134521 24.817012858555888  8.30860534124629 24.451038575667656  L 6.439169139465875 22.58160237388724  C 6.99307616221563 22.02769535113749  7.270029673590504 21.35509396636993  7.270029673590504 20.56379821958457  C 7.270029673590504 19.772502472799207  6.99307616221563 19.09990108803165  6.439169139465875 18.545994065281903  C 5.885262116716124 17.992087042532145  5.212660731948566 17.71513353115727  4.421364985163205 17.71513353115727  C 3.6300692383778443 17.71513353115727  2.957467853610287 17.992087042532145  2.4035608308605343 18.545994065281903  L 0.5489614243323443 16.676557863501486  C 0.18298714144411488 16.31058358061325  0 15.86300692383778  0 15.333827893175073  C 0 14.804648862512362  0.18298714144411488 14.357072205736893  0.5489614243323443 13.991097922848667  L 14.00593471810089 0.5489614243323448  C 14.371909000989122 0.1829871414441131  14.819485657764591 0  15.348664688427299 0  C 15.877843719090013 0  16.32542037586548 0.1829871414441131  16.69139465875371 0.5489614243323448  L 18.5459940652819 2.4035608308605347  C 17.992087042532148 2.957467853610285  17.71513353115727 3.630069238377842  17.71513353115727 4.421364985163204  C 17.71513353115727 5.212660731948565  17.992087042532148 5.885262116716119  18.5459940652819 6.439169139465875  C 19.099901088031654 6.993076162215628  19.77250247279921 7.270029673590505  20.56379821958457 7.270029673590505  C 21.355093966369935 7.270029673590505  22.02769535113749 6.993076162215628  22.58160237388724 6.439169139465875  L 24.451038575667656 8.293768545994066  C 24.817012858555888 8.659742828882292  25 9.107319485657763  25 9.636498516320474  Z " fill-rule="nonzero" fill="rgba(127, 127, 127, 1)" stroke="none" transform="matrix(1 0 0 1 104 293 )" class="fill" />
    <path d="M 5.905044510385757 14.391691394658753  L 14.391691394658753 5.905044510385757  L 19.080118694362017 10.593471810089019  L 10.59347181008902 19.08011869436202  L 5.905044510385757 14.391691394658753  Z " stroke-width="0" stroke-dasharray="0" stroke="rgba(255, 255, 255, 0)" fill="none" transform="matrix(1 0 0 1 104 293 )" class="stroke" mask="url(#Clip513)" />
    <path d="M 10.59347181008902 20.6973293768546  C 10.860534124629082 20.6973293768546  11.083086053412465 20.608308605341247  11.261127596439168 20.430267062314538  L 20.430267062314538 11.261127596439168  C 20.618199802176065 11.073194856577645  20.712166172106823 10.850642927794263  20.712166172106823 10.593471810089019  C 20.712166172106823 10.336300692383778  20.618199802176065 10.113748763600395  20.430267062314538 9.925816023738873  L 15.059347181008903 4.554896142433234  C 14.881305637982194 4.3768545994065295  14.658753709198812 4.287833827893175  14.391691394658753 4.287833827893175  C 14.124629080118694 4.287833827893175  13.902077151335313 4.3768545994065295  13.724035608308604 4.554896142433234  L 4.554896142433234 13.724035608308604  C 4.366963402571711 13.911968348170129  4.27299703264095 14.134520276953511  4.27299703264095 14.391691394658753  C 4.27299703264095 14.648862512363994  4.366963402571711 14.87141444114738  4.554896142433234 15.059347181008903  L 9.925816023738872 20.430267062314538  C 10.103857566765578 20.608308605341247  10.326409495548962 20.6973293768546  10.59347181008902 20.6973293768546  Z " stroke-width="0" stroke-dasharray="0" stroke="rgba(255, 255, 255, 0)" fill="none" transform="matrix(1 0 0 1 104 293 )" class="stroke" mask="url(#Clip513)" />
    <path d="M 25 9.636498516320474  C 25 10.165677546983185  24.817012858555888 10.613254203758654  24.451038575667656 10.979228486646884  L 10.99406528189911 24.451038575667656  C 10.628090999010881 24.817012858555888  10.18051434223541 25  9.651335311572701 25  C 9.12215628090999 25  8.674579624134521 24.817012858555888  8.30860534124629 24.451038575667656  L 6.439169139465875 22.58160237388724  C 6.99307616221563 22.02769535113749  7.270029673590504 21.35509396636993  7.270029673590504 20.56379821958457  C 7.270029673590504 19.772502472799207  6.99307616221563 19.09990108803165  6.439169139465875 18.545994065281903  C 5.885262116716124 17.992087042532145  5.212660731948566 17.71513353115727  4.421364985163205 17.71513353115727  C 3.6300692383778443 17.71513353115727  2.957467853610287 17.992087042532145  2.4035608308605343 18.545994065281903  L 0.5489614243323443 16.676557863501486  C 0.18298714144411488 16.31058358061325  0 15.86300692383778  0 15.333827893175073  C 0 14.804648862512362  0.18298714144411488 14.357072205736893  0.5489614243323443 13.991097922848667  L 14.00593471810089 0.5489614243323448  C 14.371909000989122 0.1829871414441131  14.819485657764591 0  15.348664688427299 0  C 15.877843719090013 0  16.32542037586548 0.1829871414441131  16.69139465875371 0.5489614243323448  L 18.5459940652819 2.4035608308605347  C 17.992087042532148 2.957467853610285  17.71513353115727 3.630069238377842  17.71513353115727 4.421364985163204  C 17.71513353115727 5.212660731948565  17.992087042532148 5.885262116716119  18.5459940652819 6.439169139465875  C 19.099901088031654 6.993076162215628  19.77250247279921 7.270029673590505  20.56379821958457 7.270029673590505  C 21.355093966369935 7.270029673590505  22.02769535113749 6.993076162215628  22.58160237388724 6.439169139465875  L 24.451038575667656 8.293768545994066  C 24.817012858555888 8.659742828882292  25 9.107319485657763  25 9.636498516320474  Z " stroke-width="0" stroke-dasharray="0" stroke="rgba(255, 255, 255, 0)" fill="none" transform="matrix(1 0 0 1 104 293 )" class="stroke" mask="url(#Clip513)" />
  </g>
  <style>svg { filter: drop-shadow(1px 1px 2.5px rgba(0, 0, 0, 0.3137254901960784)); }</style>
</svg>