<?xml version="1.0" encoding="utf-8"?>
<svg version="1.1" xmlns:xlink="http://www.w3.org/1999/xlink" width="30px" height="37px" xmlns="http://www.w3.org/2000/svg">
  <defs>
    <pattern id="BGPattern" patternUnits="userSpaceOnUse" alignment="0 0" imageRepeat="None" />
    <mask fill="white" id="Clip801">
      <path d="M 20 9.45  C 20 16.2  14 20.25  10 27  C 6 20.25  0 16.2  0 9.45  C 0 5.9399999999999995  2 0  10 0  C 18 0  20 5.9399999999999995  20 9.45  Z " fill-rule="evenodd" />
    </mask>
  </defs>
  <g transform="matrix(1 0 0 1 -34 -288 )">
    <path d="M 20 9.45  C 20 16.2  14 20.25  10 27  C 6 20.25  0 16.2  0 9.45  C 0 5.9399999999999995  2 0  10 0  C 18 0  20 5.9399999999999995  20 9.45  Z " fill-rule="nonzero" fill="rgba(255, 255, 255, 1)" stroke="none" transform="matrix(1 0 0 1 38 292 )" class="fill" />
    <path d="M 20 9.45  C 20 16.2  14 20.25  10 27  C 6 20.25  0 16.2  0 9.45  C 0 5.9399999999999995  2 0  10 0  C 18 0  20 5.9399999999999995  20 9.45  Z " stroke-width="2" stroke-dasharray="0" stroke="rgba(51, 51, 51, 1)" fill="none" transform="matrix(1 0 0 1 38 292 )" class="stroke" mask="url(#Clip801)" />
  </g>
  <style>svg { filter: drop-shadow(1px 1px 2.5px rgba(0, 0, 0, 0.6980392156862745)); }</style>
</svg>