<?xml version="1.0" encoding="utf-8"?>
<svg version="1.1" xmlns:xlink="http://www.w3.org/1999/xlink" width="19px" height="19px" xmlns="http://www.w3.org/2000/svg">
  <defs>
    <pattern id="BGPattern" patternUnits="userSpaceOnUse" alignment="0 0" imageRepeat="None" />
    <mask fill="white" id="Clip515">
      <path d="M 0 4.5  C 0 1.9799999999999998  1.9799999999999998 0  4.5 0  C 7.0200000000000005 0  9 1.9799999999999998  9 4.5  C 9 7.0200000000000005  7.0200000000000005 9  4.5 9  C 1.9799999999999998 9  0 7.0200000000000005  0 4.5  Z " fill-rule="evenodd" />
    </mask>
  </defs>
  <g transform="matrix(1 0 0 1 -39 -292 )">
    <path d="M 0 4.5  C 0 1.9799999999999998  1.9799999999999998 0  4.5 0  C 7.0200000000000005 0  9 1.9799999999999998  9 4.5  C 9 7.0200000000000005  7.0200000000000005 9  4.5 9  C 1.9799999999999998 9  0 7.0200000000000005  0 4.5  Z " fill-rule="nonzero" fill="rgba(255, 255, 255, 1)" stroke="none" transform="matrix(1 0 0 1 43 296 )" class="fill" />
    <path d="M 0 4.5  C 0 1.9799999999999998  1.9799999999999998 0  4.5 0  C 7.0200000000000005 0  9 1.9799999999999998  9 4.5  C 9 7.0200000000000005  7.0200000000000005 9  4.5 9  C 1.9799999999999998 9  0 7.0200000000000005  0 4.5  Z " stroke-width="2" stroke-dasharray="0" stroke="rgba(51, 51, 51, 1)" fill="none" transform="matrix(1 0 0 1 43 296 )" class="stroke" mask="url(#Clip515)" />
  </g>
  <style>svg { filter: drop-shadow(1px 1px 2.5px rgba(0, 0, 0, 0.34901960784313724)); }</style>
</svg>