<?xml version="1.0" encoding="utf-8"?>
<svg version="1.1" xmlns:xlink="http://www.w3.org/1999/xlink" width="60px" height="60px" xmlns="http://www.w3.org/2000/svg">
  <defs>
    <pattern id="BGPattern" patternUnits="userSpaceOnUse" alignment="0 0" imageRepeat="None" />
    <mask fill="white" id="Clip804">
      <path d="M 18.34821428571429 2.377232142857142  C 22.05357142857143 0.792410714285714  25.9375 0  30 0  C 34.0625 0  37.94642857142858 0.792410714285714  41.651785714285715 2.377232142857142  C 45.35714285714286 3.96205357142857  48.54910714285714 6.09375  51.22767857142858 8.772321428571425  C 53.90625000000001 11.450892857142858  56.03794642857144 14.642857142857137  57.62276785714286 18.348214285714285  C 59.20758928571429 22.053571428571423  60 25.937499999999996  60 30  C 60 34.04017857142857  59.21316964285714 37.91294642857143  57.63950892857142 41.61830357142857  C 56.065848214285715 45.32366071428572  53.93973214285714 48.515625  51.261160714285715 51.19419642857143  C 48.582589285714285 53.87276785714286  45.39062500000001 56.01004464285714  41.68526785714286 57.606026785714285  C 37.979910714285715 59.20200892857143  34.08482142857142 60  30 60  C 25.91517857142857 60  22.02008928571429 59.207589285714285  18.314732142857142 57.62276785714286  C 14.609375 56.03794642857143  11.422991071428573 53.90066964285714  8.755580357142856 51.2109375  C 6.088169642857142 48.521205357142854  3.9620535714285716 45.32924107142857  2.377232142857143 41.63504464285714  C 0.7924107142857142 37.94084821428571  0 34.06249999999999  0 30  C 0 25.937499999999996  0.7924107142857142 22.053571428571423  2.377232142857143 18.348214285714285  C 3.9620535714285716 14.642857142857137  6.09375 11.450892857142858  8.772321428571429 8.772321428571425  C 11.450892857142856 6.09375  14.642857142857144 3.96205357142857  18.34821428571429 2.377232142857142  Z M 40.479910714285715 34.285714285714285  C 45.83705357142858 34.285714285714285  49.25223214285714 37.93526785714286  50.72544642857142 45.234375  C 54.05133928571429 40.658482142857146  55.714285714285715 35.58035714285714  55.714285714285715 30  C 55.714285714285715 26.517857142857142  55.033482142857146 23.19196428571428  53.671875 20.022321428571427  C 52.31026785714286 16.85267857142857  50.47991071428573 14.118303571428566  48.18080357142858 11.819196428571425  C 45.88169642857144 9.520089285714286  43.14732142857143 7.68973214285714  39.97767857142858 6.328125  C 36.808035714285715 4.966517857142854  33.48214285714286 4.285714285714284  30 4.285714285714284  C 26.517857142857142 4.285714285714284  23.19196428571429 4.966517857142854  20.02232142857143 6.328125  C 16.852678571428573 7.68973214285714  14.118303571428573 9.520089285714286  11.819196428571429 11.819196428571425  C 9.520089285714288 14.118303571428566  7.689732142857143 16.85267857142857  6.328125 20.022321428571427  C 4.966517857142858 23.19196428571428  4.285714285714286 26.517857142857142  4.285714285714286 30  C 4.285714285714286 35.58035714285714  5.948660714285714 40.658482142857146  9.274553571428571 45.234375  C 10.747767857142856 37.93526785714286  14.162946428571429 34.285714285714285  19.52008928571429 34.285714285714285  C 22.44419642857143 37.142857142857146  25.9375 38.57142857142857  30 38.57142857142857  C 34.0625 38.57142857142857  37.55580357142857 37.142857142857146  40.479910714285715 34.285714285714285  Z M 39.090401785714285 32.66183035714286  C 41.6015625 30.150669642857142  42.85714285714286 27.120535714285715  42.85714285714286 23.571428571428573  C 42.85714285714286 20.022321428571427  41.6015625 16.9921875  39.090401785714285 14.481026785714285  C 36.57924107142858 11.969866071428575  33.54910714285714 10.714285714285715  30 10.714285714285715  C 26.450892857142858 10.714285714285715  23.42075892857143 11.969866071428575  20.90959821428571 14.481026785714285  C 18.3984375 16.9921875  17.142857142857142 20.022321428571427  17.142857142857142 23.571428571428573  C 17.142857142857142 27.120535714285715  18.3984375 30.150669642857142  20.90959821428571 32.66183035714286  C 23.42075892857143 35.17299107142857  26.450892857142858 36.42857142857143  30 36.42857142857143  C 33.54910714285714 36.42857142857143  36.57924107142858 35.17299107142857  39.090401785714285 32.66183035714286  Z " fill-rule="evenodd" />
    </mask>
  </defs>
  <g transform="matrix(1 0 0 1 -30 -23 )">
    <path d="M 18.34821428571429 2.377232142857142  C 22.05357142857143 0.792410714285714  25.9375 0  30 0  C 34.0625 0  37.94642857142858 0.792410714285714  41.651785714285715 2.377232142857142  C 45.35714285714286 3.96205357142857  48.54910714285714 6.09375  51.22767857142858 8.772321428571425  C 53.90625000000001 11.450892857142858  56.03794642857144 14.642857142857137  57.62276785714286 18.348214285714285  C 59.20758928571429 22.053571428571423  60 25.937499999999996  60 30  C 60 34.04017857142857  59.21316964285714 37.91294642857143  57.63950892857142 41.61830357142857  C 56.065848214285715 45.32366071428572  53.93973214285714 48.515625  51.261160714285715 51.19419642857143  C 48.582589285714285 53.87276785714286  45.39062500000001 56.01004464285714  41.68526785714286 57.606026785714285  C 37.979910714285715 59.20200892857143  34.08482142857142 60  30 60  C 25.91517857142857 60  22.02008928571429 59.207589285714285  18.314732142857142 57.62276785714286  C 14.609375 56.03794642857143  11.422991071428573 53.90066964285714  8.755580357142856 51.2109375  C 6.088169642857142 48.521205357142854  3.9620535714285716 45.32924107142857  2.377232142857143 41.63504464285714  C 0.7924107142857142 37.94084821428571  0 34.06249999999999  0 30  C 0 25.937499999999996  0.7924107142857142 22.053571428571423  2.377232142857143 18.348214285714285  C 3.9620535714285716 14.642857142857137  6.09375 11.450892857142858  8.772321428571429 8.772321428571425  C 11.450892857142856 6.09375  14.642857142857144 3.96205357142857  18.34821428571429 2.377232142857142  Z M 40.479910714285715 34.285714285714285  C 45.83705357142858 34.285714285714285  49.25223214285714 37.93526785714286  50.72544642857142 45.234375  C 54.05133928571429 40.658482142857146  55.714285714285715 35.58035714285714  55.714285714285715 30  C 55.714285714285715 26.517857142857142  55.033482142857146 23.19196428571428  53.671875 20.022321428571427  C 52.31026785714286 16.85267857142857  50.47991071428573 14.118303571428566  48.18080357142858 11.819196428571425  C 45.88169642857144 9.520089285714286  43.14732142857143 7.68973214285714  39.97767857142858 6.328125  C 36.808035714285715 4.966517857142854  33.48214285714286 4.285714285714284  30 4.285714285714284  C 26.517857142857142 4.285714285714284  23.19196428571429 4.966517857142854  20.02232142857143 6.328125  C 16.852678571428573 7.68973214285714  14.118303571428573 9.520089285714286  11.819196428571429 11.819196428571425  C 9.520089285714288 14.118303571428566  7.689732142857143 16.85267857142857  6.328125 20.022321428571427  C 4.966517857142858 23.19196428571428  4.285714285714286 26.517857142857142  4.285714285714286 30  C 4.285714285714286 35.58035714285714  5.948660714285714 40.658482142857146  9.274553571428571 45.234375  C 10.747767857142856 37.93526785714286  14.162946428571429 34.285714285714285  19.52008928571429 34.285714285714285  C 22.44419642857143 37.142857142857146  25.9375 38.57142857142857  30 38.57142857142857  C 34.0625 38.57142857142857  37.55580357142857 37.142857142857146  40.479910714285715 34.285714285714285  Z M 39.090401785714285 32.66183035714286  C 41.6015625 30.150669642857142  42.85714285714286 27.120535714285715  42.85714285714286 23.571428571428573  C 42.85714285714286 20.022321428571427  41.6015625 16.9921875  39.090401785714285 14.481026785714285  C 36.57924107142858 11.969866071428575  33.54910714285714 10.714285714285715  30 10.714285714285715  C 26.450892857142858 10.714285714285715  23.42075892857143 11.969866071428575  20.90959821428571 14.481026785714285  C 18.3984375 16.9921875  17.142857142857142 20.022321428571427  17.142857142857142 23.571428571428573  C 17.142857142857142 27.120535714285715  18.3984375 30.150669642857142  20.90959821428571 32.66183035714286  C 23.42075892857143 35.17299107142857  26.450892857142858 36.42857142857143  30 36.42857142857143  C 33.54910714285714 36.42857142857143  36.57924107142858 35.17299107142857  39.090401785714285 32.66183035714286  Z " fill-rule="nonzero" fill="rgba(0, 170, 131, 1)" stroke="none" transform="matrix(1 0 0 1 30 23 )" class="fill" />
    <path d="M 18.34821428571429 2.377232142857142  C 22.05357142857143 0.792410714285714  25.9375 0  30 0  C 34.0625 0  37.94642857142858 0.792410714285714  41.651785714285715 2.377232142857142  C 45.35714285714286 3.96205357142857  48.54910714285714 6.09375  51.22767857142858 8.772321428571425  C 53.90625000000001 11.450892857142858  56.03794642857144 14.642857142857137  57.62276785714286 18.348214285714285  C 59.20758928571429 22.053571428571423  60 25.937499999999996  60 30  C 60 34.04017857142857  59.21316964285714 37.91294642857143  57.63950892857142 41.61830357142857  C 56.065848214285715 45.32366071428572  53.93973214285714 48.515625  51.261160714285715 51.19419642857143  C 48.582589285714285 53.87276785714286  45.39062500000001 56.01004464285714  41.68526785714286 57.606026785714285  C 37.979910714285715 59.20200892857143  34.08482142857142 60  30 60  C 25.91517857142857 60  22.02008928571429 59.207589285714285  18.314732142857142 57.62276785714286  C 14.609375 56.03794642857143  11.422991071428573 53.90066964285714  8.755580357142856 51.2109375  C 6.088169642857142 48.521205357142854  3.9620535714285716 45.32924107142857  2.377232142857143 41.63504464285714  C 0.7924107142857142 37.94084821428571  0 34.06249999999999  0 30  C 0 25.937499999999996  0.7924107142857142 22.053571428571423  2.377232142857143 18.348214285714285  C 3.9620535714285716 14.642857142857137  6.09375 11.450892857142858  8.772321428571429 8.772321428571425  C 11.450892857142856 6.09375  14.642857142857144 3.96205357142857  18.34821428571429 2.377232142857142  Z " stroke-width="0" stroke-dasharray="0" stroke="rgba(255, 255, 255, 0)" fill="none" transform="matrix(1 0 0 1 30 23 )" class="stroke" mask="url(#Clip804)" />
    <path d="M 40.479910714285715 34.285714285714285  C 45.83705357142858 34.285714285714285  49.25223214285714 37.93526785714286  50.72544642857142 45.234375  C 54.05133928571429 40.658482142857146  55.714285714285715 35.58035714285714  55.714285714285715 30  C 55.714285714285715 26.517857142857142  55.033482142857146 23.19196428571428  53.671875 20.022321428571427  C 52.31026785714286 16.85267857142857  50.47991071428573 14.118303571428566  48.18080357142858 11.819196428571425  C 45.88169642857144 9.520089285714286  43.14732142857143 7.68973214285714  39.97767857142858 6.328125  C 36.808035714285715 4.966517857142854  33.48214285714286 4.285714285714284  30 4.285714285714284  C 26.517857142857142 4.285714285714284  23.19196428571429 4.966517857142854  20.02232142857143 6.328125  C 16.852678571428573 7.68973214285714  14.118303571428573 9.520089285714286  11.819196428571429 11.819196428571425  C 9.520089285714288 14.118303571428566  7.689732142857143 16.85267857142857  6.328125 20.022321428571427  C 4.966517857142858 23.19196428571428  4.285714285714286 26.517857142857142  4.285714285714286 30  C 4.285714285714286 35.58035714285714  5.948660714285714 40.658482142857146  9.274553571428571 45.234375  C 10.747767857142856 37.93526785714286  14.162946428571429 34.285714285714285  19.52008928571429 34.285714285714285  C 22.44419642857143 37.142857142857146  25.9375 38.57142857142857  30 38.57142857142857  C 34.0625 38.57142857142857  37.55580357142857 37.142857142857146  40.479910714285715 34.285714285714285  Z " stroke-width="0" stroke-dasharray="0" stroke="rgba(255, 255, 255, 0)" fill="none" transform="matrix(1 0 0 1 30 23 )" class="stroke" mask="url(#Clip804)" />
    <path d="M 39.090401785714285 32.66183035714286  C 41.6015625 30.150669642857142  42.85714285714286 27.120535714285715  42.85714285714286 23.571428571428573  C 42.85714285714286 20.022321428571427  41.6015625 16.9921875  39.090401785714285 14.481026785714285  C 36.57924107142858 11.969866071428575  33.54910714285714 10.714285714285715  30 10.714285714285715  C 26.450892857142858 10.714285714285715  23.42075892857143 11.969866071428575  20.90959821428571 14.481026785714285  C 18.3984375 16.9921875  17.142857142857142 20.022321428571427  17.142857142857142 23.571428571428573  C 17.142857142857142 27.120535714285715  18.3984375 30.150669642857142  20.90959821428571 32.66183035714286  C 23.42075892857143 35.17299107142857  26.450892857142858 36.42857142857143  30 36.42857142857143  C 33.54910714285714 36.42857142857143  36.57924107142858 35.17299107142857  39.090401785714285 32.66183035714286  Z " stroke-width="0" stroke-dasharray="0" stroke="rgba(255, 255, 255, 0)" fill="none" transform="matrix(1 0 0 1 30 23 )" class="stroke" mask="url(#Clip804)" />
  </g>
</svg>