<?xml version="1.0" encoding="utf-8"?>
<svg version="1.1" xmlns:xlink="http://www.w3.org/1999/xlink" width="35px" height="31px" xmlns="http://www.w3.org/2000/svg">
  <defs>
    <pattern id="BGPattern" patternUnits="userSpaceOnUse" alignment="0 0" imageRepeat="None" />
    <mask fill="white" id="Clip518">
      <path d="M 23.993389423076923 6.965198863636363  C 24.664463141025642 8.357244318181818  25 9.803977272727272  25 11.305397727272727  C 25 12.955965909090908  24.699519230769234 14.517045454545451  24.098557692307693 15.988636363636363  L 23.798076923076923 16.719460227272727  L 21.018629807692307 17.211647727272727  C 20.798277243589748 18.036931818181817  20.345052083333336 18.715553977272727  19.658954326923077 19.247514204545453  C 18.97285657051282 19.779474431818183  18.189102564102566 20.045454545454547  17.307692307692307 20.045454545454547  L 17.307692307692307 20.522727272727273  C 17.307692307692307 20.661931818181817  17.262620192307693 20.77627840909091  17.17247596153846 20.865767045454547  C 17.082331730769234 20.955255681818183  16.967147435897438 21  16.826923076923077 21  L 15.865384615384615 21  C 15.725160256410259 21  15.609975961538462 20.955255681818183  15.519831730769232 20.865767045454547  C 15.4296875 20.77627840909091  15.384615384615385 20.661931818181817  15.384615384615385 20.522727272727273  L 15.384615384615385 11.93181818181818  C 15.384615384615385 11.792613636363637  15.4296875 11.678267045454547  15.519831730769232 11.588778409090907  C 15.609975961538462 11.499289772727273  15.725160256410259 11.454545454545453  15.865384615384615 11.454545454545453  L 16.826923076923077 11.454545454545453  C 16.967147435897438 11.454545454545453  17.082331730769234 11.499289772727273  17.17247596153846 11.588778409090907  C 17.262620192307693 11.678267045454547  17.307692307692307 11.792613636363637  17.307692307692307 11.93181818181818  L 17.307692307692307 12.409090909090907  C 18.018830128205128 12.409090909090907  18.669871794871796 12.585582386363635  19.260817307692307 12.938565340909093  C 19.85176282051282 13.291548295454543  20.317508012820515 13.766335227272727  20.658052884615387 14.362926136363637  L 21.6796875 14.183948863636363  C 21.970152243589748 13.23934659090909  22.115384615384613 12.279829545454545  22.115384615384613 11.305397727272727  C 22.115384615384613 9.833806818181818  21.67467948717949 8.446732954545455  20.793269230769234 7.144176136363637  C 19.911858974358974 5.841619318181818  18.727463942307693 4.8025568181818175  17.240084134615387 4.026988636363637  C 15.752704326923078 3.2514204545454537  14.172676282051283 2.8636363636363633  12.5 2.8636363636363633  C 10.827323717948719 2.8636363636363633  9.247295673076923 3.2514204545454537  7.759915865384616 4.026988636363637  C 6.2725360576923075 4.8025568181818175  5.0881410256410255 5.841619318181818  4.206730769230769 7.144176136363637  C 3.3253205128205128 8.446732954545455  2.8846153846153846 9.833806818181818  2.8846153846153846 11.305397727272727  C 2.8846153846153846 12.279829545454545  3.0298477564102564 13.23934659090909  3.3203125 14.183948863636363  L 4.341947115384615 14.362926136363637  C 4.682491987179487 13.766335227272727  5.14823717948718 13.291548295454543  5.739182692307692 12.938565340909093  C 6.330128205128206 12.585582386363635  6.981169871794873 12.409090909090907  7.6923076923076925 12.409090909090907  L 7.6923076923076925 11.93181818181818  C 7.6923076923076925 11.792613636363637  7.7373798076923075 11.678267045454547  7.827524038461539 11.588778409090907  C 7.917668269230769 11.499289772727273  8.032852564102564 11.454545454545453  8.173076923076923 11.454545454545453  L 9.134615384615383 11.454545454545453  C 9.274839743589745 11.454545454545453  9.390024038461538 11.499289772727273  9.48016826923077 11.588778409090907  C 9.5703125 11.678267045454547  9.615384615384617 11.792613636363637  9.615384615384617 11.93181818181818  L 9.615384615384617 20.522727272727273  C 9.615384615384617 20.661931818181817  9.5703125 20.77627840909091  9.48016826923077 20.865767045454547  C 9.390024038461538 20.955255681818183  9.274839743589745 21  9.134615384615383 21  L 8.173076923076923 21  C 8.032852564102564 21  7.917668269230769 20.955255681818183  7.827524038461539 20.865767045454547  C 7.7373798076923075 20.77627840909091  7.6923076923076925 20.661931818181817  7.6923076923076925 20.522727272727273  L 7.6923076923076925 20.045454545454547  C 6.810897435897437 20.045454545454547  6.02714342948718 19.779474431818183  5.341045673076923 19.247514204545453  C 4.654947916666667 18.715553977272727  4.201722756410256 18.036931818181817  3.981370192307692 17.211647727272727  L 1.201923076923077 16.719460227272727  L 0.9014423076923076 15.988636363636363  C 0.3004807692307693 14.517045454545451  0 12.955965909090908  0 11.305397727272727  C 0 9.803977272727272  0.335536858974359 8.357244318181818  1.006610576923077 6.965198863636363  C 1.6776842948717947 5.5731534090909065  2.57411858974359 4.3675426136363615  3.6959134615384617 3.3483664772727266  C 4.817708333333334 2.3291903409090895  6.149839743589744 1.5163352272727262  7.6923076923076925 0.9098011363636366  C 9.234775641025642 0.30326704545454475  10.837339743589745 0  12.5 0  C 14.162660256410259 0  15.765224358974361 0.30326704545454475  17.307692307692307 0.9098011363636366  C 18.85016025641026 1.5163352272727262  20.182291666666668 2.3291903409090895  21.30408653846154 3.3483664772727266  C 22.425881410256412 4.3675426136363615  23.322315705128208 5.5731534090909065  23.993389423076923 6.965198863636363  Z " fill-rule="evenodd" />
    </mask>
  </defs>
  <g transform="matrix(1 0 0 1 -312 -293 )">
    <path d="M 23.993389423076923 6.965198863636363  C 24.664463141025642 8.357244318181818  25 9.803977272727272  25 11.305397727272727  C 25 12.955965909090908  24.699519230769234 14.517045454545451  24.098557692307693 15.988636363636363  L 23.798076923076923 16.719460227272727  L 21.018629807692307 17.211647727272727  C 20.798277243589748 18.036931818181817  20.345052083333336 18.715553977272727  19.658954326923077 19.247514204545453  C 18.97285657051282 19.779474431818183  18.189102564102566 20.045454545454547  17.307692307692307 20.045454545454547  L 17.307692307692307 20.522727272727273  C 17.307692307692307 20.661931818181817  17.262620192307693 20.77627840909091  17.17247596153846 20.865767045454547  C 17.082331730769234 20.955255681818183  16.967147435897438 21  16.826923076923077 21  L 15.865384615384615 21  C 15.725160256410259 21  15.609975961538462 20.955255681818183  15.519831730769232 20.865767045454547  C 15.4296875 20.77627840909091  15.384615384615385 20.661931818181817  15.384615384615385 20.522727272727273  L 15.384615384615385 11.93181818181818  C 15.384615384615385 11.792613636363637  15.4296875 11.678267045454547  15.519831730769232 11.588778409090907  C 15.609975961538462 11.499289772727273  15.725160256410259 11.454545454545453  15.865384615384615 11.454545454545453  L 16.826923076923077 11.454545454545453  C 16.967147435897438 11.454545454545453  17.082331730769234 11.499289772727273  17.17247596153846 11.588778409090907  C 17.262620192307693 11.678267045454547  17.307692307692307 11.792613636363637  17.307692307692307 11.93181818181818  L 17.307692307692307 12.409090909090907  C 18.018830128205128 12.409090909090907  18.669871794871796 12.585582386363635  19.260817307692307 12.938565340909093  C 19.85176282051282 13.291548295454543  20.317508012820515 13.766335227272727  20.658052884615387 14.362926136363637  L 21.6796875 14.183948863636363  C 21.970152243589748 13.23934659090909  22.115384615384613 12.279829545454545  22.115384615384613 11.305397727272727  C 22.115384615384613 9.833806818181818  21.67467948717949 8.446732954545455  20.793269230769234 7.144176136363637  C 19.911858974358974 5.841619318181818  18.727463942307693 4.8025568181818175  17.240084134615387 4.026988636363637  C 15.752704326923078 3.2514204545454537  14.172676282051283 2.8636363636363633  12.5 2.8636363636363633  C 10.827323717948719 2.8636363636363633  9.247295673076923 3.2514204545454537  7.759915865384616 4.026988636363637  C 6.2725360576923075 4.8025568181818175  5.0881410256410255 5.841619318181818  4.206730769230769 7.144176136363637  C 3.3253205128205128 8.446732954545455  2.8846153846153846 9.833806818181818  2.8846153846153846 11.305397727272727  C 2.8846153846153846 12.279829545454545  3.0298477564102564 13.23934659090909  3.3203125 14.183948863636363  L 4.341947115384615 14.362926136363637  C 4.682491987179487 13.766335227272727  5.14823717948718 13.291548295454543  5.739182692307692 12.938565340909093  C 6.330128205128206 12.585582386363635  6.981169871794873 12.409090909090907  7.6923076923076925 12.409090909090907  L 7.6923076923076925 11.93181818181818  C 7.6923076923076925 11.792613636363637  7.7373798076923075 11.678267045454547  7.827524038461539 11.588778409090907  C 7.917668269230769 11.499289772727273  8.032852564102564 11.454545454545453  8.173076923076923 11.454545454545453  L 9.134615384615383 11.454545454545453  C 9.274839743589745 11.454545454545453  9.390024038461538 11.499289772727273  9.48016826923077 11.588778409090907  C 9.5703125 11.678267045454547  9.615384615384617 11.792613636363637  9.615384615384617 11.93181818181818  L 9.615384615384617 20.522727272727273  C 9.615384615384617 20.661931818181817  9.5703125 20.77627840909091  9.48016826923077 20.865767045454547  C 9.390024038461538 20.955255681818183  9.274839743589745 21  9.134615384615383 21  L 8.173076923076923 21  C 8.032852564102564 21  7.917668269230769 20.955255681818183  7.827524038461539 20.865767045454547  C 7.7373798076923075 20.77627840909091  7.6923076923076925 20.661931818181817  7.6923076923076925 20.522727272727273  L 7.6923076923076925 20.045454545454547  C 6.810897435897437 20.045454545454547  6.02714342948718 19.779474431818183  5.341045673076923 19.247514204545453  C 4.654947916666667 18.715553977272727  4.201722756410256 18.036931818181817  3.981370192307692 17.211647727272727  L 1.201923076923077 16.719460227272727  L 0.9014423076923076 15.988636363636363  C 0.3004807692307693 14.517045454545451  0 12.955965909090908  0 11.305397727272727  C 0 9.803977272727272  0.335536858974359 8.357244318181818  1.006610576923077 6.965198863636363  C 1.6776842948717947 5.5731534090909065  2.57411858974359 4.3675426136363615  3.6959134615384617 3.3483664772727266  C 4.817708333333334 2.3291903409090895  6.149839743589744 1.5163352272727262  7.6923076923076925 0.9098011363636366  C 9.234775641025642 0.30326704545454475  10.837339743589745 0  12.5 0  C 14.162660256410259 0  15.765224358974361 0.30326704545454475  17.307692307692307 0.9098011363636366  C 18.85016025641026 1.5163352272727262  20.182291666666668 2.3291903409090895  21.30408653846154 3.3483664772727266  C 22.425881410256412 4.3675426136363615  23.322315705128208 5.5731534090909065  23.993389423076923 6.965198863636363  Z " fill-rule="nonzero" fill="rgba(127, 127, 127, 1)" stroke="none" transform="matrix(1 0 0 1 316 297 )" class="fill" />
    <path d="M 23.993389423076923 6.965198863636363  C 24.664463141025642 8.357244318181818  25 9.803977272727272  25 11.305397727272727  C 25 12.955965909090908  24.699519230769234 14.517045454545451  24.098557692307693 15.988636363636363  L 23.798076923076923 16.719460227272727  L 21.018629807692307 17.211647727272727  C 20.798277243589748 18.036931818181817  20.345052083333336 18.715553977272727  19.658954326923077 19.247514204545453  C 18.97285657051282 19.779474431818183  18.189102564102566 20.045454545454547  17.307692307692307 20.045454545454547  L 17.307692307692307 20.522727272727273  C 17.307692307692307 20.661931818181817  17.262620192307693 20.77627840909091  17.17247596153846 20.865767045454547  C 17.082331730769234 20.955255681818183  16.967147435897438 21  16.826923076923077 21  L 15.865384615384615 21  C 15.725160256410259 21  15.609975961538462 20.955255681818183  15.519831730769232 20.865767045454547  C 15.4296875 20.77627840909091  15.384615384615385 20.661931818181817  15.384615384615385 20.522727272727273  L 15.384615384615385 11.93181818181818  C 15.384615384615385 11.792613636363637  15.4296875 11.678267045454547  15.519831730769232 11.588778409090907  C 15.609975961538462 11.499289772727273  15.725160256410259 11.454545454545453  15.865384615384615 11.454545454545453  L 16.826923076923077 11.454545454545453  C 16.967147435897438 11.454545454545453  17.082331730769234 11.499289772727273  17.17247596153846 11.588778409090907  C 17.262620192307693 11.678267045454547  17.307692307692307 11.792613636363637  17.307692307692307 11.93181818181818  L 17.307692307692307 12.409090909090907  C 18.018830128205128 12.409090909090907  18.669871794871796 12.585582386363635  19.260817307692307 12.938565340909093  C 19.85176282051282 13.291548295454543  20.317508012820515 13.766335227272727  20.658052884615387 14.362926136363637  L 21.6796875 14.183948863636363  C 21.970152243589748 13.23934659090909  22.115384615384613 12.279829545454545  22.115384615384613 11.305397727272727  C 22.115384615384613 9.833806818181818  21.67467948717949 8.446732954545455  20.793269230769234 7.144176136363637  C 19.911858974358974 5.841619318181818  18.727463942307693 4.8025568181818175  17.240084134615387 4.026988636363637  C 15.752704326923078 3.2514204545454537  14.172676282051283 2.8636363636363633  12.5 2.8636363636363633  C 10.827323717948719 2.8636363636363633  9.247295673076923 3.2514204545454537  7.759915865384616 4.026988636363637  C 6.2725360576923075 4.8025568181818175  5.0881410256410255 5.841619318181818  4.206730769230769 7.144176136363637  C 3.3253205128205128 8.446732954545455  2.8846153846153846 9.833806818181818  2.8846153846153846 11.305397727272727  C 2.8846153846153846 12.279829545454545  3.0298477564102564 13.23934659090909  3.3203125 14.183948863636363  L 4.341947115384615 14.362926136363637  C 4.682491987179487 13.766335227272727  5.14823717948718 13.291548295454543  5.739182692307692 12.938565340909093  C 6.330128205128206 12.585582386363635  6.981169871794873 12.409090909090907  7.6923076923076925 12.409090909090907  L 7.6923076923076925 11.93181818181818  C 7.6923076923076925 11.792613636363637  7.7373798076923075 11.678267045454547  7.827524038461539 11.588778409090907  C 7.917668269230769 11.499289772727273  8.032852564102564 11.454545454545453  8.173076923076923 11.454545454545453  L 9.134615384615383 11.454545454545453  C 9.274839743589745 11.454545454545453  9.390024038461538 11.499289772727273  9.48016826923077 11.588778409090907  C 9.5703125 11.678267045454547  9.615384615384617 11.792613636363637  9.615384615384617 11.93181818181818  L 9.615384615384617 20.522727272727273  C 9.615384615384617 20.661931818181817  9.5703125 20.77627840909091  9.48016826923077 20.865767045454547  C 9.390024038461538 20.955255681818183  9.274839743589745 21  9.134615384615383 21  L 8.173076923076923 21  C 8.032852564102564 21  7.917668269230769 20.955255681818183  7.827524038461539 20.865767045454547  C 7.7373798076923075 20.77627840909091  7.6923076923076925 20.661931818181817  7.6923076923076925 20.522727272727273  L 7.6923076923076925 20.045454545454547  C 6.810897435897437 20.045454545454547  6.02714342948718 19.779474431818183  5.341045673076923 19.247514204545453  C 4.654947916666667 18.715553977272727  4.201722756410256 18.036931818181817  3.981370192307692 17.211647727272727  L 1.201923076923077 16.719460227272727  L 0.9014423076923076 15.988636363636363  C 0.3004807692307693 14.517045454545451  0 12.955965909090908  0 11.305397727272727  C 0 9.803977272727272  0.335536858974359 8.357244318181818  1.006610576923077 6.965198863636363  C 1.6776842948717947 5.5731534090909065  2.57411858974359 4.3675426136363615  3.6959134615384617 3.3483664772727266  C 4.817708333333334 2.3291903409090895  6.149839743589744 1.5163352272727262  7.6923076923076925 0.9098011363636366  C 9.234775641025642 0.30326704545454475  10.837339743589745 0  12.5 0  C 14.162660256410259 0  15.765224358974361 0.30326704545454475  17.307692307692307 0.9098011363636366  C 18.85016025641026 1.5163352272727262  20.182291666666668 2.3291903409090895  21.30408653846154 3.3483664772727266  C 22.425881410256412 4.3675426136363615  23.322315705128208 5.5731534090909065  23.993389423076923 6.965198863636363  Z " stroke-width="0" stroke-dasharray="0" stroke="rgba(255, 255, 255, 0)" fill="none" transform="matrix(1 0 0 1 316 297 )" class="stroke" mask="url(#Clip518)" />
  </g>
  <style>svg { filter: drop-shadow(1px 1px 2.5px rgba(0, 0, 0, 0.3137254901960784)); }</style>
</svg>