<?xml version="1.0" encoding="utf-8"?>
<svg version="1.1" xmlns:xlink="http://www.w3.org/1999/xlink" width="35px" height="33px" xmlns="http://www.w3.org/2000/svg">
  <defs>
    <pattern id="BGPattern" patternUnits="userSpaceOnUse" alignment="0 0" imageRepeat="None" />
    <mask fill="white" id="Clip519">
      <path d="M 10.690104166666666 13.857467348097673  C 11.341145833333334 13.204429301533219  11.666666666666666 12.416430058678783  11.666666666666666 11.493469619534357  C 11.666666666666666 10.570509180389928  11.341145833333334 9.78250993753549  10.690104166666666 9.129471890971038  C 10.0390625 8.476433844406586  9.253472222222223 8.149914821124362  8.333333333333332 8.149914821124362  C 7.413194444444445 8.149914821124362  6.627604166666668 8.476433844406586  5.9765625 9.129471890971038  C 5.325520833333333 9.78250993753549  5 10.570509180389928  5 11.493469619534357  C 5 12.416430058678783  5.325520833333333 13.204429301533219  5.9765625 13.857467348097673  C 6.627604166666668 14.510505394662122  7.413194444444445 14.83702441794435  8.333333333333332 14.83702441794435  C 9.253472222222223 14.83702441794435  10.0390625 14.510505394662122  10.690104166666666 13.857467348097673  Z M 21.178385416666668 19.362578080636002  C 21.50390625 19.03605905735378  21.666666666666668 18.642059435926555  21.666666666666668 18.180579216354342  C 21.666666666666668 17.727806170736322  21.501736111111114 17.33598334279765  21.171875 17.00511073253833  C 20.842013888888893 16.674238122279007  20.451388888888893 16.508801817149347  20 16.508801817149347  C 19.548611111111114 16.508801817149347  19.157986111111114 16.674238122279007  18.828125 17.00511073253833  C 18.498263888888893 17.33598334279765  18.333333333333332 17.727806170736322  18.333333333333332 18.180579216354342  C 18.333333333333332 18.642059435926555  18.49609375 19.03605905735378  18.821614583333332 19.362578080636002  C 19.147135416666668 19.689097103918225  19.539930555555557 19.85235661555934  20 19.85235661555934  C 20.460069444444446 19.85235661555934  20.852864583333332 19.689097103918225  21.178385416666668 19.362578080636002  Z M 21.178385416666668 5.988358886996026  C 21.50390625 5.6618398637138  21.666666666666668 5.26784024228658  21.666666666666668 4.806360022714368  C 21.666666666666668 4.353586977096346  21.501736111111114 3.9617641491576743  21.171875 3.6308915388983536  C 20.842013888888893 3.3000189286390302  20.451388888888893 3.1345826235093694  20 3.1345826235093694  C 19.548611111111114 3.1345826235093694  19.157986111111114 3.3000189286390302  18.828125 3.6308915388983536  C 18.498263888888893 3.9617641491576743  18.333333333333332 4.353586977096346  18.333333333333332 4.806360022714368  C 18.333333333333332 5.26784024228658  18.49609375 5.6618398637138  18.821614583333332 5.988358886996026  C 19.147135416666668 6.314877910278252  19.539930555555557 6.478137421919364  20 6.478137421919364  C 20.460069444444446 6.478137421919364  20.852864583333332 6.314877910278252  21.178385416666668 5.988358886996026  Z M 16.575520833333332 10.050255536626915  C 16.63628472222222 10.124266515237554  16.666666666666664 10.209161461290932  16.666666666666664 10.304940374787053  L 16.666666666666664 12.721181147075525  C 16.666666666666664 12.808252886617451  16.63628472222222 12.893147832670829  16.575520833333332 12.97586598523566  C 16.514756944444446 13.05858413780049  16.4453125 13.104296801060002  16.3671875 13.113003975014196  L 14.348958333333334 13.426462237365133  C 14.253472222222225 13.731213325761876  14.114583333333334 14.062085936021198  13.932291666666666 14.419080068143101  C 14.227430555555557 14.83702441794435  14.618055555555557 15.337686920310427  15.104166666666666 15.92106757524134  C 15.164930555555555 16.016846488737457  15.1953125 16.103918228279387  15.1953125 16.18228279386712  C 15.1953125 16.286768881317432  15.164930555555555 16.369487033882265  15.104166666666666 16.430437251561614  C 14.90451388888889 16.691652470187393  14.546440972222225 17.081298504637513  14.029947916666666 17.59937535491198  C 13.513454861111112 18.11745220518645  13.172743055555555 18.37649063032368  13.007812499999998 18.37649063032368  C 12.91232638888889 18.37649063032368  12.821180555555555 18.346015521484006  12.734375 18.285065303804654  L 11.236979166666666 17.109596819988642  C 10.915798611111112 17.275033125118306  10.581597222222223 17.40999432140829  10.234375 17.514480408858603  C 10.138888888888891 18.454855195911417  10.0390625 19.12966117736135  9.934895833333334 19.538898353208403  C 9.874131944444445 19.74787052810903  9.743923611111112 19.85235661555934  9.544270833333334 19.85235661555934  L 7.122395833333334 19.85235661555934  C 7.026909722222223 19.85235661555934  6.940104166666666 19.81970471323112  6.861979166666667 19.754400908574674  C 6.783854166666667 19.689097103918225  6.740451388888889 19.612909331819044  6.731770833333334 19.525837592277114  L 6.432291666666666 17.52754116978989  C 6.137152777777779 17.440469430247965  5.811631944444445 17.30550823395798  5.455729166666667 17.12265758091993  L 3.9192708333333335 18.285065303804654  C 3.8585069444444446 18.346015521484006  3.7717013888888893 18.37649063032368  3.658854166666667 18.37649063032368  C 3.5633680555555562 18.37649063032368  3.4722222222222223 18.34166193450691  3.3854166666666665 18.27200454287337  C 2.1354166666666665 17.11395040696574  1.5104166666666667 16.417376490630325  1.5104166666666667 16.18228279386712  C 1.5104166666666667 16.103918228279387  1.5407986111111112 16.021200075714553  1.6015624999999998 15.934128336172629  C 1.6883680555555558 15.81222790081393  1.8663194444444444 15.581487791027824  2.1354166666666665 15.24190800681431  C 2.404513888888889 14.902328222600794  2.608506944444445 14.636759416997915  2.7473958333333335 14.445201590005679  C 2.547743055555556 14.062085936021198  2.3958333333333335 13.705091803899299  2.2916666666666665 13.374219193639977  L 0.3125 13.06076093128904  C 0.22569444444444448 13.052053757334846  0.15190972222222224 13.010694681052433  0.09114583333333333 12.936683702441796  C 0.03038194444444444 12.862672723831157  0 12.777777777777779  0 12.681998864281658  L 0 10.265758091993186  C 0 10.178686352451257  0.03038194444444444 10.09379140639788  0.09114583333333333 10.011073253833048  C 0.15190972222222224 9.928355101268219  0.22135416666666666 9.882642438008705  0.2994791666666667 9.873935264054515  L 2.3177083333333335 9.560477001703577  C 2.4131944444444446 9.255725913306833  2.5520833333333335 8.924853303047511  2.734375 8.56785917092561  C 2.439236111111111 8.149914821124362  2.048611111111111 7.649252318758279  1.5625 7.065871663827371  C 1.5017361111111112 6.970092750331248  1.4713541666666667 6.883021010789324  1.4713541666666667 6.80465644520159  C 1.4713541666666667 6.7001703577512775  1.5017361111111112 6.613098618209349  1.5625 6.543441226575809  C 1.7534722222222225 6.282226007950028  2.109375 5.8947567669884515  2.6302083333333335 5.381033503691084  C 3.1510416666666665 4.867310240393714  3.493923611111112 4.610448608745032  3.658854166666667 4.610448608745032  C 3.754340277777778 4.610448608745032  3.845486111111111 4.640923717584705  3.9322916666666665 4.7018739352640555  L 5.4296875 5.877342419080067  C 5.724826388888889 5.720613287904599  6.059027777777779 5.581298504637517  6.432291666666666 5.4593980692788175  C 6.527777777777779 4.519023282226009  6.627604166666666 3.8485708877531675  6.731770833333334 3.4480408858603067  C 6.792534722222224 3.239068710959682  6.922743055555556 3.1345826235093694  7.122395833333334 3.1345826235093694  L 9.544270833333334 3.1345826235093694  C 9.639756944444446 3.1345826235093694  9.7265625 3.1672345258375936  9.8046875 3.2325383304940387  C 9.8828125 3.297842135150481  9.926215277777779 3.374029907249667  9.934895833333334 3.4611016467915956  L 10.234375 5.4593980692788175  C 10.529513888888891 5.546469808820744  10.855034722222223 5.681431005110732  11.2109375 5.864281658148778  L 12.747395833333334 4.7018739352640555  C 12.81684027777778 4.640923717584705  12.903645833333336 4.610448608745032  13.007812499999998 4.610448608745032  C 13.10329861111111 4.610448608745032  13.194444444444445 4.6452773045618  13.28125 4.714934696195344  C 14.531250000000002 5.872988832102971  15.156249999999998 6.569562748438387  15.156249999999998 6.80465644520159  C 15.156249999999998 6.87431383683513  15.125868055555555 6.957031989399959  15.065104166666668 7.052810902896082  C 14.960937499999998 7.192125686163162  14.778645833333334 7.427219382926365  14.518229166666666 7.75809199318569  C 14.2578125 8.088964603445012  14.0625 8.350179822070793  13.932291666666666 8.541737649063032  C 14.131944444444446 8.959681998864282  14.27951388888889 9.31667613098618  14.374999999999998 9.612720045428734  L 16.354166666666668 9.913117546848381  C 16.44097222222222 9.930531894756765  16.514756944444446 9.976244558016278  16.575520833333332 10.050255536626915  Z M 23.059895833333332 16.861442362294152  C 24.353298611111114 16.99204997160704  25.000000000000007 17.127011167897027  25 17.266325951164113  L 25 19.094832481544575  C 25.000000000000007 19.23414726481166  24.353298611111114 19.369108461101646  23.059895833333332 19.499716070414536  C 22.955729166666668 19.73480976717774  22.825520833333332 19.96119628998675  22.669270833333332 20.178875638841568  C 23.111979166666664 21.16278629566534  23.333333333333332 21.763581298504636  23.333333333333332 21.981260647359456  C 23.333333333333332 22.016089343176226  23.31597222222222 22.0465644520159  23.28125 22.072685973878478  C 22.222222222222225 22.690895324626158  21.68402777777778 23  21.666666666666668 23  C 21.597222222222225 23  21.397569444444446 22.79538141207647  21.067708333333332 22.386144236229416  C 20.73784722222222 21.97690706038236  20.51215277777778 21.680863145939806  20.390625 21.49801249290176  C 20.21701388888889 21.515426840810147  20.086805555555557 21.52413401476434  20 21.52413401476434  C 19.913194444444446 21.52413401476434  19.782986111111114 21.515426840810147  19.609375 21.49801249290176  C 19.487847222222225 21.680863145939806  19.26215277777778 21.97690706038236  18.932291666666668 22.386144236229416  C 18.602430555555557 22.79538141207647  18.40277777777778 23  18.333333333333332 23  C 18.315972222222225 23  17.77777777777778 22.690895324626158  16.71875 22.072685973878478  C 16.68402777777778 22.0465644520159  16.666666666666664 22.016089343176226  16.666666666666664 21.981260647359456  C 16.666666666666664 21.763581298504636  16.888020833333332 21.16278629566534  17.330729166666668 20.178875638841568  C 17.174479166666668 19.96119628998675  17.044270833333332 19.73480976717774  16.940104166666668 19.499716070414536  C 15.64670138888889 19.369108461101646  15 19.23414726481166  15 19.094832481544575  L 15 17.266325951164113  C 15 17.127011167897027  15.64670138888889 16.99204997160704  16.940104166666668 16.861442362294152  C 17.05295138888889 16.60893431762256  17.183159722222225 16.38254779481355  17.330729166666668 16.18228279386712  C 16.888020833333332 15.198372137043345  16.666666666666664 14.597577134204048  16.666666666666664 14.379897785349232  C 16.666666666666664 14.345069089532462  16.68402777777778 14.31459398069279  16.71875 14.288472458830212  C 16.753472222222225 14.271058110921823  16.905381944444446 14.183986371379898  17.174479166666668 14.02725724020443  C 17.44357638888889 13.870528109028962  17.69965277777778 13.722506151807682  17.942708333333332 13.583191368540602  C 18.18576388888889 13.443876585273518  18.315972222222225 13.374219193639977  18.333333333333332 13.374219193639977  C 18.40277777777778 13.374219193639977  18.602430555555557 13.576660988074956  18.932291666666668 13.981544576944916  C 19.26215277777778 14.386428165814877  19.487847222222225 14.680295286768882  19.609375 14.863145939806929  C 19.782986111111114 14.845731591898543  19.913194444444446 14.83702441794435  20 14.83702441794435  C 20.086805555555557 14.83702441794435  20.21701388888889 14.845731591898543  20.390625 14.863145939806929  C 20.833333333333336 14.244936589059243  21.232638888888893 13.757334847624454  21.588541666666668 13.400340715502555  L 21.666666666666668 13.374219193639977  C 21.701388888888893 13.374219193639977  22.23958333333334 13.67897028203672  23.28125 14.288472458830212  C 23.31597222222222 14.31459398069279  23.333333333333332 14.345069089532462  23.333333333333332 14.379897785349232  C 23.333333333333332 14.597577134204048  23.111979166666664 15.198372137043345  22.669270833333332 16.18228279386712  C 22.816840277777782 16.38254779481355  22.94704861111111 16.60893431762256  23.059895833333332 16.861442362294152  Z M 23.059895833333332 3.487223168654174  C 24.353298611111114 3.6178307779670646  25.000000000000007 3.7527919742570495  25 3.8921067575241346  L 25 5.720613287904599  C 25.000000000000007 5.859928071171681  24.353298611111114 5.994889267461669  23.059895833333332 6.12549687677456  C 22.955729166666668 6.360590573537762  22.825520833333332 6.586977096346771  22.669270833333332 6.80465644520159  C 23.111979166666664 7.788567102025364  23.333333333333332 8.38936210486466  23.333333333333332 8.607041453719477  C 23.333333333333332 8.641870149536247  23.31597222222222 8.672345258375922  23.28125 8.6984667802385  C 22.222222222222225 9.31667613098618  21.68402777777778 9.625780806360023  21.666666666666668 9.625780806360023  C 21.597222222222225 9.625780806360023  21.397569444444446 9.421162218436493  21.067708333333332 9.011925042589437  C 20.73784722222222 8.602687866742379  20.51215277777778 8.306643952299828  20.390625 8.123793299261784  C 20.21701388888889 8.141207647170168  20.086805555555557 8.149914821124362  20 8.149914821124362  C 19.913194444444446 8.149914821124362  19.782986111111114 8.141207647170168  19.609375 8.123793299261784  C 19.487847222222225 8.306643952299828  19.26215277777778 8.602687866742379  18.932291666666668 9.011925042589437  C 18.602430555555557 9.421162218436493  18.40277777777778 9.625780806360023  18.333333333333332 9.625780806360023  C 18.315972222222225 9.625780806360023  17.77777777777778 9.31667613098618  16.71875 8.6984667802385  C 16.68402777777778 8.672345258375922  16.666666666666664 8.641870149536247  16.666666666666664 8.607041453719477  C 16.666666666666664 8.38936210486466  16.888020833333332 7.788567102025364  17.330729166666668 6.80465644520159  C 17.174479166666668 6.586977096346771  17.044270833333332 6.360590573537762  16.940104166666668 6.12549687677456  C 15.64670138888889 5.994889267461669  15 5.859928071171681  15 5.720613287904599  L 15 3.8921067575241346  C 15 3.7527919742570495  15.64670138888889 3.6178307779670646  16.940104166666668 3.487223168654174  C 17.05295138888889 3.2347151239825847  17.183159722222225 3.0083286011735737  17.330729166666668 2.8080636002271433  C 16.888020833333332 1.8241529434033672  16.666666666666664 1.223357940564071  16.666666666666664 1.0056785917092568  C 16.666666666666664 0.9708498958924844  16.68402777777778 0.9403747870528116  16.71875 0.9142532651902335  C 16.753472222222225 0.8968389172818447  16.905381944444446 0.8097671777399211  17.174479166666668 0.6530380465644525  C 17.44357638888889 0.4963089153889839  17.69965277777778 0.3482869581677046  17.942708333333332 0.2089721749006248  C 18.18576388888889 0.0696573916335399  18.315972222222225 0  18.333333333333332 0  C 18.40277777777778 0  18.602430555555557 0.202441794434979  18.932291666666668 0.6073253833049396  C 19.26215277777778 1.0122089721749001  19.487847222222225 1.306076093128905  19.609375 1.4889267461669518  C 19.782986111111114 1.471512398258563  19.913194444444446 1.4628052243043737  20 1.4628052243043737  C 20.086805555555557 1.4628052243043737  20.21701388888889 1.471512398258563  20.390625 1.4889267461669518  C 20.833333333333336 0.8707173954192666  21.232638888888893 0.3831156539844771  21.588541666666668 0.0261215218625781  L 21.666666666666668 0  C 21.701388888888893 0  22.23958333333334 0.3047510883967428  23.28125 0.9142532651902335  C 23.31597222222222 0.9403747870528116  23.333333333333332 0.9708498958924844  23.333333333333332 1.0056785917092568  C 23.333333333333332 1.223357940564071  23.111979166666664 1.8241529434033672  22.669270833333332 2.8080636002271433  C 22.816840277777782 3.0083286011735737  22.94704861111111 3.2347151239825847  23.059895833333332 3.487223168654174  Z " fill-rule="evenodd" />
    </mask>
  </defs>
  <g transform="matrix(1 0 0 1 -29 -379 )">
    <path d="M 10.690104166666666 13.857467348097673  C 11.341145833333334 13.204429301533219  11.666666666666666 12.416430058678783  11.666666666666666 11.493469619534357  C 11.666666666666666 10.570509180389928  11.341145833333334 9.78250993753549  10.690104166666666 9.129471890971038  C 10.0390625 8.476433844406586  9.253472222222223 8.149914821124362  8.333333333333332 8.149914821124362  C 7.413194444444445 8.149914821124362  6.627604166666668 8.476433844406586  5.9765625 9.129471890971038  C 5.325520833333333 9.78250993753549  5 10.570509180389928  5 11.493469619534357  C 5 12.416430058678783  5.325520833333333 13.204429301533219  5.9765625 13.857467348097673  C 6.627604166666668 14.510505394662122  7.413194444444445 14.83702441794435  8.333333333333332 14.83702441794435  C 9.253472222222223 14.83702441794435  10.0390625 14.510505394662122  10.690104166666666 13.857467348097673  Z M 21.178385416666668 19.362578080636002  C 21.50390625 19.03605905735378  21.666666666666668 18.642059435926555  21.666666666666668 18.180579216354342  C 21.666666666666668 17.727806170736322  21.501736111111114 17.33598334279765  21.171875 17.00511073253833  C 20.842013888888893 16.674238122279007  20.451388888888893 16.508801817149347  20 16.508801817149347  C 19.548611111111114 16.508801817149347  19.157986111111114 16.674238122279007  18.828125 17.00511073253833  C 18.498263888888893 17.33598334279765  18.333333333333332 17.727806170736322  18.333333333333332 18.180579216354342  C 18.333333333333332 18.642059435926555  18.49609375 19.03605905735378  18.821614583333332 19.362578080636002  C 19.147135416666668 19.689097103918225  19.539930555555557 19.85235661555934  20 19.85235661555934  C 20.460069444444446 19.85235661555934  20.852864583333332 19.689097103918225  21.178385416666668 19.362578080636002  Z M 21.178385416666668 5.988358886996026  C 21.50390625 5.6618398637138  21.666666666666668 5.26784024228658  21.666666666666668 4.806360022714368  C 21.666666666666668 4.353586977096346  21.501736111111114 3.9617641491576743  21.171875 3.6308915388983536  C 20.842013888888893 3.3000189286390302  20.451388888888893 3.1345826235093694  20 3.1345826235093694  C 19.548611111111114 3.1345826235093694  19.157986111111114 3.3000189286390302  18.828125 3.6308915388983536  C 18.498263888888893 3.9617641491576743  18.333333333333332 4.353586977096346  18.333333333333332 4.806360022714368  C 18.333333333333332 5.26784024228658  18.49609375 5.6618398637138  18.821614583333332 5.988358886996026  C 19.147135416666668 6.314877910278252  19.539930555555557 6.478137421919364  20 6.478137421919364  C 20.460069444444446 6.478137421919364  20.852864583333332 6.314877910278252  21.178385416666668 5.988358886996026  Z M 16.575520833333332 10.050255536626915  C 16.63628472222222 10.124266515237554  16.666666666666664 10.209161461290932  16.666666666666664 10.304940374787053  L 16.666666666666664 12.721181147075525  C 16.666666666666664 12.808252886617451  16.63628472222222 12.893147832670829  16.575520833333332 12.97586598523566  C 16.514756944444446 13.05858413780049  16.4453125 13.104296801060002  16.3671875 13.113003975014196  L 14.348958333333334 13.426462237365133  C 14.253472222222225 13.731213325761876  14.114583333333334 14.062085936021198  13.932291666666666 14.419080068143101  C 14.227430555555557 14.83702441794435  14.618055555555557 15.337686920310427  15.104166666666666 15.92106757524134  C 15.164930555555555 16.016846488737457  15.1953125 16.103918228279387  15.1953125 16.18228279386712  C 15.1953125 16.286768881317432  15.164930555555555 16.369487033882265  15.104166666666666 16.430437251561614  C 14.90451388888889 16.691652470187393  14.546440972222225 17.081298504637513  14.029947916666666 17.59937535491198  C 13.513454861111112 18.11745220518645  13.172743055555555 18.37649063032368  13.007812499999998 18.37649063032368  C 12.91232638888889 18.37649063032368  12.821180555555555 18.346015521484006  12.734375 18.285065303804654  L 11.236979166666666 17.109596819988642  C 10.915798611111112 17.275033125118306  10.581597222222223 17.40999432140829  10.234375 17.514480408858603  C 10.138888888888891 18.454855195911417  10.0390625 19.12966117736135  9.934895833333334 19.538898353208403  C 9.874131944444445 19.74787052810903  9.743923611111112 19.85235661555934  9.544270833333334 19.85235661555934  L 7.122395833333334 19.85235661555934  C 7.026909722222223 19.85235661555934  6.940104166666666 19.81970471323112  6.861979166666667 19.754400908574674  C 6.783854166666667 19.689097103918225  6.740451388888889 19.612909331819044  6.731770833333334 19.525837592277114  L 6.432291666666666 17.52754116978989  C 6.137152777777779 17.440469430247965  5.811631944444445 17.30550823395798  5.455729166666667 17.12265758091993  L 3.9192708333333335 18.285065303804654  C 3.8585069444444446 18.346015521484006  3.7717013888888893 18.37649063032368  3.658854166666667 18.37649063032368  C 3.5633680555555562 18.37649063032368  3.4722222222222223 18.34166193450691  3.3854166666666665 18.27200454287337  C 2.1354166666666665 17.11395040696574  1.5104166666666667 16.417376490630325  1.5104166666666667 16.18228279386712  C 1.5104166666666667 16.103918228279387  1.5407986111111112 16.021200075714553  1.6015624999999998 15.934128336172629  C 1.6883680555555558 15.81222790081393  1.8663194444444444 15.581487791027824  2.1354166666666665 15.24190800681431  C 2.404513888888889 14.902328222600794  2.608506944444445 14.636759416997915  2.7473958333333335 14.445201590005679  C 2.547743055555556 14.062085936021198  2.3958333333333335 13.705091803899299  2.2916666666666665 13.374219193639977  L 0.3125 13.06076093128904  C 0.22569444444444448 13.052053757334846  0.15190972222222224 13.010694681052433  0.09114583333333333 12.936683702441796  C 0.03038194444444444 12.862672723831157  0 12.777777777777779  0 12.681998864281658  L 0 10.265758091993186  C 0 10.178686352451257  0.03038194444444444 10.09379140639788  0.09114583333333333 10.011073253833048  C 0.15190972222222224 9.928355101268219  0.22135416666666666 9.882642438008705  0.2994791666666667 9.873935264054515  L 2.3177083333333335 9.560477001703577  C 2.4131944444444446 9.255725913306833  2.5520833333333335 8.924853303047511  2.734375 8.56785917092561  C 2.439236111111111 8.149914821124362  2.048611111111111 7.649252318758279  1.5625 7.065871663827371  C 1.5017361111111112 6.970092750331248  1.4713541666666667 6.883021010789324  1.4713541666666667 6.80465644520159  C 1.4713541666666667 6.7001703577512775  1.5017361111111112 6.613098618209349  1.5625 6.543441226575809  C 1.7534722222222225 6.282226007950028  2.109375 5.8947567669884515  2.6302083333333335 5.381033503691084  C 3.1510416666666665 4.867310240393714  3.493923611111112 4.610448608745032  3.658854166666667 4.610448608745032  C 3.754340277777778 4.610448608745032  3.845486111111111 4.640923717584705  3.9322916666666665 4.7018739352640555  L 5.4296875 5.877342419080067  C 5.724826388888889 5.720613287904599  6.059027777777779 5.581298504637517  6.432291666666666 5.4593980692788175  C 6.527777777777779 4.519023282226009  6.627604166666666 3.8485708877531675  6.731770833333334 3.4480408858603067  C 6.792534722222224 3.239068710959682  6.922743055555556 3.1345826235093694  7.122395833333334 3.1345826235093694  L 9.544270833333334 3.1345826235093694  C 9.639756944444446 3.1345826235093694  9.7265625 3.1672345258375936  9.8046875 3.2325383304940387  C 9.8828125 3.297842135150481  9.926215277777779 3.374029907249667  9.934895833333334 3.4611016467915956  L 10.234375 5.4593980692788175  C 10.529513888888891 5.546469808820744  10.855034722222223 5.681431005110732  11.2109375 5.864281658148778  L 12.747395833333334 4.7018739352640555  C 12.81684027777778 4.640923717584705  12.903645833333336 4.610448608745032  13.007812499999998 4.610448608745032  C 13.10329861111111 4.610448608745032  13.194444444444445 4.6452773045618  13.28125 4.714934696195344  C 14.531250000000002 5.872988832102971  15.156249999999998 6.569562748438387  15.156249999999998 6.80465644520159  C 15.156249999999998 6.87431383683513  15.125868055555555 6.957031989399959  15.065104166666668 7.052810902896082  C 14.960937499999998 7.192125686163162  14.778645833333334 7.427219382926365  14.518229166666666 7.75809199318569  C 14.2578125 8.088964603445012  14.0625 8.350179822070793  13.932291666666666 8.541737649063032  C 14.131944444444446 8.959681998864282  14.27951388888889 9.31667613098618  14.374999999999998 9.612720045428734  L 16.354166666666668 9.913117546848381  C 16.44097222222222 9.930531894756765  16.514756944444446 9.976244558016278  16.575520833333332 10.050255536626915  Z M 23.059895833333332 16.861442362294152  C 24.353298611111114 16.99204997160704  25.000000000000007 17.127011167897027  25 17.266325951164113  L 25 19.094832481544575  C 25.000000000000007 19.23414726481166  24.353298611111114 19.369108461101646  23.059895833333332 19.499716070414536  C 22.955729166666668 19.73480976717774  22.825520833333332 19.96119628998675  22.669270833333332 20.178875638841568  C 23.111979166666664 21.16278629566534  23.333333333333332 21.763581298504636  23.333333333333332 21.981260647359456  C 23.333333333333332 22.016089343176226  23.31597222222222 22.0465644520159  23.28125 22.072685973878478  C 22.222222222222225 22.690895324626158  21.68402777777778 23  21.666666666666668 23  C 21.597222222222225 23  21.397569444444446 22.79538141207647  21.067708333333332 22.386144236229416  C 20.73784722222222 21.97690706038236  20.51215277777778 21.680863145939806  20.390625 21.49801249290176  C 20.21701388888889 21.515426840810147  20.086805555555557 21.52413401476434  20 21.52413401476434  C 19.913194444444446 21.52413401476434  19.782986111111114 21.515426840810147  19.609375 21.49801249290176  C 19.487847222222225 21.680863145939806  19.26215277777778 21.97690706038236  18.932291666666668 22.386144236229416  C 18.602430555555557 22.79538141207647  18.40277777777778 23  18.333333333333332 23  C 18.315972222222225 23  17.77777777777778 22.690895324626158  16.71875 22.072685973878478  C 16.68402777777778 22.0465644520159  16.666666666666664 22.016089343176226  16.666666666666664 21.981260647359456  C 16.666666666666664 21.763581298504636  16.888020833333332 21.16278629566534  17.330729166666668 20.178875638841568  C 17.174479166666668 19.96119628998675  17.044270833333332 19.73480976717774  16.940104166666668 19.499716070414536  C 15.64670138888889 19.369108461101646  15 19.23414726481166  15 19.094832481544575  L 15 17.266325951164113  C 15 17.127011167897027  15.64670138888889 16.99204997160704  16.940104166666668 16.861442362294152  C 17.05295138888889 16.60893431762256  17.183159722222225 16.38254779481355  17.330729166666668 16.18228279386712  C 16.888020833333332 15.198372137043345  16.666666666666664 14.597577134204048  16.666666666666664 14.379897785349232  C 16.666666666666664 14.345069089532462  16.68402777777778 14.31459398069279  16.71875 14.288472458830212  C 16.753472222222225 14.271058110921823  16.905381944444446 14.183986371379898  17.174479166666668 14.02725724020443  C 17.44357638888889 13.870528109028962  17.69965277777778 13.722506151807682  17.942708333333332 13.583191368540602  C 18.18576388888889 13.443876585273518  18.315972222222225 13.374219193639977  18.333333333333332 13.374219193639977  C 18.40277777777778 13.374219193639977  18.602430555555557 13.576660988074956  18.932291666666668 13.981544576944916  C 19.26215277777778 14.386428165814877  19.487847222222225 14.680295286768882  19.609375 14.863145939806929  C 19.782986111111114 14.845731591898543  19.913194444444446 14.83702441794435  20 14.83702441794435  C 20.086805555555557 14.83702441794435  20.21701388888889 14.845731591898543  20.390625 14.863145939806929  C 20.833333333333336 14.244936589059243  21.232638888888893 13.757334847624454  21.588541666666668 13.400340715502555  L 21.666666666666668 13.374219193639977  C 21.701388888888893 13.374219193639977  22.23958333333334 13.67897028203672  23.28125 14.288472458830212  C 23.31597222222222 14.31459398069279  23.333333333333332 14.345069089532462  23.333333333333332 14.379897785349232  C 23.333333333333332 14.597577134204048  23.111979166666664 15.198372137043345  22.669270833333332 16.18228279386712  C 22.816840277777782 16.38254779481355  22.94704861111111 16.60893431762256  23.059895833333332 16.861442362294152  Z M 23.059895833333332 3.487223168654174  C 24.353298611111114 3.6178307779670646  25.000000000000007 3.7527919742570495  25 3.8921067575241346  L 25 5.720613287904599  C 25.000000000000007 5.859928071171681  24.353298611111114 5.994889267461669  23.059895833333332 6.12549687677456  C 22.955729166666668 6.360590573537762  22.825520833333332 6.586977096346771  22.669270833333332 6.80465644520159  C 23.111979166666664 7.788567102025364  23.333333333333332 8.38936210486466  23.333333333333332 8.607041453719477  C 23.333333333333332 8.641870149536247  23.31597222222222 8.672345258375922  23.28125 8.6984667802385  C 22.222222222222225 9.31667613098618  21.68402777777778 9.625780806360023  21.666666666666668 9.625780806360023  C 21.597222222222225 9.625780806360023  21.397569444444446 9.421162218436493  21.067708333333332 9.011925042589437  C 20.73784722222222 8.602687866742379  20.51215277777778 8.306643952299828  20.390625 8.123793299261784  C 20.21701388888889 8.141207647170168  20.086805555555557 8.149914821124362  20 8.149914821124362  C 19.913194444444446 8.149914821124362  19.782986111111114 8.141207647170168  19.609375 8.123793299261784  C 19.487847222222225 8.306643952299828  19.26215277777778 8.602687866742379  18.932291666666668 9.011925042589437  C 18.602430555555557 9.421162218436493  18.40277777777778 9.625780806360023  18.333333333333332 9.625780806360023  C 18.315972222222225 9.625780806360023  17.77777777777778 9.31667613098618  16.71875 8.6984667802385  C 16.68402777777778 8.672345258375922  16.666666666666664 8.641870149536247  16.666666666666664 8.607041453719477  C 16.666666666666664 8.38936210486466  16.888020833333332 7.788567102025364  17.330729166666668 6.80465644520159  C 17.174479166666668 6.586977096346771  17.044270833333332 6.360590573537762  16.940104166666668 6.12549687677456  C 15.64670138888889 5.994889267461669  15 5.859928071171681  15 5.720613287904599  L 15 3.8921067575241346  C 15 3.7527919742570495  15.64670138888889 3.6178307779670646  16.940104166666668 3.487223168654174  C 17.05295138888889 3.2347151239825847  17.183159722222225 3.0083286011735737  17.330729166666668 2.8080636002271433  C 16.888020833333332 1.8241529434033672  16.666666666666664 1.223357940564071  16.666666666666664 1.0056785917092568  C 16.666666666666664 0.9708498958924844  16.68402777777778 0.9403747870528116  16.71875 0.9142532651902335  C 16.753472222222225 0.8968389172818447  16.905381944444446 0.8097671777399211  17.174479166666668 0.6530380465644525  C 17.44357638888889 0.4963089153889839  17.69965277777778 0.3482869581677046  17.942708333333332 0.2089721749006248  C 18.18576388888889 0.0696573916335399  18.315972222222225 0  18.333333333333332 0  C 18.40277777777778 0  18.602430555555557 0.202441794434979  18.932291666666668 0.6073253833049396  C 19.26215277777778 1.0122089721749001  19.487847222222225 1.306076093128905  19.609375 1.4889267461669518  C 19.782986111111114 1.471512398258563  19.913194444444446 1.4628052243043737  20 1.4628052243043737  C 20.086805555555557 1.4628052243043737  20.21701388888889 1.471512398258563  20.390625 1.4889267461669518  C 20.833333333333336 0.8707173954192666  21.232638888888893 0.3831156539844771  21.588541666666668 0.0261215218625781  L 21.666666666666668 0  C 21.701388888888893 0  22.23958333333334 0.3047510883967428  23.28125 0.9142532651902335  C 23.31597222222222 0.9403747870528116  23.333333333333332 0.9708498958924844  23.333333333333332 1.0056785917092568  C 23.333333333333332 1.223357940564071  23.111979166666664 1.8241529434033672  22.669270833333332 2.8080636002271433  C 22.816840277777782 3.0083286011735737  22.94704861111111 3.2347151239825847  23.059895833333332 3.487223168654174  Z " fill-rule="nonzero" fill="rgba(127, 127, 127, 1)" stroke="none" transform="matrix(1 0 0 1 33 383 )" class="fill" />
    <path d="M 10.690104166666666 13.857467348097673  C 11.341145833333334 13.204429301533219  11.666666666666666 12.416430058678783  11.666666666666666 11.493469619534357  C 11.666666666666666 10.570509180389928  11.341145833333334 9.78250993753549  10.690104166666666 9.129471890971038  C 10.0390625 8.476433844406586  9.253472222222223 8.149914821124362  8.333333333333332 8.149914821124362  C 7.413194444444445 8.149914821124362  6.627604166666668 8.476433844406586  5.9765625 9.129471890971038  C 5.325520833333333 9.78250993753549  5 10.570509180389928  5 11.493469619534357  C 5 12.416430058678783  5.325520833333333 13.204429301533219  5.9765625 13.857467348097673  C 6.627604166666668 14.510505394662122  7.413194444444445 14.83702441794435  8.333333333333332 14.83702441794435  C 9.253472222222223 14.83702441794435  10.0390625 14.510505394662122  10.690104166666666 13.857467348097673  Z " stroke-width="0" stroke-dasharray="0" stroke="rgba(255, 255, 255, 0)" fill="none" transform="matrix(1 0 0 1 33 383 )" class="stroke" mask="url(#Clip519)" />
    <path d="M 21.178385416666668 19.362578080636002  C 21.50390625 19.03605905735378  21.666666666666668 18.642059435926555  21.666666666666668 18.180579216354342  C 21.666666666666668 17.727806170736322  21.501736111111114 17.33598334279765  21.171875 17.00511073253833  C 20.842013888888893 16.674238122279007  20.451388888888893 16.508801817149347  20 16.508801817149347  C 19.548611111111114 16.508801817149347  19.157986111111114 16.674238122279007  18.828125 17.00511073253833  C 18.498263888888893 17.33598334279765  18.333333333333332 17.727806170736322  18.333333333333332 18.180579216354342  C 18.333333333333332 18.642059435926555  18.49609375 19.03605905735378  18.821614583333332 19.362578080636002  C 19.147135416666668 19.689097103918225  19.539930555555557 19.85235661555934  20 19.85235661555934  C 20.460069444444446 19.85235661555934  20.852864583333332 19.689097103918225  21.178385416666668 19.362578080636002  Z " stroke-width="0" stroke-dasharray="0" stroke="rgba(255, 255, 255, 0)" fill="none" transform="matrix(1 0 0 1 33 383 )" class="stroke" mask="url(#Clip519)" />
    <path d="M 21.178385416666668 5.988358886996026  C 21.50390625 5.6618398637138  21.666666666666668 5.26784024228658  21.666666666666668 4.806360022714368  C 21.666666666666668 4.353586977096346  21.501736111111114 3.9617641491576743  21.171875 3.6308915388983536  C 20.842013888888893 3.3000189286390302  20.451388888888893 3.1345826235093694  20 3.1345826235093694  C 19.548611111111114 3.1345826235093694  19.157986111111114 3.3000189286390302  18.828125 3.6308915388983536  C 18.498263888888893 3.9617641491576743  18.333333333333332 4.353586977096346  18.333333333333332 4.806360022714368  C 18.333333333333332 5.26784024228658  18.49609375 5.6618398637138  18.821614583333332 5.988358886996026  C 19.147135416666668 6.314877910278252  19.539930555555557 6.478137421919364  20 6.478137421919364  C 20.460069444444446 6.478137421919364  20.852864583333332 6.314877910278252  21.178385416666668 5.988358886996026  Z " stroke-width="0" stroke-dasharray="0" stroke="rgba(255, 255, 255, 0)" fill="none" transform="matrix(1 0 0 1 33 383 )" class="stroke" mask="url(#Clip519)" />
    <path d="M 16.575520833333332 10.050255536626915  C 16.63628472222222 10.124266515237554  16.666666666666664 10.209161461290932  16.666666666666664 10.304940374787053  L 16.666666666666664 12.721181147075525  C 16.666666666666664 12.808252886617451  16.63628472222222 12.893147832670829  16.575520833333332 12.97586598523566  C 16.514756944444446 13.05858413780049  16.4453125 13.104296801060002  16.3671875 13.113003975014196  L 14.348958333333334 13.426462237365133  C 14.253472222222225 13.731213325761876  14.114583333333334 14.062085936021198  13.932291666666666 14.419080068143101  C 14.227430555555557 14.83702441794435  14.618055555555557 15.337686920310427  15.104166666666666 15.92106757524134  C 15.164930555555555 16.016846488737457  15.1953125 16.103918228279387  15.1953125 16.18228279386712  C 15.1953125 16.286768881317432  15.164930555555555 16.369487033882265  15.104166666666666 16.430437251561614  C 14.90451388888889 16.691652470187393  14.546440972222225 17.081298504637513  14.029947916666666 17.59937535491198  C 13.513454861111112 18.11745220518645  13.172743055555555 18.37649063032368  13.007812499999998 18.37649063032368  C 12.91232638888889 18.37649063032368  12.821180555555555 18.346015521484006  12.734375 18.285065303804654  L 11.236979166666666 17.109596819988642  C 10.915798611111112 17.275033125118306  10.581597222222223 17.40999432140829  10.234375 17.514480408858603  C 10.138888888888891 18.454855195911417  10.0390625 19.12966117736135  9.934895833333334 19.538898353208403  C 9.874131944444445 19.74787052810903  9.743923611111112 19.85235661555934  9.544270833333334 19.85235661555934  L 7.122395833333334 19.85235661555934  C 7.026909722222223 19.85235661555934  6.940104166666666 19.81970471323112  6.861979166666667 19.754400908574674  C 6.783854166666667 19.689097103918225  6.740451388888889 19.612909331819044  6.731770833333334 19.525837592277114  L 6.432291666666666 17.52754116978989  C 6.137152777777779 17.440469430247965  5.811631944444445 17.30550823395798  5.455729166666667 17.12265758091993  L 3.9192708333333335 18.285065303804654  C 3.8585069444444446 18.346015521484006  3.7717013888888893 18.37649063032368  3.658854166666667 18.37649063032368  C 3.5633680555555562 18.37649063032368  3.4722222222222223 18.34166193450691  3.3854166666666665 18.27200454287337  C 2.1354166666666665 17.11395040696574  1.5104166666666667 16.417376490630325  1.5104166666666667 16.18228279386712  C 1.5104166666666667 16.103918228279387  1.5407986111111112 16.021200075714553  1.6015624999999998 15.934128336172629  C 1.6883680555555558 15.81222790081393  1.8663194444444444 15.581487791027824  2.1354166666666665 15.24190800681431  C 2.404513888888889 14.902328222600794  2.608506944444445 14.636759416997915  2.7473958333333335 14.445201590005679  C 2.547743055555556 14.062085936021198  2.3958333333333335 13.705091803899299  2.2916666666666665 13.374219193639977  L 0.3125 13.06076093128904  C 0.22569444444444448 13.052053757334846  0.15190972222222224 13.010694681052433  0.09114583333333333 12.936683702441796  C 0.03038194444444444 12.862672723831157  0 12.777777777777779  0 12.681998864281658  L 0 10.265758091993186  C 0 10.178686352451257  0.03038194444444444 10.09379140639788  0.09114583333333333 10.011073253833048  C 0.15190972222222224 9.928355101268219  0.22135416666666666 9.882642438008705  0.2994791666666667 9.873935264054515  L 2.3177083333333335 9.560477001703577  C 2.4131944444444446 9.255725913306833  2.5520833333333335 8.924853303047511  2.734375 8.56785917092561  C 2.439236111111111 8.149914821124362  2.048611111111111 7.649252318758279  1.5625 7.065871663827371  C 1.5017361111111112 6.970092750331248  1.4713541666666667 6.883021010789324  1.4713541666666667 6.80465644520159  C 1.4713541666666667 6.7001703577512775  1.5017361111111112 6.613098618209349  1.5625 6.543441226575809  C 1.7534722222222225 6.282226007950028  2.109375 5.8947567669884515  2.6302083333333335 5.381033503691084  C 3.1510416666666665 4.867310240393714  3.493923611111112 4.610448608745032  3.658854166666667 4.610448608745032  C 3.754340277777778 4.610448608745032  3.845486111111111 4.640923717584705  3.9322916666666665 4.7018739352640555  L 5.4296875 5.877342419080067  C 5.724826388888889 5.720613287904599  6.059027777777779 5.581298504637517  6.432291666666666 5.4593980692788175  C 6.527777777777779 4.519023282226009  6.627604166666666 3.8485708877531675  6.731770833333334 3.4480408858603067  C 6.792534722222224 3.239068710959682  6.922743055555556 3.1345826235093694  7.122395833333334 3.1345826235093694  L 9.544270833333334 3.1345826235093694  C 9.639756944444446 3.1345826235093694  9.7265625 3.1672345258375936  9.8046875 3.2325383304940387  C 9.8828125 3.297842135150481  9.926215277777779 3.374029907249667  9.934895833333334 3.4611016467915956  L 10.234375 5.4593980692788175  C 10.529513888888891 5.546469808820744  10.855034722222223 5.681431005110732  11.2109375 5.864281658148778  L 12.747395833333334 4.7018739352640555  C 12.81684027777778 4.640923717584705  12.903645833333336 4.610448608745032  13.007812499999998 4.610448608745032  C 13.10329861111111 4.610448608745032  13.194444444444445 4.6452773045618  13.28125 4.714934696195344  C 14.531250000000002 5.872988832102971  15.156249999999998 6.569562748438387  15.156249999999998 6.80465644520159  C 15.156249999999998 6.87431383683513  15.125868055555555 6.957031989399959  15.065104166666668 7.052810902896082  C 14.960937499999998 7.192125686163162  14.778645833333334 7.427219382926365  14.518229166666666 7.75809199318569  C 14.2578125 8.088964603445012  14.0625 8.350179822070793  13.932291666666666 8.541737649063032  C 14.131944444444446 8.959681998864282  14.27951388888889 9.31667613098618  14.374999999999998 9.612720045428734  L 16.354166666666668 9.913117546848381  C 16.44097222222222 9.930531894756765  16.514756944444446 9.976244558016278  16.575520833333332 10.050255536626915  Z " stroke-width="0" stroke-dasharray="0" stroke="rgba(255, 255, 255, 0)" fill="none" transform="matrix(1 0 0 1 33 383 )" class="stroke" mask="url(#Clip519)" />
    <path d="M 23.059895833333332 16.861442362294152  C 24.353298611111114 16.99204997160704  25.000000000000007 17.127011167897027  25 17.266325951164113  L 25 19.094832481544575  C 25.000000000000007 19.23414726481166  24.353298611111114 19.369108461101646  23.059895833333332 19.499716070414536  C 22.955729166666668 19.73480976717774  22.825520833333332 19.96119628998675  22.669270833333332 20.178875638841568  C 23.111979166666664 21.16278629566534  23.333333333333332 21.763581298504636  23.333333333333332 21.981260647359456  C 23.333333333333332 22.016089343176226  23.31597222222222 22.0465644520159  23.28125 22.072685973878478  C 22.222222222222225 22.690895324626158  21.68402777777778 23  21.666666666666668 23  C 21.597222222222225 23  21.397569444444446 22.79538141207647  21.067708333333332 22.386144236229416  C 20.73784722222222 21.97690706038236  20.51215277777778 21.680863145939806  20.390625 21.49801249290176  C 20.21701388888889 21.515426840810147  20.086805555555557 21.52413401476434  20 21.52413401476434  C 19.913194444444446 21.52413401476434  19.782986111111114 21.515426840810147  19.609375 21.49801249290176  C 19.487847222222225 21.680863145939806  19.26215277777778 21.97690706038236  18.932291666666668 22.386144236229416  C 18.602430555555557 22.79538141207647  18.40277777777778 23  18.333333333333332 23  C 18.315972222222225 23  17.77777777777778 22.690895324626158  16.71875 22.072685973878478  C 16.68402777777778 22.0465644520159  16.666666666666664 22.016089343176226  16.666666666666664 21.981260647359456  C 16.666666666666664 21.763581298504636  16.888020833333332 21.16278629566534  17.330729166666668 20.178875638841568  C 17.174479166666668 19.96119628998675  17.044270833333332 19.73480976717774  16.940104166666668 19.499716070414536  C 15.64670138888889 19.369108461101646  15 19.23414726481166  15 19.094832481544575  L 15 17.266325951164113  C 15 17.127011167897027  15.64670138888889 16.99204997160704  16.940104166666668 16.861442362294152  C 17.05295138888889 16.60893431762256  17.183159722222225 16.38254779481355  17.330729166666668 16.18228279386712  C 16.888020833333332 15.198372137043345  16.666666666666664 14.597577134204048  16.666666666666664 14.379897785349232  C 16.666666666666664 14.345069089532462  16.68402777777778 14.31459398069279  16.71875 14.288472458830212  C 16.753472222222225 14.271058110921823  16.905381944444446 14.183986371379898  17.174479166666668 14.02725724020443  C 17.44357638888889 13.870528109028962  17.69965277777778 13.722506151807682  17.942708333333332 13.583191368540602  C 18.18576388888889 13.443876585273518  18.315972222222225 13.374219193639977  18.333333333333332 13.374219193639977  C 18.40277777777778 13.374219193639977  18.602430555555557 13.576660988074956  18.932291666666668 13.981544576944916  C 19.26215277777778 14.386428165814877  19.487847222222225 14.680295286768882  19.609375 14.863145939806929  C 19.782986111111114 14.845731591898543  19.913194444444446 14.83702441794435  20 14.83702441794435  C 20.086805555555557 14.83702441794435  20.21701388888889 14.845731591898543  20.390625 14.863145939806929  C 20.833333333333336 14.244936589059243  21.232638888888893 13.757334847624454  21.588541666666668 13.400340715502555  L 21.666666666666668 13.374219193639977  C 21.701388888888893 13.374219193639977  22.23958333333334 13.67897028203672  23.28125 14.288472458830212  C 23.31597222222222 14.31459398069279  23.333333333333332 14.345069089532462  23.333333333333332 14.379897785349232  C 23.333333333333332 14.597577134204048  23.111979166666664 15.198372137043345  22.669270833333332 16.18228279386712  C 22.816840277777782 16.38254779481355  22.94704861111111 16.60893431762256  23.059895833333332 16.861442362294152  Z " stroke-width="0" stroke-dasharray="0" stroke="rgba(255, 255, 255, 0)" fill="none" transform="matrix(1 0 0 1 33 383 )" class="stroke" mask="url(#Clip519)" />
    <path d="M 23.059895833333332 3.487223168654174  C 24.353298611111114 3.6178307779670646  25.000000000000007 3.7527919742570495  25 3.8921067575241346  L 25 5.720613287904599  C 25.000000000000007 5.859928071171681  24.353298611111114 5.994889267461669  23.059895833333332 6.12549687677456  C 22.955729166666668 6.360590573537762  22.825520833333332 6.586977096346771  22.669270833333332 6.80465644520159  C 23.111979166666664 7.788567102025364  23.333333333333332 8.38936210486466  23.333333333333332 8.607041453719477  C 23.333333333333332 8.641870149536247  23.31597222222222 8.672345258375922  23.28125 8.6984667802385  C 22.222222222222225 9.31667613098618  21.68402777777778 9.625780806360023  21.666666666666668 9.625780806360023  C 21.597222222222225 9.625780806360023  21.397569444444446 9.421162218436493  21.067708333333332 9.011925042589437  C 20.73784722222222 8.602687866742379  20.51215277777778 8.306643952299828  20.390625 8.123793299261784  C 20.21701388888889 8.141207647170168  20.086805555555557 8.149914821124362  20 8.149914821124362  C 19.913194444444446 8.149914821124362  19.782986111111114 8.141207647170168  19.609375 8.123793299261784  C 19.487847222222225 8.306643952299828  19.26215277777778 8.602687866742379  18.932291666666668 9.011925042589437  C 18.602430555555557 9.421162218436493  18.40277777777778 9.625780806360023  18.333333333333332 9.625780806360023  C 18.315972222222225 9.625780806360023  17.77777777777778 9.31667613098618  16.71875 8.6984667802385  C 16.68402777777778 8.672345258375922  16.666666666666664 8.641870149536247  16.666666666666664 8.607041453719477  C 16.666666666666664 8.38936210486466  16.888020833333332 7.788567102025364  17.330729166666668 6.80465644520159  C 17.174479166666668 6.586977096346771  17.044270833333332 6.360590573537762  16.940104166666668 6.12549687677456  C 15.64670138888889 5.994889267461669  15 5.859928071171681  15 5.720613287904599  L 15 3.8921067575241346  C 15 3.7527919742570495  15.64670138888889 3.6178307779670646  16.940104166666668 3.487223168654174  C 17.05295138888889 3.2347151239825847  17.183159722222225 3.0083286011735737  17.330729166666668 2.8080636002271433  C 16.888020833333332 1.8241529434033672  16.666666666666664 1.223357940564071  16.666666666666664 1.0056785917092568  C 16.666666666666664 0.9708498958924844  16.68402777777778 0.9403747870528116  16.71875 0.9142532651902335  C 16.753472222222225 0.8968389172818447  16.905381944444446 0.8097671777399211  17.174479166666668 0.6530380465644525  C 17.44357638888889 0.4963089153889839  17.69965277777778 0.3482869581677046  17.942708333333332 0.2089721749006248  C 18.18576388888889 0.0696573916335399  18.315972222222225 0  18.333333333333332 0  C 18.40277777777778 0  18.602430555555557 0.202441794434979  18.932291666666668 0.6073253833049396  C 19.26215277777778 1.0122089721749001  19.487847222222225 1.306076093128905  19.609375 1.4889267461669518  C 19.782986111111114 1.471512398258563  19.913194444444446 1.4628052243043737  20 1.4628052243043737  C 20.086805555555557 1.4628052243043737  20.21701388888889 1.471512398258563  20.390625 1.4889267461669518  C 20.833333333333336 0.8707173954192666  21.232638888888893 0.3831156539844771  21.588541666666668 0.0261215218625781  L 21.666666666666668 0  C 21.701388888888893 0  22.23958333333334 0.3047510883967428  23.28125 0.9142532651902335  C 23.31597222222222 0.9403747870528116  23.333333333333332 0.9708498958924844  23.333333333333332 1.0056785917092568  C 23.333333333333332 1.223357940564071  23.111979166666664 1.8241529434033672  22.669270833333332 2.8080636002271433  C 22.816840277777782 3.0083286011735737  22.94704861111111 3.2347151239825847  23.059895833333332 3.487223168654174  Z " stroke-width="0" stroke-dasharray="0" stroke="rgba(255, 255, 255, 0)" fill="none" transform="matrix(1 0 0 1 33 383 )" class="stroke" mask="url(#Clip519)" />
  </g>
  <style>svg { filter: drop-shadow(1px 1px 2.5px rgba(0, 0, 0, 0.3137254901960784)); }</style>
</svg>