<?xml version="1.0" encoding="utf-8"?>
<svg version="1.1" xmlns:xlink="http://www.w3.org/1999/xlink" width="31px" height="35px" xmlns="http://www.w3.org/2000/svg">
  <defs>
    <pattern id="BGPattern" patternUnits="userSpaceOnUse" alignment="0 0" imageRepeat="None" />
    <mask fill="white" id="Clip426">
      <path d="M 4.443359375 10.114397321428573  C 6.320963541666667 10.514322916666668  8.33984375 10.714285714285715  10.5 10.714285714285715  C 12.66015625 10.714285714285715  14.679036458333334 10.514322916666668  16.556640625 10.114397321428573  C 18.434244791666668 9.714471726190474  19.915364583333336 9.123883928571427  21 8.342633928571427  L 21 10.714285714285715  C 21 11.356026785714285  20.530598958333332 11.951264880952381  19.591796875 12.5  C 18.652994791666668 13.048735119047617  17.376953125 13.48353794642857  15.763671875 13.804408482142858  C 14.150390625 14.125279017857142  12.395833333333334 14.285714285714285  10.5 14.285714285714285  C 8.604166666666668 14.285714285714285  6.849609375 14.125279017857142  5.236328125 13.804408482142858  C 3.623046875 13.48353794642857  2.3470052083333335 13.048735119047617  1.408203125 12.5  C 0.46940104166666663 11.951264880952381  0 11.356026785714285  0 10.714285714285715  L 0 8.342633928571427  C 1.0846354166666667 9.123883928571427  2.5657552083333335 9.714471726190474  4.443359375 10.114397321428573  Z M 4.443359375 20.828683035714285  C 6.320963541666667 21.228608630952383  8.33984375 21.42857142857143  10.5 21.42857142857143  C 12.66015625 21.42857142857143  14.679036458333334 21.228608630952383  16.556640625 20.828683035714285  C 18.434244791666668 20.42875744047619  19.915364583333336 19.838169642857142  21 19.056919642857142  L 21 21.42857142857143  C 21 22.0703125  20.530598958333332 22.665550595238095  19.591796875 23.214285714285715  C 18.652994791666668 23.763020833333332  17.376953125 24.197823660714285  15.763671875 24.518694196428573  C 14.150390625 24.839564732142858  12.395833333333334 25  10.5 25  C 8.604166666666668 25  6.849609375 24.839564732142858  5.236328125 24.518694196428573  C 3.623046875 24.197823660714285  2.3470052083333335 23.763020833333332  1.408203125 23.214285714285715  C 0.46940104166666663 22.665550595238095  0 22.0703125  0 21.42857142857143  L 0 19.056919642857142  C 1.0846354166666667 19.838169642857142  2.5657552083333335 20.42875744047619  4.443359375 20.828683035714285  Z M 4.443359375 15.47154017857143  C 6.320963541666667 15.871465773809524  8.33984375 16.07142857142857  10.5 16.07142857142857  C 12.66015625 16.07142857142857  14.679036458333334 15.871465773809524  16.556640625 15.47154017857143  C 18.434244791666668 15.071614583333332  19.915364583333336 14.481026785714285  21 13.699776785714285  L 21 16.07142857142857  C 21 16.713169642857142  20.530598958333332 17.308407738095237  19.591796875 17.857142857142858  C 18.652994791666668 18.405877976190478  17.376953125 18.84068080357143  15.763671875 19.161551339285715  C 14.150390625 19.482421875  12.395833333333334 19.642857142857142  10.5 19.642857142857142  C 8.604166666666668 19.642857142857142  6.849609375 19.482421875  5.236328125 19.161551339285715  C 3.623046875 18.84068080357143  2.3470052083333335 18.405877976190478  1.408203125 17.857142857142858  C 0.46940104166666663 17.308407738095237  0 16.713169642857142  0 16.07142857142857  L 0 13.699776785714285  C 1.0846354166666667 14.481026785714285  2.5657552083333335 15.071614583333332  4.443359375 15.47154017857143  Z M 5.236328125 0.4813058035714274  C 6.849609375 0.16043526785714246  8.604166666666668 0  10.5 0  C 12.395833333333334 0  14.150390625 0.16043526785714246  15.763671875 0.4813058035714274  C 17.376953125 0.8021763392857151  18.652994791666668 1.2369791666666656  19.591796875 1.785714285714285  C 20.530598958333332 2.334449404761904  21 2.9296875  21 3.5714285714285725  L 21 5.357142857142858  C 21 5.998883928571427  20.530598958333332 6.59412202380952  19.591796875 7.142857142857142  C 18.652994791666668 7.691592261904762  17.376953125 8.126395089285715  15.763671875 8.447265625  C 14.150390625 8.768136160714285  12.395833333333334 8.928571428571427  10.5 8.928571428571427  C 8.604166666666668 8.928571428571427  6.849609375 8.768136160714285  5.236328125 8.447265625  C 3.623046875 8.126395089285715  2.3470052083333335 7.691592261904762  1.408203125 7.142857142857142  C 0.46940104166666663 6.59412202380952  0 5.998883928571427  0 5.357142857142858  L 0 3.5714285714285725  C 0 2.9296875  0.46940104166666663 2.334449404761904  1.408203125 1.785714285714285  C 2.3470052083333335 1.2369791666666656  3.623046875 0.8021763392857151  5.236328125 0.4813058035714274  Z " fill-rule="evenodd" />
    </mask>
  </defs>
  <g transform="matrix(1 0 0 1 -98 -377 )">
    <path d="M 4.443359375 10.114397321428573  C 6.320963541666667 10.514322916666668  8.33984375 10.714285714285715  10.5 10.714285714285715  C 12.66015625 10.714285714285715  14.679036458333334 10.514322916666668  16.556640625 10.114397321428573  C 18.434244791666668 9.714471726190474  19.915364583333336 9.123883928571427  21 8.342633928571427  L 21 10.714285714285715  C 21 11.356026785714285  20.530598958333332 11.951264880952381  19.591796875 12.5  C 18.652994791666668 13.048735119047617  17.376953125 13.48353794642857  15.763671875 13.804408482142858  C 14.150390625 14.125279017857142  12.395833333333334 14.285714285714285  10.5 14.285714285714285  C 8.604166666666668 14.285714285714285  6.849609375 14.125279017857142  5.236328125 13.804408482142858  C 3.623046875 13.48353794642857  2.3470052083333335 13.048735119047617  1.408203125 12.5  C 0.46940104166666663 11.951264880952381  0 11.356026785714285  0 10.714285714285715  L 0 8.342633928571427  C 1.0846354166666667 9.123883928571427  2.5657552083333335 9.714471726190474  4.443359375 10.114397321428573  Z M 4.443359375 20.828683035714285  C 6.320963541666667 21.228608630952383  8.33984375 21.42857142857143  10.5 21.42857142857143  C 12.66015625 21.42857142857143  14.679036458333334 21.228608630952383  16.556640625 20.828683035714285  C 18.434244791666668 20.42875744047619  19.915364583333336 19.838169642857142  21 19.056919642857142  L 21 21.42857142857143  C 21 22.0703125  20.530598958333332 22.665550595238095  19.591796875 23.214285714285715  C 18.652994791666668 23.763020833333332  17.376953125 24.197823660714285  15.763671875 24.518694196428573  C 14.150390625 24.839564732142858  12.395833333333334 25  10.5 25  C 8.604166666666668 25  6.849609375 24.839564732142858  5.236328125 24.518694196428573  C 3.623046875 24.197823660714285  2.3470052083333335 23.763020833333332  1.408203125 23.214285714285715  C 0.46940104166666663 22.665550595238095  0 22.0703125  0 21.42857142857143  L 0 19.056919642857142  C 1.0846354166666667 19.838169642857142  2.5657552083333335 20.42875744047619  4.443359375 20.828683035714285  Z M 4.443359375 15.47154017857143  C 6.320963541666667 15.871465773809524  8.33984375 16.07142857142857  10.5 16.07142857142857  C 12.66015625 16.07142857142857  14.679036458333334 15.871465773809524  16.556640625 15.47154017857143  C 18.434244791666668 15.071614583333332  19.915364583333336 14.481026785714285  21 13.699776785714285  L 21 16.07142857142857  C 21 16.713169642857142  20.530598958333332 17.308407738095237  19.591796875 17.857142857142858  C 18.652994791666668 18.405877976190478  17.376953125 18.84068080357143  15.763671875 19.161551339285715  C 14.150390625 19.482421875  12.395833333333334 19.642857142857142  10.5 19.642857142857142  C 8.604166666666668 19.642857142857142  6.849609375 19.482421875  5.236328125 19.161551339285715  C 3.623046875 18.84068080357143  2.3470052083333335 18.405877976190478  1.408203125 17.857142857142858  C 0.46940104166666663 17.308407738095237  0 16.713169642857142  0 16.07142857142857  L 0 13.699776785714285  C 1.0846354166666667 14.481026785714285  2.5657552083333335 15.071614583333332  4.443359375 15.47154017857143  Z M 5.236328125 0.4813058035714274  C 6.849609375 0.16043526785714246  8.604166666666668 0  10.5 0  C 12.395833333333334 0  14.150390625 0.16043526785714246  15.763671875 0.4813058035714274  C 17.376953125 0.8021763392857151  18.652994791666668 1.2369791666666656  19.591796875 1.785714285714285  C 20.530598958333332 2.334449404761904  21 2.9296875  21 3.5714285714285725  L 21 5.357142857142858  C 21 5.998883928571427  20.530598958333332 6.59412202380952  19.591796875 7.142857142857142  C 18.652994791666668 7.691592261904762  17.376953125 8.126395089285715  15.763671875 8.447265625  C 14.150390625 8.768136160714285  12.395833333333334 8.928571428571427  10.5 8.928571428571427  C 8.604166666666668 8.928571428571427  6.849609375 8.768136160714285  5.236328125 8.447265625  C 3.623046875 8.126395089285715  2.3470052083333335 7.691592261904762  1.408203125 7.142857142857142  C 0.46940104166666663 6.59412202380952  0 5.998883928571427  0 5.357142857142858  L 0 3.5714285714285725  C 0 2.9296875  0.46940104166666663 2.334449404761904  1.408203125 1.785714285714285  C 2.3470052083333335 1.2369791666666656  3.623046875 0.8021763392857151  5.236328125 0.4813058035714274  Z " fill-rule="nonzero" fill="rgba(127, 127, 127, 1)" stroke="none" transform="matrix(1 0 0 1 102 381 )" class="fill" />
    <path d="M 4.443359375 10.114397321428573  C 6.320963541666667 10.514322916666668  8.33984375 10.714285714285715  10.5 10.714285714285715  C 12.66015625 10.714285714285715  14.679036458333334 10.514322916666668  16.556640625 10.114397321428573  C 18.434244791666668 9.714471726190474  19.915364583333336 9.123883928571427  21 8.342633928571427  L 21 10.714285714285715  C 21 11.356026785714285  20.530598958333332 11.951264880952381  19.591796875 12.5  C 18.652994791666668 13.048735119047617  17.376953125 13.48353794642857  15.763671875 13.804408482142858  C 14.150390625 14.125279017857142  12.395833333333334 14.285714285714285  10.5 14.285714285714285  C 8.604166666666668 14.285714285714285  6.849609375 14.125279017857142  5.236328125 13.804408482142858  C 3.623046875 13.48353794642857  2.3470052083333335 13.048735119047617  1.408203125 12.5  C 0.46940104166666663 11.951264880952381  0 11.356026785714285  0 10.714285714285715  L 0 8.342633928571427  C 1.0846354166666667 9.123883928571427  2.5657552083333335 9.714471726190474  4.443359375 10.114397321428573  Z " stroke-width="0" stroke-dasharray="0" stroke="rgba(255, 255, 255, 0)" fill="none" transform="matrix(1 0 0 1 102 381 )" class="stroke" mask="url(#Clip426)" />
    <path d="M 4.443359375 20.828683035714285  C 6.320963541666667 21.228608630952383  8.33984375 21.42857142857143  10.5 21.42857142857143  C 12.66015625 21.42857142857143  14.679036458333334 21.228608630952383  16.556640625 20.828683035714285  C 18.434244791666668 20.42875744047619  19.915364583333336 19.838169642857142  21 19.056919642857142  L 21 21.42857142857143  C 21 22.0703125  20.530598958333332 22.665550595238095  19.591796875 23.214285714285715  C 18.652994791666668 23.763020833333332  17.376953125 24.197823660714285  15.763671875 24.518694196428573  C 14.150390625 24.839564732142858  12.395833333333334 25  10.5 25  C 8.604166666666668 25  6.849609375 24.839564732142858  5.236328125 24.518694196428573  C 3.623046875 24.197823660714285  2.3470052083333335 23.763020833333332  1.408203125 23.214285714285715  C 0.46940104166666663 22.665550595238095  0 22.0703125  0 21.42857142857143  L 0 19.056919642857142  C 1.0846354166666667 19.838169642857142  2.5657552083333335 20.42875744047619  4.443359375 20.828683035714285  Z " stroke-width="0" stroke-dasharray="0" stroke="rgba(255, 255, 255, 0)" fill="none" transform="matrix(1 0 0 1 102 381 )" class="stroke" mask="url(#Clip426)" />
    <path d="M 4.443359375 15.47154017857143  C 6.320963541666667 15.871465773809524  8.33984375 16.07142857142857  10.5 16.07142857142857  C 12.66015625 16.07142857142857  14.679036458333334 15.871465773809524  16.556640625 15.47154017857143  C 18.434244791666668 15.071614583333332  19.915364583333336 14.481026785714285  21 13.699776785714285  L 21 16.07142857142857  C 21 16.713169642857142  20.530598958333332 17.308407738095237  19.591796875 17.857142857142858  C 18.652994791666668 18.405877976190478  17.376953125 18.84068080357143  15.763671875 19.161551339285715  C 14.150390625 19.482421875  12.395833333333334 19.642857142857142  10.5 19.642857142857142  C 8.604166666666668 19.642857142857142  6.849609375 19.482421875  5.236328125 19.161551339285715  C 3.623046875 18.84068080357143  2.3470052083333335 18.405877976190478  1.408203125 17.857142857142858  C 0.46940104166666663 17.308407738095237  0 16.713169642857142  0 16.07142857142857  L 0 13.699776785714285  C 1.0846354166666667 14.481026785714285  2.5657552083333335 15.071614583333332  4.443359375 15.47154017857143  Z " stroke-width="0" stroke-dasharray="0" stroke="rgba(255, 255, 255, 0)" fill="none" transform="matrix(1 0 0 1 102 381 )" class="stroke" mask="url(#Clip426)" />
    <path d="M 5.236328125 0.4813058035714274  C 6.849609375 0.16043526785714246  8.604166666666668 0  10.5 0  C 12.395833333333334 0  14.150390625 0.16043526785714246  15.763671875 0.4813058035714274  C 17.376953125 0.8021763392857151  18.652994791666668 1.2369791666666656  19.591796875 1.785714285714285  C 20.530598958333332 2.334449404761904  21 2.9296875  21 3.5714285714285725  L 21 5.357142857142858  C 21 5.998883928571427  20.530598958333332 6.59412202380952  19.591796875 7.142857142857142  C 18.652994791666668 7.691592261904762  17.376953125 8.126395089285715  15.763671875 8.447265625  C 14.150390625 8.768136160714285  12.395833333333334 8.928571428571427  10.5 8.928571428571427  C 8.604166666666668 8.928571428571427  6.849609375 8.768136160714285  5.236328125 8.447265625  C 3.623046875 8.126395089285715  2.3470052083333335 7.691592261904762  1.408203125 7.142857142857142  C 0.46940104166666663 6.59412202380952  0 5.998883928571427  0 5.357142857142858  L 0 3.5714285714285725  C 0 2.9296875  0.46940104166666663 2.334449404761904  1.408203125 1.785714285714285  C 2.3470052083333335 1.2369791666666656  3.623046875 0.8021763392857151  5.236328125 0.4813058035714274  Z " stroke-width="0" stroke-dasharray="0" stroke="rgba(255, 255, 255, 0)" fill="none" transform="matrix(1 0 0 1 102 381 )" class="stroke" mask="url(#Clip426)" />
  </g>
  <style>svg { filter: drop-shadow(1px 1px 2.5px rgba(0, 0, 0, 0.3137254901960784)); }</style>
</svg>