<?xml version="1.0" encoding="utf-8"?>
<svg version="1.1" xmlns:xlink="http://www.w3.org/1999/xlink" width="25px" height="25px" xmlns="http://www.w3.org/2000/svg">
  <defs>
    <pattern id="BGPattern" patternUnits="userSpaceOnUse" alignment="0 0" imageRepeat="None" />
    <mask fill="white" id="Clip808">
      <path d="M 16.520182291666664 20.686848958333336  C 16.617838541666664 20.589192708333336  16.666666666666664 20.46440972222222  16.666666666666664 20.3125  L 16.666666666666664 17.708333333333332  C 16.666666666666664 17.55642361111111  16.617838541666664 17.431640625  16.520182291666664 17.333984375  C 16.422526041666664 17.236328125  16.297743055555554 17.1875  16.145833333333336 17.1875  L 14.583333333333334 17.1875  L 14.583333333333334 8.854166666666666  C 14.583333333333334 8.702256944444445  14.534505208333334 8.577473958333334  14.436848958333334 8.479817708333334  C 14.339192708333334 8.382161458333334  14.214409722222223 8.333333333333334  14.0625 8.333333333333334  L 8.854166666666668 8.333333333333334  C 8.702256944444446 8.333333333333334  8.577473958333332 8.382161458333334  8.479817708333332 8.479817708333334  C 8.382161458333332 8.577473958333334  8.333333333333332 8.702256944444445  8.333333333333332 8.854166666666666  L 8.333333333333332 11.458333333333334  C 8.333333333333332 11.610243055555555  8.382161458333332 11.735026041666666  8.479817708333332 11.832682291666666  C 8.577473958333332 11.930338541666666  8.702256944444446 11.979166666666666  8.854166666666668 11.979166666666666  L 10.416666666666668 11.979166666666666  L 10.416666666666668 17.1875  L 8.854166666666668 17.1875  C 8.702256944444446 17.1875  8.577473958333332 17.236328125  8.479817708333332 17.333984375  C 8.382161458333332 17.431640625  8.333333333333332 17.55642361111111  8.333333333333332 17.708333333333332  L 8.333333333333332 20.3125  C 8.333333333333332 20.46440972222222  8.382161458333332 20.589192708333336  8.479817708333332 20.686848958333336  C 8.577473958333332 20.784505208333336  8.702256944444446 20.833333333333336  8.854166666666668 20.833333333333336  L 16.145833333333336 20.833333333333336  C 16.297743055555554 20.833333333333336  16.422526041666664 20.784505208333336  16.520182291666664 20.686848958333336  Z M 14.436848958333334 6.103515625  C 14.534505208333334 6.005859375  14.583333333333334 5.881076388888887  14.583333333333334 5.729166666666666  L 14.583333333333334 3.125  C 14.583333333333334 2.9730902777777763  14.534505208333334 2.8483072916666656  14.436848958333334 2.7506510416666656  C 14.339192708333334 2.6529947916666656  14.214409722222223 2.6041666666666656  14.0625 2.6041666666666656  L 10.9375 2.6041666666666656  C 10.785590277777779 2.6041666666666656  10.660807291666668 2.6529947916666656  10.563151041666668 2.7506510416666656  C 10.465494791666668 2.8483072916666656  10.416666666666668 2.9730902777777763  10.416666666666668 3.125  L 10.416666666666668 5.729166666666666  C 10.416666666666668 5.881076388888887  10.465494791666668 6.005859375  10.563151041666668 6.103515625  C 10.660807291666668 6.201171875  10.785590277777779 6.25  10.9375 6.25  L 14.0625 6.25  C 14.214409722222223 6.25  14.339192708333334 6.201171875  14.436848958333334 6.103515625  Z M 23.323567708333336 6.2255859375  C 24.441189236111107 8.140733506944443  25 10.232204861111107  25 12.5  C 25 14.76779513888889  24.441189236111107 16.859266493055554  23.323567708333336 18.7744140625  C 22.205946180555557 20.689561631944446  20.689561631944446 22.205946180555554  18.7744140625 23.323567708333336  C 16.859266493055557 24.441189236111114  14.76779513888889 25  12.5 25  C 10.232204861111112 25  8.140733506944445 24.441189236111114  6.2255859375 23.323567708333336  C 4.310438368055556 22.205946180555554  2.7940538194444446 20.689561631944446  1.6764322916666667 18.7744140625  C 0.5588107638888888 16.859266493055554  0 14.76779513888889  0 12.5  C 0 10.232204861111107  0.5588107638888888 8.140733506944443  1.6764322916666667 6.2255859375  C 2.7940538194444446 4.310438368055555  4.310438368055556 2.794053819444442  6.2255859375 1.6764322916666656  C 8.140733506944445 0.5588107638888867  10.232204861111112 0  12.5 0  C 14.76779513888889 0  16.859266493055557 0.5588107638888867  18.7744140625 1.6764322916666656  C 20.689561631944446 2.794053819444442  22.205946180555557 4.310438368055555  23.323567708333336 6.2255859375  Z " fill-rule="evenodd" />
    </mask>
  </defs>
  <g transform="matrix(1 0 0 1 -167 -383 )">
    <path d="M 16.520182291666664 20.686848958333336  C 16.617838541666664 20.589192708333336  16.666666666666664 20.46440972222222  16.666666666666664 20.3125  L 16.666666666666664 17.708333333333332  C 16.666666666666664 17.55642361111111  16.617838541666664 17.431640625  16.520182291666664 17.333984375  C 16.422526041666664 17.236328125  16.297743055555554 17.1875  16.145833333333336 17.1875  L 14.583333333333334 17.1875  L 14.583333333333334 8.854166666666666  C 14.583333333333334 8.702256944444445  14.534505208333334 8.577473958333334  14.436848958333334 8.479817708333334  C 14.339192708333334 8.382161458333334  14.214409722222223 8.333333333333334  14.0625 8.333333333333334  L 8.854166666666668 8.333333333333334  C 8.702256944444446 8.333333333333334  8.577473958333332 8.382161458333334  8.479817708333332 8.479817708333334  C 8.382161458333332 8.577473958333334  8.333333333333332 8.702256944444445  8.333333333333332 8.854166666666666  L 8.333333333333332 11.458333333333334  C 8.333333333333332 11.610243055555555  8.382161458333332 11.735026041666666  8.479817708333332 11.832682291666666  C 8.577473958333332 11.930338541666666  8.702256944444446 11.979166666666666  8.854166666666668 11.979166666666666  L 10.416666666666668 11.979166666666666  L 10.416666666666668 17.1875  L 8.854166666666668 17.1875  C 8.702256944444446 17.1875  8.577473958333332 17.236328125  8.479817708333332 17.333984375  C 8.382161458333332 17.431640625  8.333333333333332 17.55642361111111  8.333333333333332 17.708333333333332  L 8.333333333333332 20.3125  C 8.333333333333332 20.46440972222222  8.382161458333332 20.589192708333336  8.479817708333332 20.686848958333336  C 8.577473958333332 20.784505208333336  8.702256944444446 20.833333333333336  8.854166666666668 20.833333333333336  L 16.145833333333336 20.833333333333336  C 16.297743055555554 20.833333333333336  16.422526041666664 20.784505208333336  16.520182291666664 20.686848958333336  Z M 14.436848958333334 6.103515625  C 14.534505208333334 6.005859375  14.583333333333334 5.881076388888887  14.583333333333334 5.729166666666666  L 14.583333333333334 3.125  C 14.583333333333334 2.9730902777777763  14.534505208333334 2.8483072916666656  14.436848958333334 2.7506510416666656  C 14.339192708333334 2.6529947916666656  14.214409722222223 2.6041666666666656  14.0625 2.6041666666666656  L 10.9375 2.6041666666666656  C 10.785590277777779 2.6041666666666656  10.660807291666668 2.6529947916666656  10.563151041666668 2.7506510416666656  C 10.465494791666668 2.8483072916666656  10.416666666666668 2.9730902777777763  10.416666666666668 3.125  L 10.416666666666668 5.729166666666666  C 10.416666666666668 5.881076388888887  10.465494791666668 6.005859375  10.563151041666668 6.103515625  C 10.660807291666668 6.201171875  10.785590277777779 6.25  10.9375 6.25  L 14.0625 6.25  C 14.214409722222223 6.25  14.339192708333334 6.201171875  14.436848958333334 6.103515625  Z M 23.323567708333336 6.2255859375  C 24.441189236111107 8.140733506944443  25 10.232204861111107  25 12.5  C 25 14.76779513888889  24.441189236111107 16.859266493055554  23.323567708333336 18.7744140625  C 22.205946180555557 20.689561631944446  20.689561631944446 22.205946180555554  18.7744140625 23.323567708333336  C 16.859266493055557 24.441189236111114  14.76779513888889 25  12.5 25  C 10.232204861111112 25  8.140733506944445 24.441189236111114  6.2255859375 23.323567708333336  C 4.310438368055556 22.205946180555554  2.7940538194444446 20.689561631944446  1.6764322916666667 18.7744140625  C 0.5588107638888888 16.859266493055554  0 14.76779513888889  0 12.5  C 0 10.232204861111107  0.5588107638888888 8.140733506944443  1.6764322916666667 6.2255859375  C 2.7940538194444446 4.310438368055555  4.310438368055556 2.794053819444442  6.2255859375 1.6764322916666656  C 8.140733506944445 0.5588107638888867  10.232204861111112 0  12.5 0  C 14.76779513888889 0  16.859266493055557 0.5588107638888867  18.7744140625 1.6764322916666656  C 20.689561631944446 2.794053819444442  22.205946180555557 4.310438368055555  23.323567708333336 6.2255859375  Z " fill-rule="nonzero" fill="rgba(127, 127, 127, 1)" stroke="none" transform="matrix(1 0 0 1 167 383 )" class="fill" />
    <path d="M 16.520182291666664 20.686848958333336  C 16.617838541666664 20.589192708333336  16.666666666666664 20.46440972222222  16.666666666666664 20.3125  L 16.666666666666664 17.708333333333332  C 16.666666666666664 17.55642361111111  16.617838541666664 17.431640625  16.520182291666664 17.333984375  C 16.422526041666664 17.236328125  16.297743055555554 17.1875  16.145833333333336 17.1875  L 14.583333333333334 17.1875  L 14.583333333333334 8.854166666666666  C 14.583333333333334 8.702256944444445  14.534505208333334 8.577473958333334  14.436848958333334 8.479817708333334  C 14.339192708333334 8.382161458333334  14.214409722222223 8.333333333333334  14.0625 8.333333333333334  L 8.854166666666668 8.333333333333334  C 8.702256944444446 8.333333333333334  8.577473958333332 8.382161458333334  8.479817708333332 8.479817708333334  C 8.382161458333332 8.577473958333334  8.333333333333332 8.702256944444445  8.333333333333332 8.854166666666666  L 8.333333333333332 11.458333333333334  C 8.333333333333332 11.610243055555555  8.382161458333332 11.735026041666666  8.479817708333332 11.832682291666666  C 8.577473958333332 11.930338541666666  8.702256944444446 11.979166666666666  8.854166666666668 11.979166666666666  L 10.416666666666668 11.979166666666666  L 10.416666666666668 17.1875  L 8.854166666666668 17.1875  C 8.702256944444446 17.1875  8.577473958333332 17.236328125  8.479817708333332 17.333984375  C 8.382161458333332 17.431640625  8.333333333333332 17.55642361111111  8.333333333333332 17.708333333333332  L 8.333333333333332 20.3125  C 8.333333333333332 20.46440972222222  8.382161458333332 20.589192708333336  8.479817708333332 20.686848958333336  C 8.577473958333332 20.784505208333336  8.702256944444446 20.833333333333336  8.854166666666668 20.833333333333336  L 16.145833333333336 20.833333333333336  C 16.297743055555554 20.833333333333336  16.422526041666664 20.784505208333336  16.520182291666664 20.686848958333336  Z " stroke-width="0" stroke-dasharray="0" stroke="rgba(255, 255, 255, 0)" fill="none" transform="matrix(1 0 0 1 167 383 )" class="stroke" mask="url(#Clip808)" />
    <path d="M 14.436848958333334 6.103515625  C 14.534505208333334 6.005859375  14.583333333333334 5.881076388888887  14.583333333333334 5.729166666666666  L 14.583333333333334 3.125  C 14.583333333333334 2.9730902777777763  14.534505208333334 2.8483072916666656  14.436848958333334 2.7506510416666656  C 14.339192708333334 2.6529947916666656  14.214409722222223 2.6041666666666656  14.0625 2.6041666666666656  L 10.9375 2.6041666666666656  C 10.785590277777779 2.6041666666666656  10.660807291666668 2.6529947916666656  10.563151041666668 2.7506510416666656  C 10.465494791666668 2.8483072916666656  10.416666666666668 2.9730902777777763  10.416666666666668 3.125  L 10.416666666666668 5.729166666666666  C 10.416666666666668 5.881076388888887  10.465494791666668 6.005859375  10.563151041666668 6.103515625  C 10.660807291666668 6.201171875  10.785590277777779 6.25  10.9375 6.25  L 14.0625 6.25  C 14.214409722222223 6.25  14.339192708333334 6.201171875  14.436848958333334 6.103515625  Z " stroke-width="0" stroke-dasharray="0" stroke="rgba(255, 255, 255, 0)" fill="none" transform="matrix(1 0 0 1 167 383 )" class="stroke" mask="url(#Clip808)" />
    <path d="M 23.323567708333336 6.2255859375  C 24.441189236111107 8.140733506944443  25 10.232204861111107  25 12.5  C 25 14.76779513888889  24.441189236111107 16.859266493055554  23.323567708333336 18.7744140625  C 22.205946180555557 20.689561631944446  20.689561631944446 22.205946180555554  18.7744140625 23.323567708333336  C 16.859266493055557 24.441189236111114  14.76779513888889 25  12.5 25  C 10.232204861111112 25  8.140733506944445 24.441189236111114  6.2255859375 23.323567708333336  C 4.310438368055556 22.205946180555554  2.7940538194444446 20.689561631944446  1.6764322916666667 18.7744140625  C 0.5588107638888888 16.859266493055554  0 14.76779513888889  0 12.5  C 0 10.232204861111107  0.5588107638888888 8.140733506944443  1.6764322916666667 6.2255859375  C 2.7940538194444446 4.310438368055555  4.310438368055556 2.794053819444442  6.2255859375 1.6764322916666656  C 8.140733506944445 0.5588107638888867  10.232204861111112 0  12.5 0  C 14.76779513888889 0  16.859266493055557 0.5588107638888867  18.7744140625 1.6764322916666656  C 20.689561631944446 2.794053819444442  22.205946180555557 4.310438368055555  23.323567708333336 6.2255859375  Z " stroke-width="0" stroke-dasharray="0" stroke="rgba(255, 255, 255, 0)" fill="none" transform="matrix(1 0 0 1 167 383 )" class="stroke" mask="url(#Clip808)" />
  </g>
</svg>