<?xml version="1.0" encoding="utf-8"?>
<svg version="1.1" xmlns:xlink="http://www.w3.org/1999/xlink" width="130px" height="46px" xmlns="http://www.w3.org/2000/svg">
  <defs>
    <linearGradient gradientUnits="userSpaceOnUse" x1="65" y1="0" x2="65" y2="46" id="LinearGradient764">
      <stop id="Stop765" stop-color="#ffffff" offset="0" />
      <stop id="Stop766" stop-color="#f2f2f2" offset="0" />
      <stop id="Stop767" stop-color="#e4e4e4" offset="1" />
      <stop id="Stop768" stop-color="#ffffff" offset="1" />
    </linearGradient>
    <pattern id="BGPattern" patternUnits="userSpaceOnUse" alignment="0 0" imageRepeat="None" />
    <mask fill="white" id="Clip769">
      <path d="M 130 46  L 0 46  C 0 20.24  28.599999999999998 0  65 0  C 101.4 0  130 20.24  130 46  Z " fill-rule="evenodd" />
    </mask>
  </defs>
  <g transform="matrix(1 0 0 1 -644 -42 )">
    <path d="M 130 46  L 0 46  C 0 20.24  28.599999999999998 0  65 0  C 101.4 0  130 20.24  130 46  Z " fill-rule="nonzero" fill="url(#LinearGradient764)" stroke="none" transform="matrix(1 0 0 1 644 42 )" class="fill" />
    <path d="M 130 46  L 0 46  C 0 20.24  28.599999999999998 0  65 0  C 101.4 0  130 20.24  130 46  Z " stroke-width="2" stroke-dasharray="0" stroke="rgba(255, 255, 255, 0)" fill="none" transform="matrix(1 0 0 1 644 42 )" class="stroke" mask="url(#Clip769)" />
  </g>
</svg>